{
  "accessors": [
    {
      "bufferView": 0,
      "componentType": 5126,
      "count": 40,
      "max": [
        0.1248520016670227,
        0.6201902031898499,
        0.11667259782552719
      ],
      "min": [
        -0.16500000655651093,
        0.03980978950858116,
        -0.08828368037939072
      ],
      "name": "slice_Material0/POSITION",
      "type": "VEC3"
    },
    {
      "bufferView": 0,
      "byteOffset": 12,
      "componentType": 5126,
      "count": 40,
      "name": "slice_Material0/NORMAL",
      "type": "VEC3"
    },
    {
      "bufferView": 0,
      "byteOffset": 24,
      "componentType": 5126,
      "count": 40,
      "name": "slice_Material0/TEXCOORD_0",
      "type": "VEC2"
    },
    {
      "bufferView": 1,
      "componentType": 5123,
      "count": 108,
      "name": "slice_Material0/INDICES",
      "type": "SCALAR"
    },
    {
      "bufferView": 2,
      "componentType": 5126,
      "count": 32,
      "max": [
        -0.009429209865629673,
        0.4855707883834839,
        0.11667259782552719
      ],
      "min": [
        -0.14556559920310974,
        0.17442919313907623,
        0.006667457986623049
      ],
      "name": "slice_Material0/POSITION",
      "type": "VEC3"
    },
    {
      "bufferView": 2,
      "byteOffset": 12,
      "componentType": 5126,
      "count": 32,
      "name": "slice_Material0/NORMAL",
      "type": "VEC3"
    },
    {
      "bufferView": 2,
      "byteOffset": 24,
      "componentType": 5126,
      "count": 32,
      "name": "slice_Material0/TEXCOORD_0",
      "type": "VEC2"
    },
    {
      "bufferView": 3,
      "componentType": 5123,
      "count": 48,
      "name": "slice_Material0/INDICES",
      "type": "SCALAR"
    },
    {
      "bufferView": 4,
      "componentType": 5126,
      "count": 44,
      "max": [
        0.16500000655651093,
        0.6899999976158142,
        0.11667259782552719
      ],
      "min": [
        -0.16500000655651093,
        0.0,
        -0.11667259782552719
      ],
      "name": "slice_Material0/POSITION",
      "type": "VEC3"
    },
    {
      "bufferView": 4,
      "byteOffset": 12,
      "componentType": 5126,
      "count": 44,
      "name": "slice_Material0/NORMAL",
      "type": "VEC3"
    },
    {
      "bufferView": 4,
      "byteOffset": 24,
      "componentType": 5126,
      "count": 44,
      "name": "slice_Material0/TEXCOORD_0",
      "type": "VEC2"
    },
    {
      "bufferView": 5,
      "componentType": 5123,
      "count": 120,
      "name": "slice_Material0/INDICES",
      "type": "SCALAR"
    },
    {
      "bufferView": 6,
      "componentType": 5126,
      "count": 50,
      "max": [
        0.09737861156463623,
        0.5885229706764221,
        0.11667259782552719
      ],
      "min": [
        -0.16500000655651093,
        0.0714770033955574,
        -0.06885706633329391
      ],
      "name": "slice_Material0/POSITION",
      "type": "VEC3"
    },
    {
      "bufferView": 6,
      "byteOffset": 12,
      "componentType": 5126,
      "count": 50,
      "name": "slice_Material0/NORMAL",
      "type": "VEC3"
    },
    {
      "bufferView": 6,
      "byteOffset": 24,
      "componentType": 5126,
      "count": 50,
      "name": "slice_Material0/TEXCOORD_0",
      "type": "VEC2"
    },
    {
      "bufferView": 7,
      "componentType": 5123,
      "count": 186,
      "name": "slice_Material0/INDICES",
      "type": "SCALAR"
    },
    {
      "bufferView": 8,
      "componentType": 5126,
      "count": 27,
      "max": [
        0.16500000655651093,
        0.6599999070167542,
        0.11667259782552719
      ],
      "min": [
        -0.16500000655651093,
        0.0,
        -0.11667259782552719
      ],
      "name": "slice_Material0/POSITION",
      "type": "VEC3"
    },
    {
      "bufferView": 8,
      "byteOffset": 12,
      "componentType": 5126,
      "count": 27,
      "name": "slice_Material0/NORMAL",
      "type": "VEC3"
    },
    {
      "bufferView": 8,
      "byteOffset": 24,
      "componentType": 5126,
      "count": 27,
      "name": "slice_Material0/TEXCOORD_0",
      "type": "VEC2"
    },
    {
      "bufferView": 9,
      "componentType": 5123,
      "count": 39,
      "name": "slice_Material0/INDICES",
      "type": "SCALAR"
    },
    {
      "bufferView": 10,
      "componentType": 5126,
      "count": 11,
      "max": [
        -0.07532870769500732,
        0.6899999976158142,
        0.11667259782552719
      ],
      "min": [
        -0.16500000655651093,
        0.6599999070167542,
        0.053265441209077835
      ],
      "name": "slice_Material0/POSITION",
      "type": "VEC3"
    },
    {
      "bufferView": 10,
      "byteOffset": 12,
      "componentType": 5126,
      "count": 11,
      "name": "slice_Material0/NORMAL",
      "type": "VEC3"
    },
    {
      "bufferView": 10,
      "byteOffset": 24,
      "componentType": 5126,
      "count": 11,
      "name": "slice_Material0/TEXCOORD_0",
      "type": "VEC2"
    },
    {
      "bufferView": 11,
      "componentType": 5123,
      "count": 15,
      "name": "slice_Material0/INDICES",
      "type": "SCALAR"
    },
    {
      "bufferView": 12,
      "componentType": 5126,
      "count": 40,
      "max": [
        0.1248520016670227,
        0.6201902031898499,
        0.11667259782552719
      ],
      "min": [
        -0.16500000655651093,
        0.03980978950858116,
        -0.08828368037939072
      ],
      "name": "slice_Material0/POSITION",
      "type": "VEC3"
    },
    {
      "bufferView": 12,
      "byteOffset": 12,
      "componentType": 5126,
      "count": 40,
      "name": "slice_Material0/NORMAL",
      "type": "VEC3"
    },
    {
      "bufferView": 12,
      "byteOffset": 24,
      "componentType": 5126,
      "count": 40,
      "name": "slice_Material0/TEXCOORD_0",
      "type": "VEC2"
    },
    {
      "bufferView": 13,
      "componentType": 5123,
      "count": 108,
      "name": "slice_Material0/INDICES",
      "type": "SCALAR"
    },
    {
      "bufferView": 14,
      "componentType": 5126,
      "count": 32,
      "max": [
        -0.009429209865629673,
        0.4855707883834839,
        0.11667259782552719
      ],
      "min": [
        -0.14556559920310974,
        0.17442919313907623,
        0.006667457986623049
      ],
      "name": "slice_Material0/POSITION",
      "type": "VEC3"
    },
    {
      "bufferView": 14,
      "byteOffset": 12,
      "componentType": 5126,
      "count": 32,
      "name": "slice_Material0/NORMAL",
      "type": "VEC3"
    },
    {
      "bufferView": 14,
      "byteOffset": 24,
      "componentType": 5126,
      "count": 32,
      "name": "slice_Material0/TEXCOORD_0",
      "type": "VEC2"
    },
    {
      "bufferView": 15,
      "componentType": 5123,
      "count": 48,
      "name": "slice_Material0/INDICES",
      "type": "SCALAR"
    },
    {
      "bufferView": 16,
      "componentType": 5126,
      "count": 71,
      "max": [
        0.16500000655651093,
        0.6899999976158142,
        0.11667259782552719
      ],
      "min": [
        -0.16500000655651093,
        0.0,
        -0.11667259782552719
      ],
      "name": "slice_Material0/POSITION",
      "type": "VEC3"
    },
    {
      "bufferView": 16,
      "byteOffset": 12,
      "componentType": 5126,
      "count": 71,
      "name": "slice_Material0/NORMAL",
      "type": "VEC3"
    },
    {
      "bufferView": 16,
      "byteOffset": 24,
      "componentType": 5126,
      "count": 71,
      "name": "slice_Material0/TEXCOORD_0",
      "type": "VEC2"
    },
    {
      "bufferView": 17,
      "componentType": 5123,
      "count": 159,
      "name": "slice_Material0/INDICES",
      "type": "SCALAR"
    },
    {
      "bufferView": 18,
      "componentType": 5126,
      "count": 50,
      "max": [
        0.09737861156463623,
        0.5885229706764221,
        0.11667259782552719
      ],
      "min": [
        -0.16500000655651093,
        0.0714770033955574,
        -0.06885706633329391
      ],
      "name": "slice_Material0/POSITION",
      "type": "VEC3"
    },
    {
      "bufferView": 18,
      "byteOffset": 12,
      "componentType": 5126,
      "count": 50,
      "name": "slice_Material0/NORMAL",
      "type": "VEC3"
    },
    {
      "bufferView": 18,
      "byteOffset": 24,
      "componentType": 5126,
      "count": 50,
      "name": "slice_Material0/TEXCOORD_0",
      "type": "VEC2"
    },
    {
      "bufferView": 19,
      "componentType": 5123,
      "count": 186,
      "name": "slice_Material0/INDICES",
      "type": "SCALAR"
    },
    {
      "bufferView": 20,
      "componentType": 5126,
      "count": 11,
      "max": [
        -0.07532870769500732,
        0.6899999976158142,
        0.11667259782552719
      ],
      "min": [
        -0.16500000655651093,
        0.6599999070167542,
        0.053265441209077835
      ],
      "name": "slice_Material0/POSITION",
      "type": "VEC3"
    },
    {
      "bufferView": 20,
      "byteOffset": 12,
      "componentType": 5126,
      "count": 11,
      "name": "slice_Material0/NORMAL",
      "type": "VEC3"
    },
    {
      "bufferView": 20,
      "byteOffset": 24,
      "componentType": 5126,
      "count": 11,
      "name": "slice_Material0/TEXCOORD_0",
      "type": "VEC2"
    },
    {
      "bufferView": 21,
      "componentType": 5123,
      "count": 15,
      "name": "slice_Material0/INDICES",
      "type": "SCALAR"
    },
    {
      "bufferView": 22,
      "componentType": 5126,
      "count": 40,
      "max": [
        0.1248520016670227,
        0.6201902031898499,
        0.11667259782552719
      ],
      "min": [
        -0.16500000655651093,
        0.03980978950858116,
        -0.08828368037939072
      ],
      "name": "slice_Material0/POSITION",
      "type": "VEC3"
    },
    {
      "bufferView": 22,
      "byteOffset": 12,
      "componentType": 5126,
      "count": 40,
      "name": "slice_Material0/NORMAL",
      "type": "VEC3"
    },
    {
      "bufferView": 22,
      "byteOffset": 24,
      "componentType": 5126,
      "count": 40,
      "name": "slice_Material0/TEXCOORD_0",
      "type": "VEC2"
    },
    {
      "bufferView": 23,
      "componentType": 5123,
      "count": 108,
      "name": "slice_Material0/INDICES",
      "type": "SCALAR"
    },
    {
      "bufferView": 24,
      "componentType": 5126,
      "count": 32,
      "max": [
        -0.009429209865629673,
        0.4855707883834839,
        0.11667259782552719
      ],
      "min": [
        -0.14556559920310974,
        0.17442919313907623,
        0.006667457986623049
      ],
      "name": "slice_Material0/POSITION",
      "type": "VEC3"
    },
    {
      "bufferView": 24,
      "byteOffset": 12,
      "componentType": 5126,
      "count": 32,
      "name": "slice_Material0/NORMAL",
      "type": "VEC3"
    },
    {
      "bufferView": 24,
      "byteOffset": 24,
      "componentType": 5126,
      "count": 32,
      "name": "slice_Material0/TEXCOORD_0",
      "type": "VEC2"
    },
    {
      "bufferView": 25,
      "componentType": 5123,
      "count": 48,
      "name": "slice_Material0/INDICES",
      "type": "SCALAR"
    },
    {
      "bufferView": 26,
      "componentType": 5126,
      "count": 71,
      "max": [
        0.16500000655651093,
        0.6899999976158142,
        0.11667259782552719
      ],
      "min": [
        -0.16500000655651093,
        0.0,
        -0.11667259782552719
      ],
      "name": "slice_Material0/POSITION",
      "type": "VEC3"
    },
    {
      "bufferView": 26,
      "byteOffset": 12,
      "componentType": 5126,
      "count": 71,
      "name": "slice_Material0/NORMAL",
      "type": "VEC3"
    },
    {
      "bufferView": 26,
      "byteOffset": 24,
      "componentType": 5126,
      "count": 71,
      "name": "slice_Material0/TEXCOORD_0",
      "type": "VEC2"
    },
    {
      "bufferView": 27,
      "componentType": 5123,
      "count": 159,
      "name": "slice_Material0/INDICES",
      "type": "SCALAR"
    },
    {
      "bufferView": 28,
      "componentType": 5126,
      "count": 50,
      "max": [
        0.09737861156463623,
        0.5885229706764221,
        0.11667259782552719
      ],
      "min": [
        -0.16500000655651093,
        0.0714770033955574,
        -0.06885706633329391
      ],
      "name": "slice_Material0/POSITION",
      "type": "VEC3"
    },
    {
      "bufferView": 28,
      "byteOffset": 12,
      "componentType": 5126,
      "count": 50,
      "name": "slice_Material0/NORMAL",
      "type": "VEC3"
    },
    {
      "bufferView": 28,
      "byteOffset": 24,
      "componentType": 5126,
      "count": 50,
      "name": "slice_Material0/TEXCOORD_0",
      "type": "VEC2"
    },
    {
      "bufferView": 29,
      "componentType": 5123,
      "count": 186,
      "name": "slice_Material0/INDICES",
      "type": "SCALAR"
    },
    {
      "bufferView": 30,
      "componentType": 5126,
      "count": 11,
      "max": [
        -0.07532870769500732,
        0.6899999976158142,
        0.11667259782552719
      ],
      "min": [
        -0.16500000655651093,
        0.6599999070167542,
        0.053265441209077835
      ],
      "name": "slice_Material0/POSITION",
      "type": "VEC3"
    },
    {
      "bufferView": 30,
      "byteOffset": 12,
      "componentType": 5126,
      "count": 11,
      "name": "slice_Material0/NORMAL",
      "type": "VEC3"
    },
    {
      "bufferView": 30,
      "byteOffset": 24,
      "componentType": 5126,
      "count": 11,
      "name": "slice_Material0/TEXCOORD_0",
      "type": "VEC2"
    },
    {
      "bufferView": 31,
      "componentType": 5123,
      "count": 15,
      "name": "slice_Material0/INDICES",
      "type": "SCALAR"
    },
    {
      "bufferView": 32,
      "componentType": 5126,
      "count": 40,
      "max": [
        0.1248520016670227,
        0.6201902031898499,
        0.11667259782552719
      ],
      "min": [
        -0.16500000655651093,
        0.03980978950858116,
        -0.08828368037939072
      ],
      "name": "slice_Material0/POSITION",
      "type": "VEC3"
    },
    {
      "bufferView": 32,
      "byteOffset": 12,
      "componentType": 5126,
      "count": 40,
      "name": "slice_Material0/NORMAL",
      "type": "VEC3"
    },
    {
      "bufferView": 32,
      "byteOffset": 24,
      "componentType": 5126,
      "count": 40,
      "name": "slice_Material0/TEXCOORD_0",
      "type": "VEC2"
    },
    {
      "bufferView": 33,
      "componentType": 5123,
      "count": 108,
      "name": "slice_Material0/INDICES",
      "type": "SCALAR"
    },
    {
      "bufferView": 34,
      "componentType": 5126,
      "count": 32,
      "max": [
        -0.009429209865629673,
        0.4855707883834839,
        0.11667259782552719
      ],
      "min": [
        -0.14556559920310974,
        0.17442919313907623,
        0.006667457986623049
      ],
      "name": "slice_Material0/POSITION",
      "type": "VEC3"
    },
    {
      "bufferView": 34,
      "byteOffset": 12,
      "componentType": 5126,
      "count": 32,
      "name": "slice_Material0/NORMAL",
      "type": "VEC3"
    },
    {
      "bufferView": 34,
      "byteOffset": 24,
      "componentType": 5126,
      "count": 32,
      "name": "slice_Material0/TEXCOORD_0",
      "type": "VEC2"
    },
    {
      "bufferView": 35,
      "componentType": 5123,
      "count": 48,
      "name": "slice_Material0/INDICES",
      "type": "SCALAR"
    },
    {
      "bufferView": 36,
      "componentType": 5126,
      "count": 71,
      "max": [
        0.16500000655651093,
        0.6899999976158142,
        0.11667259782552719
      ],
      "min": [
        -0.16500000655651093,
        0.0,
        -0.11667259782552719
      ],
      "name": "slice_Material0/POSITION",
      "type": "VEC3"
    },
    {
      "bufferView": 36,
      "byteOffset": 12,
      "componentType": 5126,
      "count": 71,
      "name": "slice_Material0/NORMAL",
      "type": "VEC3"
    },
    {
      "bufferView": 36,
      "byteOffset": 24,
      "componentType": 5126,
      "count": 71,
      "name": "slice_Material0/TEXCOORD_0",
      "type": "VEC2"
    },
    {
      "bufferView": 37,
      "componentType": 5123,
      "count": 159,
      "name": "slice_Material0/INDICES",
      "type": "SCALAR"
    },
    {
      "bufferView": 38,
      "componentType": 5126,
      "count": 50,
      "max": [
        0.09737861156463623,
        0.5885229706764221,
        0.11667259782552719
      ],
      "min": [
        -0.16500000655651093,
        0.0714770033955574,
        -0.06885706633329391
      ],
      "name": "slice_Material0/POSITION",
      "type": "VEC3"
    },
    {
      "bufferView": 38,
      "byteOffset": 12,
      "componentType": 5126,
      "count": 50,
      "name": "slice_Material0/NORMAL",
      "type": "VEC3"
    },
    {
      "bufferView": 38,
      "byteOffset": 24,
      "componentType": 5126,
      "count": 50,
      "name": "slice_Material0/TEXCOORD_0",
      "type": "VEC2"
    },
    {
      "bufferView": 39,
      "componentType": 5123,
      "count": 186,
      "name": "slice_Material0/INDICES",
      "type": "SCALAR"
    },
    {
      "bufferView": 40,
      "componentType": 5126,
      "count": 11,
      "max": [
        -0.07532870769500732,
        0.6899999976158142,
        0.11667259782552719
      ],
      "min": [
        -0.16500000655651093,
        0.6599999070167542,
        0.053265441209077835
      ],
      "name": "slice_Material0/POSITION",
      "type": "VEC3"
    },
    {
      "bufferView": 40,
      "byteOffset": 12,
      "componentType": 5126,
      "count": 11,
      "name": "slice_Material0/NORMAL",
      "type": "VEC3"
    },
    {
      "bufferView": 40,
      "byteOffset": 24,
      "componentType": 5126,
      "count": 11,
      "name": "slice_Material0/TEXCOORD_0",
      "type": "VEC2"
    },
    {
      "bufferView": 41,
      "componentType": 5123,
      "count": 15,
      "name": "slice_Material0/INDICES",
      "type": "SCALAR"
    },
    {
      "bufferView": 42,
      "componentType": 5126,
      "count": 40,
      "max": [
        0.1248520016670227,
        0.6201902031898499,
        0.11667259782552719
      ],
      "min": [
        -0.16500000655651093,
        0.03980978950858116,
        -0.08828368037939072
      ],
      "name": "slice_Material0/POSITION",
      "type": "VEC3"
    },
    {
      "bufferView": 42,
      "byteOffset": 12,
      "componentType": 5126,
      "count": 40,
      "name": "slice_Material0/NORMAL",
      "type": "VEC3"
    },
    {
      "bufferView": 42,
      "byteOffset": 24,
      "componentType": 5126,
      "count": 40,
      "name": "slice_Material0/TEXCOORD_0",
      "type": "VEC2"
    },
    {
      "bufferView": 43,
      "componentType": 5123,
      "count": 108,
      "name": "slice_Material0/INDICES",
      "type": "SCALAR"
    },
    {
      "bufferView": 44,
      "componentType": 5126,
      "count": 32,
      "max": [
        -0.009429209865629673,
        0.4855707883834839,
        0.11667259782552719
      ],
      "min": [
        -0.14556559920310974,
        0.17442919313907623,
        0.006667457986623049
      ],
      "name": "slice_Material0/POSITION",
      "type": "VEC3"
    },
    {
      "bufferView": 44,
      "byteOffset": 12,
      "componentType": 5126,
      "count": 32,
      "name": "slice_Material0/NORMAL",
      "type": "VEC3"
    },
    {
      "bufferView": 44,
      "byteOffset": 24,
      "componentType": 5126,
      "count": 32,
      "name": "slice_Material0/TEXCOORD_0",
      "type": "VEC2"
    },
    {
      "bufferView": 45,
      "componentType": 5123,
      "count": 48,
      "name": "slice_Material0/INDICES",
      "type": "SCALAR"
    },
    {
      "bufferView": 46,
      "componentType": 5126,
      "count": 44,
      "max": [
        0.16500000655651093,
        0.6899999976158142,
        0.11667259782552719
      ],
      "min": [
        -0.16500000655651093,
        0.0,
        -0.11667259782552719
      ],
      "name": "slice_Material0/POSITION",
      "type": "VEC3"
    },
    {
      "bufferView": 46,
      "byteOffset": 12,
      "componentType": 5126,
      "count": 44,
      "name": "slice_Material0/NORMAL",
      "type": "VEC3"
    },
    {
      "bufferView": 46,
      "byteOffset": 24,
      "componentType": 5126,
      "count": 44,
      "name": "slice_Material0/TEXCOORD_0",
      "type": "VEC2"
    },
    {
      "bufferView": 47,
      "componentType": 5123,
      "count": 120,
      "name": "slice_Material0/INDICES",
      "type": "SCALAR"
    },
    {
      "bufferView": 48,
      "componentType": 5126,
      "count": 50,
      "max": [
        0.09737861156463623,
        0.5885229706764221,
        0.11667259782552719
      ],
      "min": [
        -0.16500000655651093,
        0.0714770033955574,
        -0.06885706633329391
      ],
      "name": "slice_Material0/POSITION",
      "type": "VEC3"
    },
    {
      "bufferView": 48,
      "byteOffset": 12,
      "componentType": 5126,
      "count": 50,
      "name": "slice_Material0/NORMAL",
      "type": "VEC3"
    },
    {
      "bufferView": 48,
      "byteOffset": 24,
      "componentType": 5126,
      "count": 50,
      "name": "slice_Material0/TEXCOORD_0",
      "type": "VEC2"
    },
    {
      "bufferView": 49,
      "componentType": 5123,
      "count": 186,
      "name": "slice_Material0/INDICES",
      "type": "SCALAR"
    },
    {
      "bufferView": 50,
      "componentType": 5126,
      "count": 27,
      "max": [
        0.16500000655651093,
        0.6599999070167542,
        0.11667259782552719
      ],
      "min": [
        -0.16500000655651093,
        0.0,
        -0.11667259782552719
      ],
      "name": "slice_Material0/POSITION",
      "type": "VEC3"
    },
    {
      "bufferView": 50,
      "byteOffset": 12,
      "componentType": 5126,
      "count": 27,
      "name": "slice_Material0/NORMAL",
      "type": "VEC3"
    },
    {
      "bufferView": 50,
      "byteOffset": 24,
      "componentType": 5126,
      "count": 27,
      "name": "slice_Material0/TEXCOORD_0",
      "type": "VEC2"
    },
    {
      "bufferView": 51,
      "componentType": 5123,
      "count": 39,
      "name": "slice_Material0/INDICES",
      "type": "SCALAR"
    },
    {
      "bufferView": 52,
      "componentType": 5126,
      "count": 11,
      "max": [
        -0.07532870769500732,
        0.6899999976158142,
        0.11667259782552719
      ],
      "min": [
        -0.16500000655651093,
        0.6599999070167542,
        0.053265441209077835
      ],
      "name": "slice_Material0/POSITION",
      "type": "VEC3"
    },
    {
      "bufferView": 52,
      "byteOffset": 12,
      "componentType": 5126,
      "count": 11,
      "name": "slice_Material0/NORMAL",
      "type": "VEC3"
    },
    {
      "bufferView": 52,
      "byteOffset": 24,
      "componentType": 5126,
      "count": 11,
      "name": "slice_Material0/TEXCOORD_0",
      "type": "VEC2"
    },
    {
      "bufferView": 53,
      "componentType": 5123,
      "count": 15,
      "name": "slice_Material0/INDICES",
      "type": "SCALAR"
    },
    {
      "bufferView": 54,
      "componentType": 5126,
      "count": 40,
      "max": [
        0.1248520016670227,
        0.6201902031898499,
        0.11667259782552719
      ],
      "min": [
        -0.16500000655651093,
        0.03980978950858116,
        -0.08828368037939072
      ],
      "name": "slice_Material0/POSITION",
      "type": "VEC3"
    },
    {
      "bufferView": 54,
      "byteOffset": 12,
      "componentType": 5126,
      "count": 40,
      "name": "slice_Material0/NORMAL",
      "type": "VEC3"
    },
    {
      "bufferView": 54,
      "byteOffset": 24,
      "componentType": 5126,
      "count": 40,
      "name": "slice_Material0/TEXCOORD_0",
      "type": "VEC2"
    },
    {
      "bufferView": 55,
      "componentType": 5123,
      "count": 108,
      "name": "slice_Material0/INDICES",
      "type": "SCALAR"
    },
    {
      "bufferView": 56,
      "componentType": 5126,
      "count": 32,
      "max": [
        -0.009429209865629673,
        0.4855707883834839,
        0.11667259782552719
      ],
      "min": [
        -0.14556559920310974,
        0.17442919313907623,
        0.006667457986623049
      ],
      "name": "slice_Material0/POSITION",
      "type": "VEC3"
    },
    {
      "bufferView": 56,
      "byteOffset": 12,
      "componentType": 5126,
      "count": 32,
      "name": "slice_Material0/NORMAL",
      "type": "VEC3"
    },
    {
      "bufferView": 56,
      "byteOffset": 24,
      "componentType": 5126,
      "count": 32,
      "name": "slice_Material0/TEXCOORD_0",
      "type": "VEC2"
    },
    {
      "bufferView": 57,
      "componentType": 5123,
      "count": 48,
      "name": "slice_Material0/INDICES",
      "type": "SCALAR"
    },
    {
      "bufferView": 58,
      "componentType": 5126,
      "count": 44,
      "max": [
        0.16500000655651093,
        0.6899999976158142,
        0.11667259782552719
      ],
      "min": [
        -0.16500000655651093,
        0.0,
        -0.11667259782552719
      ],
      "name": "slice_Material0/POSITION",
      "type": "VEC3"
    },
    {
      "bufferView": 58,
      "byteOffset": 12,
      "componentType": 5126,
      "count": 44,
      "name": "slice_Material0/NORMAL",
      "type": "VEC3"
    },
    {
      "bufferView": 58,
      "byteOffset": 24,
      "componentType": 5126,
      "count": 44,
      "name": "slice_Material0/TEXCOORD_0",
      "type": "VEC2"
    },
    {
      "bufferView": 59,
      "componentType": 5123,
      "count": 120,
      "name": "slice_Material0/INDICES",
      "type": "SCALAR"
    },
    {
      "bufferView": 60,
      "componentType": 5126,
      "count": 50,
      "max": [
        0.09737861156463623,
        0.5885229706764221,
        0.11667259782552719
      ],
      "min": [
        -0.16500000655651093,
        0.0714770033955574,
        -0.06885706633329391
      ],
      "name": "slice_Material0/POSITION",
      "type": "VEC3"
    },
    {
      "bufferView": 60,
      "byteOffset": 12,
      "componentType": 5126,
      "count": 50,
      "name": "slice_Material0/NORMAL",
      "type": "VEC3"
    },
    {
      "bufferView": 60,
      "byteOffset": 24,
      "componentType": 5126,
      "count": 50,
      "name": "slice_Material0/TEXCOORD_0",
      "type": "VEC2"
    },
    {
      "bufferView": 61,
      "componentType": 5123,
      "count": 186,
      "name": "slice_Material0/INDICES",
      "type": "SCALAR"
    },
    {
      "bufferView": 62,
      "componentType": 5126,
      "count": 27,
      "max": [
        0.16500000655651093,
        0.6599999070167542,
        0.11667259782552719
      ],
      "min": [
        -0.16500000655651093,
        0.0,
        -0.11667259782552719
      ],
      "name": "slice_Material0/POSITION",
      "type": "VEC3"
    },
    {
      "bufferView": 62,
      "byteOffset": 12,
      "componentType": 5126,
      "count": 27,
      "name": "slice_Material0/NORMAL",
      "type": "VEC3"
    },
    {
      "bufferView": 62,
      "byteOffset": 24,
      "componentType": 5126,
      "count": 27,
      "name": "slice_Material0/TEXCOORD_0",
      "type": "VEC2"
    },
    {
      "bufferView": 63,
      "componentType": 5123,
      "count": 39,
      "name": "slice_Material0/INDICES",
      "type": "SCALAR"
    },
    {
      "bufferView": 64,
      "componentType": 5126,
      "count": 11,
      "max": [
        -0.07532870769500732,
        0.6899999976158142,
        0.11667259782552719
      ],
      "min": [
        -0.16500000655651093,
        0.6599999070167542,
        0.053265441209077835
      ],
      "name": "slice_Material0/POSITION",
      "type": "VEC3"
    },
    {
      "bufferView": 64,
      "byteOffset": 12,
      "componentType": 5126,
      "count": 11,
      "name": "slice_Material0/NORMAL",
      "type": "VEC3"
    },
    {
      "bufferView": 64,
      "byteOffset": 24,
      "componentType": 5126,
      "count": 11,
      "name": "slice_Material0/TEXCOORD_0",
      "type": "VEC2"
    },
    {
      "bufferView": 65,
      "componentType": 5123,
      "count": 15,
      "name": "slice_Material0/INDICES",
      "type": "SCALAR"
    },
    {
      "bufferView": 66,
      "componentType": 5126,
      "count": 40,
      "max": [
        0.1248520016670227,
        0.6201902031898499,
        0.11667259782552719
      ],
      "min": [
        -0.16500000655651093,
        0.03980978950858116,
        -0.08828368037939072
      ],
      "name": "slice_Material0/POSITION",
      "type": "VEC3"
    },
    {
      "bufferView": 66,
      "byteOffset": 12,
      "componentType": 5126,
      "count": 40,
      "name": "slice_Material0/NORMAL",
      "type": "VEC3"
    },
    {
      "bufferView": 66,
      "byteOffset": 24,
      "componentType": 5126,
      "count": 40,
      "name": "slice_Material0/TEXCOORD_0",
      "type": "VEC2"
    },
    {
      "bufferView": 67,
      "componentType": 5123,
      "count": 108,
      "name": "slice_Material0/INDICES",
      "type": "SCALAR"
    },
    {
      "bufferView": 68,
      "componentType": 5126,
      "count": 32,
      "max": [
        -0.009429209865629673,
        0.4855707883834839,
        0.11667259782552719
      ],
      "min": [
        -0.14556559920310974,
        0.17442919313907623,
        0.006667457986623049
      ],
      "name": "slice_Material0/POSITION",
      "type": "VEC3"
    },
    {
      "bufferView": 68,
      "byteOffset": 12,
      "componentType": 5126,
      "count": 32,
      "name": "slice_Material0/NORMAL",
      "type": "VEC3"
    },
    {
      "bufferView": 68,
      "byteOffset": 24,
      "componentType": 5126,
      "count": 32,
      "name": "slice_Material0/TEXCOORD_0",
      "type": "VEC2"
    },
    {
      "bufferView": 69,
      "componentType": 5123,
      "count": 48,
      "name": "slice_Material0/INDICES",
      "type": "SCALAR"
    },
    {
      "bufferView": 70,
      "componentType": 5126,
      "count": 71,
      "max": [
        0.16500000655651093,
        0.6899999976158142,
        0.11667259782552719
      ],
      "min": [
        -0.16500000655651093,
        0.0,
        -0.11667259782552719
      ],
      "name": "slice_Material0/POSITION",
      "type": "VEC3"
    },
    {
      "bufferView": 70,
      "byteOffset": 12,
      "componentType": 5126,
      "count": 71,
      "name": "slice_Material0/NORMAL",
      "type": "VEC3"
    },
    {
      "bufferView": 70,
      "byteOffset": 24,
      "componentType": 5126,
      "count": 71,
      "name": "slice_Material0/TEXCOORD_0",
      "type": "VEC2"
    },
    {
      "bufferView": 71,
      "componentType": 5123,
      "count": 159,
      "name": "slice_Material0/INDICES",
      "type": "SCALAR"
    },
    {
      "bufferView": 72,
      "componentType": 5126,
      "count": 50,
      "max": [
        0.09737861156463623,
        0.5885229706764221,
        0.11667259782552719
      ],
      "min": [
        -0.16500000655651093,
        0.0714770033955574,
        -0.06885706633329391
      ],
      "name": "slice_Material0/POSITION",
      "type": "VEC3"
    },
    {
      "bufferView": 72,
      "byteOffset": 12,
      "componentType": 5126,
      "count": 50,
      "name": "slice_Material0/NORMAL",
      "type": "VEC3"
    },
    {
      "bufferView": 72,
      "byteOffset": 24,
      "componentType": 5126,
      "count": 50,
      "name": "slice_Material0/TEXCOORD_0",
      "type": "VEC2"
    },
    {
      "bufferView": 73,
      "componentType": 5123,
      "count": 186,
      "name": "slice_Material0/INDICES",
      "type": "SCALAR"
    },
    {
      "bufferView": 74,
      "componentType": 5126,
      "count": 11,
      "max": [
        -0.07532870769500732,
        0.6899999976158142,
        0.11667259782552719
      ],
      "min": [
        -0.16500000655651093,
        0.6599999070167542,
        0.053265441209077835
      ],
      "name": "slice_Material0/POSITION",
      "type": "VEC3"
    },
    {
      "bufferView": 74,
      "byteOffset": 12,
      "componentType": 5126,
      "count": 11,
      "name": "slice_Material0/NORMAL",
      "type": "VEC3"
    },
    {
      "bufferView": 74,
      "byteOffset": 24,
      "componentType": 5126,
      "count": 11,
      "name": "slice_Material0/TEXCOORD_0",
      "type": "VEC2"
    },
    {
      "bufferView": 75,
      "componentType": 5123,
      "count": 15,
      "name": "slice_Material0/INDICES",
      "type": "SCALAR"
    },
    {
      "bufferView": 76,
      "componentType": 5126,
      "count": 40,
      "max": [
        0.1248520016670227,
        0.6201902031898499,
        0.11667259782552719
      ],
      "min": [
        -0.16500000655651093,
        0.03980978950858116,
        -0.08828368037939072
      ],
      "name": "slice_Material0/POSITION",
      "type": "VEC3"
    },
    {
      "bufferView": 76,
      "byteOffset": 12,
      "componentType": 5126,
      "count": 40,
      "name": "slice_Material0/NORMAL",
      "type": "VEC3"
    },
    {
      "bufferView": 76,
      "byteOffset": 24,
      "componentType": 5126,
      "count": 40,
      "name": "slice_Material0/TEXCOORD_0",
      "type": "VEC2"
    },
    {
      "bufferView": 77,
      "componentType": 5123,
      "count": 108,
      "name": "slice_Material0/INDICES",
      "type": "SCALAR"
    },
    {
      "bufferView": 78,
      "componentType": 5126,
      "count": 32,
      "max": [
        -0.009429209865629673,
        0.4855707883834839,
        0.11667259782552719
      ],
      "min": [
        -0.14556559920310974,
        0.17442919313907623,
        0.006667457986623049
      ],
      "name": "slice_Material0/POSITION",
      "type": "VEC3"
    },
    {
      "bufferView": 78,
      "byteOffset": 12,
      "componentType": 5126,
      "count": 32,
      "name": "slice_Material0/NORMAL",
      "type": "VEC3"
    },
    {
      "bufferView": 78,
      "byteOffset": 24,
      "componentType": 5126,
      "count": 32,
      "name": "slice_Material0/TEXCOORD_0",
      "type": "VEC2"
    },
    {
      "bufferView": 79,
      "componentType": 5123,
      "count": 48,
      "name": "slice_Material0/INDICES",
      "type": "SCALAR"
    },
    {
      "bufferView": 80,
      "componentType": 5126,
      "count": 44,
      "max": [
        0.16500000655651093,
        0.6899999976158142,
        0.11667259782552719
      ],
      "min": [
        -0.16500000655651093,
        0.0,
        -0.11667259782552719
      ],
      "name": "slice_Material0/POSITION",
      "type": "VEC3"
    },
    {
      "bufferView": 80,
      "byteOffset": 12,
      "componentType": 5126,
      "count": 44,
      "name": "slice_Material0/NORMAL",
      "type": "VEC3"
    },
    {
      "bufferView": 80,
      "byteOffset": 24,
      "componentType": 5126,
      "count": 44,
      "name": "slice_Material0/TEXCOORD_0",
      "type": "VEC2"
    },
    {
      "bufferView": 81,
      "componentType": 5123,
      "count": 120,
      "name": "slice_Material0/INDICES",
      "type": "SCALAR"
    },
    {
      "bufferView": 82,
      "componentType": 5126,
      "count": 50,
      "max": [
        0.09737861156463623,
        0.5885229706764221,
        0.11667259782552719
      ],
      "min": [
        -0.16500000655651093,
        0.0714770033955574,
        -0.06885706633329391
      ],
      "name": "slice_Material0/POSITION",
      "type": "VEC3"
    },
    {
      "bufferView": 82,
      "byteOffset": 12,
      "componentType": 5126,
      "count": 50,
      "name": "slice_Material0/NORMAL",
      "type": "VEC3"
    },
    {
      "bufferView": 82,
      "byteOffset": 24,
      "componentType": 5126,
      "count": 50,
      "name": "slice_Material0/TEXCOORD_0",
      "type": "VEC2"
    },
    {
      "bufferView": 83,
      "componentType": 5123,
      "count": 186,
      "name": "slice_Material0/INDICES",
      "type": "SCALAR"
    },
    {
      "bufferView": 84,
      "componentType": 5126,
      "count": 27,
      "max": [
        0.16500000655651093,
        0.6599999070167542,
        0.11667259782552719
      ],
      "min": [
        -0.16500000655651093,
        0.0,
        -0.11667259782552719
      ],
      "name": "slice_Material0/POSITION",
      "type": "VEC3"
    },
    {
      "bufferView": 84,
      "byteOffset": 12,
      "componentType": 5126,
      "count": 27,
      "name": "slice_Material0/NORMAL",
      "type": "VEC3"
    },
    {
      "bufferView": 84,
      "byteOffset": 24,
      "componentType": 5126,
      "count": 27,
      "name": "slice_Material0/TEXCOORD_0",
      "type": "VEC2"
    },
    {
      "bufferView": 85,
      "componentType": 5123,
      "count": 39,
      "name": "slice_Material0/INDICES",
      "type": "SCALAR"
    },
    {
      "bufferView": 86,
      "componentType": 5126,
      "count": 11,
      "max": [
        -0.07532870769500732,
        0.6899999976158142,
        0.11667259782552719
      ],
      "min": [
        -0.16500000655651093,
        0.6599999070167542,
        0.053265441209077835
      ],
      "name": "slice_Material0/POSITION",
      "type": "VEC3"
    },
    {
      "bufferView": 86,
      "byteOffset": 12,
      "componentType": 5126,
      "count": 11,
      "name": "slice_Material0/NORMAL",
      "type": "VEC3"
    },
    {
      "bufferView": 86,
      "byteOffset": 24,
      "componentType": 5126,
      "count": 11,
      "name": "slice_Material0/TEXCOORD_0",
      "type": "VEC2"
    },
    {
      "bufferView": 87,
      "componentType": 5123,
      "count": 15,
      "name": "slice_Material0/INDICES",
      "type": "SCALAR"
    }
  ],
  "asset": {
    "copyright": "Copyright (c) 2018-2020 Chukong Technologies Inc.",
    "generator": "FBX-glTF-conv",
    "version": "2.0"
  },
  "bufferViews": [
    {
      "buffer": 0,
      "byteLength": 1280,
      "byteStride": 32,
      "name": "slice_Material0",
      "target": 34962
    },
    {
      "buffer": 0,
      "byteLength": 216,
      "byteOffset": 1280,
      "target": 34963
    },
    {
      "buffer": 0,
      "byteLength": 1024,
      "byteOffset": 1496,
      "byteStride": 32,
      "name": "slice_Material0",
      "target": 34962
    },
    {
      "buffer": 0,
      "byteLength": 96,
      "byteOffset": 2520,
      "target": 34963
    },
    {
      "buffer": 0,
      "byteLength": 1408,
      "byteOffset": 2616,
      "byteStride": 32,
      "name": "slice_Material0",
      "target": 34962
    },
    {
      "buffer": 0,
      "byteLength": 240,
      "byteOffset": 4024,
      "target": 34963
    },
    {
      "buffer": 0,
      "byteLength": 1600,
      "byteOffset": 4264,
      "byteStride": 32,
      "name": "slice_Material0",
      "target": 34962
    },
    {
      "buffer": 0,
      "byteLength": 372,
      "byteOffset": 5864,
      "target": 34963
    },
    {
      "buffer": 0,
      "byteLength": 864,
      "byteOffset": 6236,
      "byteStride": 32,
      "name": "slice_Material0",
      "target": 34962
    },
    {
      "buffer": 0,
      "byteLength": 78,
      "byteOffset": 7100,
      "target": 34963
    },
    {
      "buffer": 0,
      "byteLength": 352,
      "byteOffset": 7178,
      "byteStride": 32,
      "name": "slice_Material0",
      "target": 34962
    },
    {
      "buffer": 0,
      "byteLength": 30,
      "byteOffset": 7530,
      "target": 34963
    },
    {
      "buffer": 0,
      "byteLength": 1280,
      "byteOffset": 7560,
      "byteStride": 32,
      "name": "slice_Material0",
      "target": 34962
    },
    {
      "buffer": 0,
      "byteLength": 216,
      "byteOffset": 8840,
      "target": 34963
    },
    {
      "buffer": 0,
      "byteLength": 1024,
      "byteOffset": 9056,
      "byteStride": 32,
      "name": "slice_Material0",
      "target": 34962
    },
    {
      "buffer": 0,
      "byteLength": 96,
      "byteOffset": 10080,
      "target": 34963
    },
    {
      "buffer": 0,
      "byteLength": 2272,
      "byteOffset": 10176,
      "byteStride": 32,
      "name": "slice_Material0",
      "target": 34962
    },
    {
      "buffer": 0,
      "byteLength": 318,
      "byteOffset": 12448,
      "target": 34963
    },
    {
      "buffer": 0,
      "byteLength": 1600,
      "byteOffset": 12766,
      "byteStride": 32,
      "name": "slice_Material0",
      "target": 34962
    },
    {
      "buffer": 0,
      "byteLength": 372,
      "byteOffset": 14366,
      "target": 34963
    },
    {
      "buffer": 0,
      "byteLength": 352,
      "byteOffset": 14738,
      "byteStride": 32,
      "name": "slice_Material0",
      "target": 34962
    },
    {
      "buffer": 0,
      "byteLength": 30,
      "byteOffset": 15090,
      "target": 34963
    },
    {
      "buffer": 0,
      "byteLength": 1280,
      "byteOffset": 15120,
      "byteStride": 32,
      "name": "slice_Material0",
      "target": 34962
    },
    {
      "buffer": 0,
      "byteLength": 216,
      "byteOffset": 16400,
      "target": 34963
    },
    {
      "buffer": 0,
      "byteLength": 1024,
      "byteOffset": 16616,
      "byteStride": 32,
      "name": "slice_Material0",
      "target": 34962
    },
    {
      "buffer": 0,
      "byteLength": 96,
      "byteOffset": 17640,
      "target": 34963
    },
    {
      "buffer": 0,
      "byteLength": 2272,
      "byteOffset": 17736,
      "byteStride": 32,
      "name": "slice_Material0",
      "target": 34962
    },
    {
      "buffer": 0,
      "byteLength": 318,
      "byteOffset": 20008,
      "target": 34963
    },
    {
      "buffer": 0,
      "byteLength": 1600,
      "byteOffset": 20326,
      "byteStride": 32,
      "name": "slice_Material0",
      "target": 34962
    },
    {
      "buffer": 0,
      "byteLength": 372,
      "byteOffset": 21926,
      "target": 34963
    },
    {
      "buffer": 0,
      "byteLength": 352,
      "byteOffset": 22298,
      "byteStride": 32,
      "name": "slice_Material0",
      "target": 34962
    },
    {
      "buffer": 0,
      "byteLength": 30,
      "byteOffset": 22650,
      "target": 34963
    },
    {
      "buffer": 0,
      "byteLength": 1280,
      "byteOffset": 22680,
      "byteStride": 32,
      "name": "slice_Material0",
      "target": 34962
    },
    {
      "buffer": 0,
      "byteLength": 216,
      "byteOffset": 23960,
      "target": 34963
    },
    {
      "buffer": 0,
      "byteLength": 1024,
      "byteOffset": 24176,
      "byteStride": 32,
      "name": "slice_Material0",
      "target": 34962
    },
    {
      "buffer": 0,
      "byteLength": 96,
      "byteOffset": 25200,
      "target": 34963
    },
    {
      "buffer": 0,
      "byteLength": 2272,
      "byteOffset": 25296,
      "byteStride": 32,
      "name": "slice_Material0",
      "target": 34962
    },
    {
      "buffer": 0,
      "byteLength": 318,
      "byteOffset": 27568,
      "target": 34963
    },
    {
      "buffer": 0,
      "byteLength": 1600,
      "byteOffset": 27886,
      "byteStride": 32,
      "name": "slice_Material0",
      "target": 34962
    },
    {
      "buffer": 0,
      "byteLength": 372,
      "byteOffset": 29486,
      "target": 34963
    },
    {
      "buffer": 0,
      "byteLength": 352,
      "byteOffset": 29858,
      "byteStride": 32,
      "name": "slice_Material0",
      "target": 34962
    },
    {
      "buffer": 0,
      "byteLength": 30,
      "byteOffset": 30210,
      "target": 34963
    },
    {
      "buffer": 0,
      "byteLength": 1280,
      "byteOffset": 30240,
      "byteStride": 32,
      "name": "slice_Material0",
      "target": 34962
    },
    {
      "buffer": 0,
      "byteLength": 216,
      "byteOffset": 31520,
      "target": 34963
    },
    {
      "buffer": 0,
      "byteLength": 1024,
      "byteOffset": 31736,
      "byteStride": 32,
      "name": "slice_Material0",
      "target": 34962
    },
    {
      "buffer": 0,
      "byteLength": 96,
      "byteOffset": 32760,
      "target": 34963
    },
    {
      "buffer": 0,
      "byteLength": 1408,
      "byteOffset": 32856,
      "byteStride": 32,
      "name": "slice_Material0",
      "target": 34962
    },
    {
      "buffer": 0,
      "byteLength": 240,
      "byteOffset": 34264,
      "target": 34963
    },
    {
      "buffer": 0,
      "byteLength": 1600,
      "byteOffset": 34504,
      "byteStride": 32,
      "name": "slice_Material0",
      "target": 34962
    },
    {
      "buffer": 0,
      "byteLength": 372,
      "byteOffset": 36104,
      "target": 34963
    },
    {
      "buffer": 0,
      "byteLength": 864,
      "byteOffset": 36476,
      "byteStride": 32,
      "name": "slice_Material0",
      "target": 34962
    },
    {
      "buffer": 0,
      "byteLength": 78,
      "byteOffset": 37340,
      "target": 34963
    },
    {
      "buffer": 0,
      "byteLength": 352,
      "byteOffset": 37418,
      "byteStride": 32,
      "name": "slice_Material0",
      "target": 34962
    },
    {
      "buffer": 0,
      "byteLength": 30,
      "byteOffset": 37770,
      "target": 34963
    },
    {
      "buffer": 0,
      "byteLength": 1280,
      "byteOffset": 37800,
      "byteStride": 32,
      "name": "slice_Material0",
      "target": 34962
    },
    {
      "buffer": 0,
      "byteLength": 216,
      "byteOffset": 39080,
      "target": 34963
    },
    {
      "buffer": 0,
      "byteLength": 1024,
      "byteOffset": 39296,
      "byteStride": 32,
      "name": "slice_Material0",
      "target": 34962
    },
    {
      "buffer": 0,
      "byteLength": 96,
      "byteOffset": 40320,
      "target": 34963
    },
    {
      "buffer": 0,
      "byteLength": 1408,
      "byteOffset": 40416,
      "byteStride": 32,
      "name": "slice_Material0",
      "target": 34962
    },
    {
      "buffer": 0,
      "byteLength": 240,
      "byteOffset": 41824,
      "target": 34963
    },
    {
      "buffer": 0,
      "byteLength": 1600,
      "byteOffset": 42064,
      "byteStride": 32,
      "name": "slice_Material0",
      "target": 34962
    },
    {
      "buffer": 0,
      "byteLength": 372,
      "byteOffset": 43664,
      "target": 34963
    },
    {
      "buffer": 0,
      "byteLength": 864,
      "byteOffset": 44036,
      "byteStride": 32,
      "name": "slice_Material0",
      "target": 34962
    },
    {
      "buffer": 0,
      "byteLength": 78,
      "byteOffset": 44900,
      "target": 34963
    },
    {
      "buffer": 0,
      "byteLength": 352,
      "byteOffset": 44978,
      "byteStride": 32,
      "name": "slice_Material0",
      "target": 34962
    },
    {
      "buffer": 0,
      "byteLength": 30,
      "byteOffset": 45330,
      "target": 34963
    },
    {
      "buffer": 0,
      "byteLength": 1280,
      "byteOffset": 45360,
      "byteStride": 32,
      "name": "slice_Material0",
      "target": 34962
    },
    {
      "buffer": 0,
      "byteLength": 216,
      "byteOffset": 46640,
      "target": 34963
    },
    {
      "buffer": 0,
      "byteLength": 1024,
      "byteOffset": 46856,
      "byteStride": 32,
      "name": "slice_Material0",
      "target": 34962
    },
    {
      "buffer": 0,
      "byteLength": 96,
      "byteOffset": 47880,
      "target": 34963
    },
    {
      "buffer": 0,
      "byteLength": 2272,
      "byteOffset": 47976,
      "byteStride": 32,
      "name": "slice_Material0",
      "target": 34962
    },
    {
      "buffer": 0,
      "byteLength": 318,
      "byteOffset": 50248,
      "target": 34963
    },
    {
      "buffer": 0,
      "byteLength": 1600,
      "byteOffset": 50566,
      "byteStride": 32,
      "name": "slice_Material0",
      "target": 34962
    },
    {
      "buffer": 0,
      "byteLength": 372,
      "byteOffset": 52166,
      "target": 34963
    },
    {
      "buffer": 0,
      "byteLength": 352,
      "byteOffset": 52538,
      "byteStride": 32,
      "name": "slice_Material0",
      "target": 34962
    },
    {
      "buffer": 0,
      "byteLength": 30,
      "byteOffset": 52890,
      "target": 34963
    },
    {
      "buffer": 0,
      "byteLength": 1280,
      "byteOffset": 52920,
      "byteStride": 32,
      "name": "slice_Material0",
      "target": 34962
    },
    {
      "buffer": 0,
      "byteLength": 216,
      "byteOffset": 54200,
      "target": 34963
    },
    {
      "buffer": 0,
      "byteLength": 1024,
      "byteOffset": 54416,
      "byteStride": 32,
      "name": "slice_Material0",
      "target": 34962
    },
    {
      "buffer": 0,
      "byteLength": 96,
      "byteOffset": 55440,
      "target": 34963
    },
    {
      "buffer": 0,
      "byteLength": 1408,
      "byteOffset": 55536,
      "byteStride": 32,
      "name": "slice_Material0",
      "target": 34962
    },
    {
      "buffer": 0,
      "byteLength": 240,
      "byteOffset": 56944,
      "target": 34963
    },
    {
      "buffer": 0,
      "byteLength": 1600,
      "byteOffset": 57184,
      "byteStride": 32,
      "name": "slice_Material0",
      "target": 34962
    },
    {
      "buffer": 0,
      "byteLength": 372,
      "byteOffset": 58784,
      "target": 34963
    },
    {
      "buffer": 0,
      "byteLength": 864,
      "byteOffset": 59156,
      "byteStride": 32,
      "name": "slice_Material0",
      "target": 34962
    },
    {
      "buffer": 0,
      "byteLength": 78,
      "byteOffset": 60020,
      "target": 34963
    },
    {
      "buffer": 0,
      "byteLength": 352,
      "byteOffset": 60098,
      "byteStride": 32,
      "name": "slice_Material0",
      "target": 34962
    },
    {
      "buffer": 0,
      "byteLength": 30,
      "byteOffset": 60450,
      "target": 34963
    }
  ],
  "buffers": [
    {
      "byteLength": 60480,
      "uri": "out.bin"
    }
  ],
  "extras": {
    "FBX-glTF-conv": {
      "animationFrameRate": 24.0,
      "fbxFileHeaderInfo": {
        "creationTimeStamp": {
          "day": 2,
          "hour": 17,
          "millisecond": 685,
          "minute": 34,
          "month": 6,
          "second": 36,
          "year": 2022
        },
        "creator": "Model created by Kenney (www.kenney.nl)",
        "sceneInfo": {
          "author": "",
          "comment": "",
          "keywords": "",
          "original": {
            "applicationName": "",
            "applicationVendor": "",
            "applicationVersion": "",
            "fileName": ""
          },
          "revision": "",
          "subject": "",
          "title": "",
          "url": "C:\\coin-pusher\\cocos\\coin-pusher-cocos\\assets\\3D食品和厨具套件\\3D食品和厨房\\FBX format\\watermelon.fbx"
        }
      }
    }
  },
  "materials": [
    {
      "extras": {
        "FBX-glTF-conv": {
          "raw": {
            "properties": {
              "ambient": {
                "value": [
                  0.2,
                  0.2,
                  0.2
                ]
              },
              "ambientFactor": {
                "value": 1.0
              },
              "bump": {
                "value": [
                  0.0,
                  0.0,
                  0.0
                ]
              },
              "bumpFactor": {
                "value": 1.0
              },
              "diffuse": {
                "value": [
                  1.0,
                  0.7982377,
                  0.3632075
                ]
              },
              "diffuseFactor": {
                "value": 1.0
              },
              "displacementColor": {
                "value": [
                  0.0,
                  0.0,
                  0.0
                ]
              },
              "displacementFactor": {
                "value": 1.0
              },
              "emissive": {
                "value": [
                  0.0,
                  0.0,
                  0.0
                ]
              },
              "emissiveFactor": {
                "value": 1.0
              },
              "normalMap": {
                "value": [
                  0.0,
                  0.0,
                  0.0
                ]
              },
              "reflection": {
                "value": [
                  0.0,
                  0.0,
                  0.0
                ]
              },
              "reflectionFactor": {
                "value": 1.0
              },
              "shadingModel": "Phong",
              "shininess": {
                "value": 20.0
              },
              "specular": {
                "value": [
                  0.2,
                  0.2,
                  0.2
                ]
              },
              "specularFactor": {
                "value": 1.0
              },
              "transparencyFactor": {
                "value": 0.0
              },
              "transparentColor": {
                "value": [
                  0.0,
                  0.0,
                  0.0
                ]
              },
              "vectorDisplacementColor": {
                "value": [
                  0.0,
                  0.0,
                  0.0
                ]
              },
              "vectorDisplacementFactor": {
                "value": 1.0
              }
            },
            "type": "phong"
          }
        }
      },
      "name": "yellow"
    },
    {
      "extras": {
        "FBX-glTF-conv": {
          "raw": {
            "properties": {
              "ambient": {
                "value": [
                  0.2,
                  0.2,
                  0.2
                ]
              },
              "ambientFactor": {
                "value": 1.0
              },
              "bump": {
                "value": [
                  0.0,
                  0.0,
                  0.0
                ]
              },
              "bumpFactor": {
                "value": 1.0
              },
              "diffuse": {
                "value": [
                  0.2588235,
                  0.1607843,
                  0.1372549
                ]
              },
              "diffuseFactor": {
                "value": 1.0
              },
              "displacementColor": {
                "value": [
                  0.0,
                  0.0,
                  0.0
                ]
              },
              "displacementFactor": {
                "value": 1.0
              },
              "emissive": {
                "value": [
                  0.0,
                  0.0,
                  0.0
                ]
              },
              "emissiveFactor": {
                "value": 1.0
              },
              "normalMap": {
                "value": [
                  0.0,
                  0.0,
                  0.0
                ]
              },
              "reflection": {
                "value": [
                  0.0,
                  0.0,
                  0.0
                ]
              },
              "reflectionFactor": {
                "value": 1.0
              },
              "shadingModel": "Phong",
              "shininess": {
                "value": 20.0
              },
              "specular": {
                "value": [
                  0.2,
                  0.2,
                  0.2
                ]
              },
              "specularFactor": {
                "value": 1.0
              },
              "transparencyFactor": {
                "value": 0.0
              },
              "transparentColor": {
                "value": [
                  0.0,
                  0.0,
                  0.0
                ]
              },
              "vectorDisplacementColor": {
                "value": [
                  0.0,
                  0.0,
                  0.0
                ]
              },
              "vectorDisplacementFactor": {
                "value": 1.0
              }
            },
            "type": "phong"
          }
        }
      },
      "name": "brownDarkest"
    },
    {
      "extras": {
        "FBX-glTF-conv": {
          "raw": {
            "properties": {
              "ambient": {
                "value": [
                  0.2,
                  0.2,
                  0.2
                ]
              },
              "ambientFactor": {
                "value": 1.0
              },
              "bump": {
                "value": [
                  0.0,
                  0.0,
                  0.0
                ]
              },
              "bumpFactor": {
                "value": 1.0
              },
              "diffuse": {
                "value": [
                  0.4170968,
                  0.8584906,
                  0.6967919
                ]
              },
              "diffuseFactor": {
                "value": 1.0
              },
              "displacementColor": {
                "value": [
                  0.0,
                  0.0,
                  0.0
                ]
              },
              "displacementFactor": {
                "value": 1.0
              },
              "emissive": {
                "value": [
                  0.0,
                  0.0,
                  0.0
                ]
              },
              "emissiveFactor": {
                "value": 1.0
              },
              "normalMap": {
                "value": [
                  0.0,
                  0.0,
                  0.0
                ]
              },
              "reflection": {
                "value": [
                  0.0,
                  0.0,
                  0.0
                ]
              },
              "reflectionFactor": {
                "value": 1.0
              },
              "shadingModel": "Phong",
              "shininess": {
                "value": 20.0
              },
              "specular": {
                "value": [
                  0.2,
                  0.2,
                  0.2
                ]
              },
              "specularFactor": {
                "value": 1.0
              },
              "transparencyFactor": {
                "value": 0.0
              },
              "transparentColor": {
                "value": [
                  0.0,
                  0.0,
                  0.0
                ]
              },
              "vectorDisplacementColor": {
                "value": [
                  0.0,
                  0.0,
                  0.0
                ]
              },
              "vectorDisplacementFactor": {
                "value": 1.0
              }
            },
            "type": "phong"
          }
        }
      },
      "name": "green"
    },
    {
      "extras": {
        "FBX-glTF-conv": {
          "raw": {
            "properties": {
              "ambient": {
                "value": [
                  0.2,
                  0.2,
                  0.2
                ]
              },
              "ambientFactor": {
                "value": 1.0
              },
              "bump": {
                "value": [
                  0.0,
                  0.0,
                  0.0
                ]
              },
              "bumpFactor": {
                "value": 1.0
              },
              "diffuse": {
                "value": [
                  0.9098039,
                  0.3333333,
                  0.3254901
                ]
              },
              "diffuseFactor": {
                "value": 1.0
              },
              "displacementColor": {
                "value": [
                  0.0,
                  0.0,
                  0.0
                ]
              },
              "displacementFactor": {
                "value": 1.0
              },
              "emissive": {
                "value": [
                  0.0,
                  0.0,
                  0.0
                ]
              },
              "emissiveFactor": {
                "value": 1.0
              },
              "normalMap": {
                "value": [
                  0.0,
                  0.0,
                  0.0
                ]
              },
              "reflection": {
                "value": [
                  0.0,
                  0.0,
                  0.0
                ]
              },
              "reflectionFactor": {
                "value": 1.0
              },
              "shadingModel": "Phong",
              "shininess": {
                "value": 20.0
              },
              "specular": {
                "value": [
                  0.2,
                  0.2,
                  0.2
                ]
              },
              "specularFactor": {
                "value": 1.0
              },
              "transparencyFactor": {
                "value": 0.0
              },
              "transparentColor": {
                "value": [
                  0.0,
                  0.0,
                  0.0
                ]
              },
              "vectorDisplacementColor": {
                "value": [
                  0.0,
                  0.0,
                  0.0
                ]
              },
              "vectorDisplacementFactor": {
                "value": 1.0
              }
            },
            "type": "phong"
          }
        }
      },
      "name": "red"
    },
    {
      "extras": {
        "FBX-glTF-conv": {
          "raw": {
            "properties": {
              "ambient": {
                "value": [
                  0.2,
                  0.2,
                  0.2
                ]
              },
              "ambientFactor": {
                "value": 1.0
              },
              "bump": {
                "value": [
                  0.0,
                  0.0,
                  0.0
                ]
              },
              "bumpFactor": {
                "value": 1.0
              },
              "diffuse": {
                "value": [
                  0.2713153,
                  0.6320754,
                  0.4994431
                ]
              },
              "diffuseFactor": {
                "value": 1.0
              },
              "displacementColor": {
                "value": [
                  0.0,
                  0.0,
                  0.0
                ]
              },
              "displacementFactor": {
                "value": 1.0
              },
              "emissive": {
                "value": [
                  0.0,
                  0.0,
                  0.0
                ]
              },
              "emissiveFactor": {
                "value": 1.0
              },
              "normalMap": {
                "value": [
                  0.0,
                  0.0,
                  0.0
                ]
              },
              "reflection": {
                "value": [
                  0.0,
                  0.0,
                  0.0
                ]
              },
              "reflectionFactor": {
                "value": 1.0
              },
              "shadingModel": "Phong",
              "shininess": {
                "value": 20.0
              },
              "specular": {
                "value": [
                  0.2,
                  0.2,
                  0.2
                ]
              },
              "specularFactor": {
                "value": 1.0
              },
              "transparencyFactor": {
                "value": 0.0
              },
              "transparentColor": {
                "value": [
                  0.0,
                  0.0,
                  0.0
                ]
              },
              "vectorDisplacementColor": {
                "value": [
                  0.0,
                  0.0,
                  0.0
                ]
              },
              "vectorDisplacementFactor": {
                "value": 1.0
              }
            },
            "type": "phong"
          }
        }
      },
      "name": "greenDark"
    },
    {
      "extras": {
        "FBX-glTF-conv": {
          "raw": {
            "properties": {
              "ambient": {
                "value": [
                  0.2,
                  0.2,
                  0.2
                ]
              },
              "ambientFactor": {
                "value": 1.0
              },
              "bump": {
                "value": [
                  0.0,
                  0.0,
                  0.0
                ]
              },
              "bumpFactor": {
                "value": 1.0
              },
              "diffuse": {
                "value": [
                  1.0,
                  0.6868886,
                  0.495283
                ]
              },
              "diffuseFactor": {
                "value": 1.0
              },
              "displacementColor": {
                "value": [
                  0.0,
                  0.0,
                  0.0
                ]
              },
              "displacementFactor": {
                "value": 1.0
              },
              "emissive": {
                "value": [
                  0.0,
                  0.0,
                  0.0
                ]
              },
              "emissiveFactor": {
                "value": 1.0
              },
              "normalMap": {
                "value": [
                  0.0,
                  0.0,
                  0.0
                ]
              },
              "reflection": {
                "value": [
                  0.0,
                  0.0,
                  0.0
                ]
              },
              "reflectionFactor": {
                "value": 1.0
              },
              "shadingModel": "Phong",
              "shininess": {
                "value": 20.0
              },
              "specular": {
                "value": [
                  0.2,
                  0.2,
                  0.2
                ]
              },
              "specularFactor": {
                "value": 1.0
              },
              "transparencyFactor": {
                "value": 0.0
              },
              "transparentColor": {
                "value": [
                  0.0,
                  0.0,
                  0.0
                ]
              },
              "vectorDisplacementColor": {
                "value": [
                  0.0,
                  0.0,
                  0.0
                ]
              },
              "vectorDisplacementFactor": {
                "value": 1.0
              }
            },
            "type": "phong"
          }
        }
      },
      "name": "brown"
    }
  ],
  "meshes": [
    {
      "name": "slice_Material0",
      "primitives": [
        {
          "attributes": {
            "NORMAL": 1,
            "POSITION": 0,
            "TEXCOORD_0": 2
          },
          "indices": 3,
          "material": 0
        },
        {
          "attributes": {
            "NORMAL": 5,
            "POSITION": 4,
            "TEXCOORD_0": 6
          },
          "indices": 7,
          "material": 1
        },
        {
          "attributes": {
            "NORMAL": 9,
            "POSITION": 8,
            "TEXCOORD_0": 10
          },
          "indices": 11,
          "material": 2
        },
        {
          "attributes": {
            "NORMAL": 13,
            "POSITION": 12,
            "TEXCOORD_0": 14
          },
          "indices": 15,
          "material": 3
        },
        {
          "attributes": {
            "NORMAL": 17,
            "POSITION": 16,
            "TEXCOORD_0": 18
          },
          "indices": 19,
          "material": 4
        },
        {
          "attributes": {
            "NORMAL": 21,
            "POSITION": 20,
            "TEXCOORD_0": 22
          },
          "indices": 23,
          "material": 5
        }
      ]
    },
    {
      "name": "slice_Material0",
      "primitives": [
        {
          "attributes": {
            "NORMAL": 25,
            "POSITION": 24,
            "TEXCOORD_0": 26
          },
          "indices": 27,
          "material": 0
        },
        {
          "attributes": {
            "NORMAL": 29,
            "POSITION": 28,
            "TEXCOORD_0": 30
          },
          "indices": 31,
          "material": 1
        },
        {
          "attributes": {
            "NORMAL": 33,
            "POSITION": 32,
            "TEXCOORD_0": 34
          },
          "indices": 35,
          "material": 2
        },
        {
          "attributes": {
            "NORMAL": 37,
            "POSITION": 36,
            "TEXCOORD_0": 38
          },
          "indices": 39,
          "material": 3
        },
        {
          "attributes": {
            "NORMAL": 41,
            "POSITION": 40,
            "TEXCOORD_0": 42
          },
          "indices": 43,
          "material": 5
        }
      ]
    },
    {
      "name": "slice_Material0",
      "primitives": [
        {
          "attributes": {
            "NORMAL": 45,
            "POSITION": 44,
            "TEXCOORD_0": 46
          },
          "indices": 47,
          "material": 0
        },
        {
          "attributes": {
            "NORMAL": 49,
            "POSITION": 48,
            "TEXCOORD_0": 50
          },
          "indices": 51,
          "material": 1
        },
        {
          "attributes": {
            "NORMAL": 53,
            "POSITION": 52,
            "TEXCOORD_0": 54
          },
          "indices": 55,
          "material": 2
        },
        {
          "attributes": {
            "NORMAL": 57,
            "POSITION": 56,
            "TEXCOORD_0": 58
          },
          "indices": 59,
          "material": 3
        },
        {
          "attributes": {
            "NORMAL": 61,
            "POSITION": 60,
            "TEXCOORD_0": 62
          },
          "indices": 63,
          "material": 5
        }
      ]
    },
    {
      "name": "slice_Material0",
      "primitives": [
        {
          "attributes": {
            "NORMAL": 65,
            "POSITION": 64,
            "TEXCOORD_0": 66
          },
          "indices": 67,
          "material": 0
        },
        {
          "attributes": {
            "NORMAL": 69,
            "POSITION": 68,
            "TEXCOORD_0": 70
          },
          "indices": 71,
          "material": 1
        },
        {
          "attributes": {
            "NORMAL": 73,
            "POSITION": 72,
            "TEXCOORD_0": 74
          },
          "indices": 75,
          "material": 2
        },
        {
          "attributes": {
            "NORMAL": 77,
            "POSITION": 76,
            "TEXCOORD_0": 78
          },
          "indices": 79,
          "material": 3
        },
        {
          "attributes": {
            "NORMAL": 81,
            "POSITION": 80,
            "TEXCOORD_0": 82
          },
          "indices": 83,
          "material": 5
        }
      ]
    },
    {
      "name": "slice_Material0",
      "primitives": [
        {
          "attributes": {
            "NORMAL": 85,
            "POSITION": 84,
            "TEXCOORD_0": 86
          },
          "indices": 87,
          "material": 0
        },
        {
          "attributes": {
            "NORMAL": 89,
            "POSITION": 88,
            "TEXCOORD_0": 90
          },
          "indices": 91,
          "material": 1
        },
        {
          "attributes": {
            "NORMAL": 93,
            "POSITION": 92,
            "TEXCOORD_0": 94
          },
          "indices": 95,
          "material": 2
        },
        {
          "attributes": {
            "NORMAL": 97,
            "POSITION": 96,
            "TEXCOORD_0": 98
          },
          "indices": 99,
          "material": 3
        },
        {
          "attributes": {
            "NORMAL": 101,
            "POSITION": 100,
            "TEXCOORD_0": 102
          },
          "indices": 103,
          "material": 4
        },
        {
          "attributes": {
            "NORMAL": 105,
            "POSITION": 104,
            "TEXCOORD_0": 106
          },
          "indices": 107,
          "material": 5
        }
      ]
    },
    {
      "name": "slice_Material0",
      "primitives": [
        {
          "attributes": {
            "NORMAL": 109,
            "POSITION": 108,
            "TEXCOORD_0": 110
          },
          "indices": 111,
          "material": 0
        },
        {
          "attributes": {
            "NORMAL": 113,
            "POSITION": 112,
            "TEXCOORD_0": 114
          },
          "indices": 115,
          "material": 1
        },
        {
          "attributes": {
            "NORMAL": 117,
            "POSITION": 116,
            "TEXCOORD_0": 118
          },
          "indices": 119,
          "material": 2
        },
        {
          "attributes": {
            "NORMAL": 121,
            "POSITION": 120,
            "TEXCOORD_0": 122
          },
          "indices": 123,
          "material": 3
        },
        {
          "attributes": {
            "NORMAL": 125,
            "POSITION": 124,
            "TEXCOORD_0": 126
          },
          "indices": 127,
          "material": 4
        },
        {
          "attributes": {
            "NORMAL": 129,
            "POSITION": 128,
            "TEXCOORD_0": 130
          },
          "indices": 131,
          "material": 5
        }
      ]
    },
    {
      "name": "slice_Material0",
      "primitives": [
        {
          "attributes": {
            "NORMAL": 133,
            "POSITION": 132,
            "TEXCOORD_0": 134
          },
          "indices": 135,
          "material": 0
        },
        {
          "attributes": {
            "NORMAL": 137,
            "POSITION": 136,
            "TEXCOORD_0": 138
          },
          "indices": 139,
          "material": 1
        },
        {
          "attributes": {
            "NORMAL": 141,
            "POSITION": 140,
            "TEXCOORD_0": 142
          },
          "indices": 143,
          "material": 2
        },
        {
          "attributes": {
            "NORMAL": 145,
            "POSITION": 144,
            "TEXCOORD_0": 146
          },
          "indices": 147,
          "material": 3
        },
        {
          "attributes": {
            "NORMAL": 149,
            "POSITION": 148,
            "TEXCOORD_0": 150
          },
          "indices": 151,
          "material": 5
        }
      ]
    },
    {
      "name": "slice_Material0",
      "primitives": [
        {
          "attributes": {
            "NORMAL": 153,
            "POSITION": 152,
            "TEXCOORD_0": 154
          },
          "indices": 155,
          "material": 0
        },
        {
          "attributes": {
            "NORMAL": 157,
            "POSITION": 156,
            "TEXCOORD_0": 158
          },
          "indices": 159,
          "material": 1
        },
        {
          "attributes": {
            "NORMAL": 161,
            "POSITION": 160,
            "TEXCOORD_0": 162
          },
          "indices": 163,
          "material": 2
        },
        {
          "attributes": {
            "NORMAL": 165,
            "POSITION": 164,
            "TEXCOORD_0": 166
          },
          "indices": 167,
          "material": 3
        },
        {
          "attributes": {
            "NORMAL": 169,
            "POSITION": 168,
            "TEXCOORD_0": 170
          },
          "indices": 171,
          "material": 4
        },
        {
          "attributes": {
            "NORMAL": 173,
            "POSITION": 172,
            "TEXCOORD_0": 174
          },
          "indices": 175,
          "material": 5
        }
      ]
    }
  ],
  "nodes": [
    {
      "children": [
        1,
        2,
        3,
        4,
        5,
        6,
        7,
        8
      ],
      "name": "watermelon"
    },
    {
      "mesh": 0,
      "name": "slice",
      "scale": [
        0.6899999976158142,
        0.6899999976158142,
        0.6899999976158142
      ],
      "translation": [
        0.11384999752044678,
        8.014827287931921e-32,
        -0.08050411194562912
      ]
    },
    {
      "mesh": 1,
      "name": "slice",
      "rotation": [
        3.313870491472396e-17,
        0.9238795042037964,
        3.313870491472396e-17,
        0.3826834261417389
      ],
      "scale": [
        0.6899999976158142,
        0.6899999976158142,
        0.6899999976158142
      ],
      "translation": [
        -0.1374291032552719,
        -8.014827287931921e-32,
        -0.023579109460115433
      ]
    },
    {
      "mesh": 2,
      "name": "slice",
      "rotation": [
        8.000390961194887e-17,
        0.9238795042037964,
        8.000390961194887e-17,
        -0.3826834261417389
      ],
      "scale": [
        0.6899999976158142,
        0.6899999976158142,
        0.6899999976158142
      ],
      "translation": [
        -0.023579109460115433,
        1.6029649873886438e-31,
        0.1374291032552719
      ]
    },
    {
      "mesh": 3,
      "name": "slice",
      "rotation": [
        0.0,
        0.3826834261417389,
        0.0,
        0.9238795042037964
      ],
      "scale": [
        0.6899999976158142,
        0.6899999976158142,
        0.6899999976158142
      ],
      "translation": [
        0.023579109460115433,
        8.014827287931921e-32,
        -0.1374291032552719
      ]
    },
    {
      "mesh": 4,
      "name": "slice",
      "rotation": [
        6.123234262925839e-17,
        1.0,
        6.123234262925839e-17,
        -6.123234262925839e-17
      ],
      "scale": [
        0.6899999976158142,
        0.6899999976158142,
        0.6899999976158142
      ],
      "translation": [
        -0.11384999752044678,
        8.014827287931921e-32,
        0.08050411194562912
      ]
    },
    {
      "mesh": 5,
      "name": "slice",
      "rotation": [
        -0.0,
        0.7071067690849304,
        0.0,
        0.7071067690849304
      ],
      "scale": [
        0.6899999976158142,
        0.6899999976158142,
        0.6899999976158142
      ],
      "translation": [
        -0.08050411194562912,
        8.014827287931921e-32,
        -0.11384999752044678
      ]
    },
    {
      "mesh": 6,
      "name": "slice",
      "rotation": [
        0.0,
        -0.3826834261417389,
        0.0,
        0.9238795042037964
      ],
      "scale": [
        0.6899999976158142,
        0.6899999976158142,
        0.6899999976158142
      ],
      "translation": [
        0.1374291032552719,
        8.014827287931921e-32,
        0.023579109460115433
      ]
    },
    {
      "mesh": 7,
      "name": "slice",
      "rotation": [
        -0.0,
        -0.7071067690849304,
        0.0,
        0.7071067690849304
      ],
      "scale": [
        0.6899999976158142,
        0.6899999976158142,
        0.6899999976158142
      ],
      "translation": [
        0.08050411194562912,
        8.014827287931921e-32,
        0.11384999752044678
      ]
    }
  ],
  "scenes": [
    {
      "nodes": [
        0
      ]
    }
  ]
}