{
  "accessors": [
    {
      "bufferView": 0,
      "componentType": 5126,
      "count": 55,
      "max": [
        0.3400000035762787,
        0.2199999988079071,
        0.17000000178813934
      ],
      "min": [
        0.0,
        0.0,
        -3.609557054039112e-16
      ],
      "name": "wedge_Material0/POSITION",
      "type": "VEC3"
    },
    {
      "bufferView": 0,
      "byteOffset": 12,
      "componentType": 5126,
      "count": 55,
      "name": "wedge_Material0/NORMAL",
      "type": "VEC3"
    },
    {
      "bufferView": 0,
      "byteOffset": 24,
      "componentType": 5126,
      "count": 55,
      "name": "wedge_Material0/TEXCOORD_0",
      "type": "VEC2"
    },
    {
      "bufferView": 1,
      "componentType": 5123,
      "count": 105,
      "name": "wedge_Material0/INDICES",
      "type": "SCALAR"
    },
    {
      "bufferView": 2,
      "componentType": 5126,
      "count": 16,
      "max": [
        0.31055670976638794,
        0.19055670499801636,
        0.1552782952785492
      ],
      "min": [
        0.017452169209718704,
        0.029443269595503807,
        -3.609557054039112e-16
      ],
      "name": "wedge_Material0/POSITION",
      "type": "VEC3"
    },
    {
      "bufferView": 2,
      "byteOffset": 12,
      "componentType": 5126,
      "count": 16,
      "name": "wedge_Material0/NORMAL",
      "type": "VEC3"
    },
    {
      "bufferView": 2,
      "byteOffset": 24,
      "componentType": 5126,
      "count": 16,
      "name": "wedge_Material0/TEXCOORD_0",
      "type": "VEC2"
    },
    {
      "bufferView": 3,
      "componentType": 5123,
      "count": 30,
      "name": "wedge_Material0/INDICES",
      "type": "SCALAR"
    },
    {
      "bufferView": 4,
      "componentType": 5126,
      "count": 7,
      "max": [
        0.017452169209718704,
        0.19055670499801636,
        0.010076019912958145
      ],
      "min": [
        0.0,
        0.029443269595503807,
        -3.609557054039112e-16
      ],
      "name": "wedge_Material0/POSITION",
      "type": "VEC3"
    },
    {
      "bufferView": 4,
      "byteOffset": 12,
      "componentType": 5126,
      "count": 7,
      "name": "wedge_Material0/NORMAL",
      "type": "VEC3"
    },
    {
      "bufferView": 4,
      "byteOffset": 24,
      "componentType": 5126,
      "count": 7,
      "name": "wedge_Material0/TEXCOORD_0",
      "type": "VEC2"
    },
    {
      "bufferView": 5,
      "componentType": 5123,
      "count": 9,
      "name": "wedge_Material0/INDICES",
      "type": "SCALAR"
    },
    {
      "bufferView": 6,
      "componentType": 5126,
      "count": 55,
      "max": [
        0.3400000035762787,
        0.2199999988079071,
        0.17000000178813934
      ],
      "min": [
        0.0,
        0.0,
        -7.219114108078224e-16
      ],
      "name": "wedge_Material0/POSITION",
      "type": "VEC3"
    },
    {
      "bufferView": 6,
      "byteOffset": 12,
      "componentType": 5126,
      "count": 55,
      "name": "wedge_Material0/NORMAL",
      "type": "VEC3"
    },
    {
      "bufferView": 6,
      "byteOffset": 24,
      "componentType": 5126,
      "count": 55,
      "name": "wedge_Material0/TEXCOORD_0",
      "type": "VEC2"
    },
    {
      "bufferView": 7,
      "componentType": 5123,
      "count": 105,
      "name": "wedge_Material0/INDICES",
      "type": "SCALAR"
    },
    {
      "bufferView": 8,
      "componentType": 5126,
      "count": 16,
      "max": [
        0.31055670976638794,
        0.19055670499801636,
        0.1552782952785492
      ],
      "min": [
        0.017452169209718704,
        0.029443269595503807,
        -7.219114108078224e-16
      ],
      "name": "wedge_Material0/POSITION",
      "type": "VEC3"
    },
    {
      "bufferView": 8,
      "byteOffset": 12,
      "componentType": 5126,
      "count": 16,
      "name": "wedge_Material0/NORMAL",
      "type": "VEC3"
    },
    {
      "bufferView": 8,
      "byteOffset": 24,
      "componentType": 5126,
      "count": 16,
      "name": "wedge_Material0/TEXCOORD_0",
      "type": "VEC2"
    },
    {
      "bufferView": 9,
      "componentType": 5123,
      "count": 30,
      "name": "wedge_Material0/INDICES",
      "type": "SCALAR"
    },
    {
      "bufferView": 10,
      "componentType": 5126,
      "count": 7,
      "max": [
        0.017452169209718704,
        0.19055670499801636,
        0.010076019912958145
      ],
      "min": [
        0.0,
        0.029443269595503807,
        -3.609557054039112e-16
      ],
      "name": "wedge_Material0/POSITION",
      "type": "VEC3"
    },
    {
      "bufferView": 10,
      "byteOffset": 12,
      "componentType": 5126,
      "count": 7,
      "name": "wedge_Material0/NORMAL",
      "type": "VEC3"
    },
    {
      "bufferView": 10,
      "byteOffset": 24,
      "componentType": 5126,
      "count": 7,
      "name": "wedge_Material0/TEXCOORD_0",
      "type": "VEC2"
    },
    {
      "bufferView": 11,
      "componentType": 5123,
      "count": 9,
      "name": "wedge_Material0/INDICES",
      "type": "SCALAR"
    },
    {
      "bufferView": 12,
      "componentType": 5126,
      "count": 55,
      "max": [
        0.3400000035762787,
        0.2199999988079071,
        0.17000000178813934
      ],
      "min": [
        0.0,
        0.0,
        -3.609557054039112e-16
      ],
      "name": "wedge_Material0/POSITION",
      "type": "VEC3"
    },
    {
      "bufferView": 12,
      "byteOffset": 12,
      "componentType": 5126,
      "count": 55,
      "name": "wedge_Material0/NORMAL",
      "type": "VEC3"
    },
    {
      "bufferView": 12,
      "byteOffset": 24,
      "componentType": 5126,
      "count": 55,
      "name": "wedge_Material0/TEXCOORD_0",
      "type": "VEC2"
    },
    {
      "bufferView": 13,
      "componentType": 5123,
      "count": 105,
      "name": "wedge_Material0/INDICES",
      "type": "SCALAR"
    },
    {
      "bufferView": 14,
      "componentType": 5126,
      "count": 16,
      "max": [
        0.31055670976638794,
        0.19055670499801636,
        0.1552782952785492
      ],
      "min": [
        0.017452169209718704,
        0.029443269595503807,
        -3.609557054039112e-16
      ],
      "name": "wedge_Material0/POSITION",
      "type": "VEC3"
    },
    {
      "bufferView": 14,
      "byteOffset": 12,
      "componentType": 5126,
      "count": 16,
      "name": "wedge_Material0/NORMAL",
      "type": "VEC3"
    },
    {
      "bufferView": 14,
      "byteOffset": 24,
      "componentType": 5126,
      "count": 16,
      "name": "wedge_Material0/TEXCOORD_0",
      "type": "VEC2"
    },
    {
      "bufferView": 15,
      "componentType": 5123,
      "count": 30,
      "name": "wedge_Material0/INDICES",
      "type": "SCALAR"
    },
    {
      "bufferView": 16,
      "componentType": 5126,
      "count": 7,
      "max": [
        0.017452169209718704,
        0.19055670499801636,
        0.010076019912958145
      ],
      "min": [
        0.0,
        0.029443269595503807,
        -3.609557054039112e-16
      ],
      "name": "wedge_Material0/POSITION",
      "type": "VEC3"
    },
    {
      "bufferView": 16,
      "byteOffset": 12,
      "componentType": 5126,
      "count": 7,
      "name": "wedge_Material0/NORMAL",
      "type": "VEC3"
    },
    {
      "bufferView": 16,
      "byteOffset": 24,
      "componentType": 5126,
      "count": 7,
      "name": "wedge_Material0/TEXCOORD_0",
      "type": "VEC2"
    },
    {
      "bufferView": 17,
      "componentType": 5123,
      "count": 9,
      "name": "wedge_Material0/INDICES",
      "type": "SCALAR"
    },
    {
      "bufferView": 18,
      "componentType": 5126,
      "count": 55,
      "max": [
        0.3400000035762787,
        0.2199999988079071,
        0.17000000178813934
      ],
      "min": [
        0.0,
        0.0,
        -3.609557054039112e-16
      ],
      "name": "wedge_Material0/POSITION",
      "type": "VEC3"
    },
    {
      "bufferView": 18,
      "byteOffset": 12,
      "componentType": 5126,
      "count": 55,
      "name": "wedge_Material0/NORMAL",
      "type": "VEC3"
    },
    {
      "bufferView": 18,
      "byteOffset": 24,
      "componentType": 5126,
      "count": 55,
      "name": "wedge_Material0/TEXCOORD_0",
      "type": "VEC2"
    },
    {
      "bufferView": 19,
      "componentType": 5123,
      "count": 105,
      "name": "wedge_Material0/INDICES",
      "type": "SCALAR"
    },
    {
      "bufferView": 20,
      "componentType": 5126,
      "count": 16,
      "max": [
        0.31055670976638794,
        0.19055670499801636,
        0.1552782952785492
      ],
      "min": [
        0.017452169209718704,
        0.029443269595503807,
        -3.609557054039112e-16
      ],
      "name": "wedge_Material0/POSITION",
      "type": "VEC3"
    },
    {
      "bufferView": 20,
      "byteOffset": 12,
      "componentType": 5126,
      "count": 16,
      "name": "wedge_Material0/NORMAL",
      "type": "VEC3"
    },
    {
      "bufferView": 20,
      "byteOffset": 24,
      "componentType": 5126,
      "count": 16,
      "name": "wedge_Material0/TEXCOORD_0",
      "type": "VEC2"
    },
    {
      "bufferView": 21,
      "componentType": 5123,
      "count": 30,
      "name": "wedge_Material0/INDICES",
      "type": "SCALAR"
    },
    {
      "bufferView": 22,
      "componentType": 5126,
      "count": 7,
      "max": [
        0.017452169209718704,
        0.19055670499801636,
        0.010076019912958145
      ],
      "min": [
        0.0,
        0.029443269595503807,
        0.0
      ],
      "name": "wedge_Material0/POSITION",
      "type": "VEC3"
    },
    {
      "bufferView": 22,
      "byteOffset": 12,
      "componentType": 5126,
      "count": 7,
      "name": "wedge_Material0/NORMAL",
      "type": "VEC3"
    },
    {
      "bufferView": 22,
      "byteOffset": 24,
      "componentType": 5126,
      "count": 7,
      "name": "wedge_Material0/TEXCOORD_0",
      "type": "VEC2"
    },
    {
      "bufferView": 23,
      "componentType": 5123,
      "count": 9,
      "name": "wedge_Material0/INDICES",
      "type": "SCALAR"
    },
    {
      "bufferView": 24,
      "componentType": 5126,
      "count": 55,
      "max": [
        0.3400000035762787,
        0.2199999988079071,
        0.17000000178813934
      ],
      "min": [
        0.0,
        0.0,
        -3.609557054039112e-16
      ],
      "name": "wedge_Material0/POSITION",
      "type": "VEC3"
    },
    {
      "bufferView": 24,
      "byteOffset": 12,
      "componentType": 5126,
      "count": 55,
      "name": "wedge_Material0/NORMAL",
      "type": "VEC3"
    },
    {
      "bufferView": 24,
      "byteOffset": 24,
      "componentType": 5126,
      "count": 55,
      "name": "wedge_Material0/TEXCOORD_0",
      "type": "VEC2"
    },
    {
      "bufferView": 25,
      "componentType": 5123,
      "count": 105,
      "name": "wedge_Material0/INDICES",
      "type": "SCALAR"
    },
    {
      "bufferView": 26,
      "componentType": 5126,
      "count": 16,
      "max": [
        0.31055670976638794,
        0.19055670499801636,
        0.1552782952785492
      ],
      "min": [
        0.017452169209718704,
        0.029443269595503807,
        -3.609557054039112e-16
      ],
      "name": "wedge_Material0/POSITION",
      "type": "VEC3"
    },
    {
      "bufferView": 26,
      "byteOffset": 12,
      "componentType": 5126,
      "count": 16,
      "name": "wedge_Material0/NORMAL",
      "type": "VEC3"
    },
    {
      "bufferView": 26,
      "byteOffset": 24,
      "componentType": 5126,
      "count": 16,
      "name": "wedge_Material0/TEXCOORD_0",
      "type": "VEC2"
    },
    {
      "bufferView": 27,
      "componentType": 5123,
      "count": 30,
      "name": "wedge_Material0/INDICES",
      "type": "SCALAR"
    },
    {
      "bufferView": 28,
      "componentType": 5126,
      "count": 7,
      "max": [
        0.017452169209718704,
        0.19055670499801636,
        0.010076019912958145
      ],
      "min": [
        0.0,
        0.029443269595503807,
        -3.609557054039112e-16
      ],
      "name": "wedge_Material0/POSITION",
      "type": "VEC3"
    },
    {
      "bufferView": 28,
      "byteOffset": 12,
      "componentType": 5126,
      "count": 7,
      "name": "wedge_Material0/NORMAL",
      "type": "VEC3"
    },
    {
      "bufferView": 28,
      "byteOffset": 24,
      "componentType": 5126,
      "count": 7,
      "name": "wedge_Material0/TEXCOORD_0",
      "type": "VEC2"
    },
    {
      "bufferView": 29,
      "componentType": 5123,
      "count": 9,
      "name": "wedge_Material0/INDICES",
      "type": "SCALAR"
    },
    {
      "bufferView": 30,
      "componentType": 5126,
      "count": 55,
      "max": [
        0.3400000035762787,
        0.2199999988079071,
        0.17000000178813934
      ],
      "min": [
        0.0,
        0.0,
        -7.219114108078224e-16
      ],
      "name": "wedge_Material0/POSITION",
      "type": "VEC3"
    },
    {
      "bufferView": 30,
      "byteOffset": 12,
      "componentType": 5126,
      "count": 55,
      "name": "wedge_Material0/NORMAL",
      "type": "VEC3"
    },
    {
      "bufferView": 30,
      "byteOffset": 24,
      "componentType": 5126,
      "count": 55,
      "name": "wedge_Material0/TEXCOORD_0",
      "type": "VEC2"
    },
    {
      "bufferView": 31,
      "componentType": 5123,
      "count": 105,
      "name": "wedge_Material0/INDICES",
      "type": "SCALAR"
    },
    {
      "bufferView": 32,
      "componentType": 5126,
      "count": 16,
      "max": [
        0.31055670976638794,
        0.19055670499801636,
        0.1552782952785492
      ],
      "min": [
        0.017452169209718704,
        0.029443269595503807,
        -3.609557054039112e-16
      ],
      "name": "wedge_Material0/POSITION",
      "type": "VEC3"
    },
    {
      "bufferView": 32,
      "byteOffset": 12,
      "componentType": 5126,
      "count": 16,
      "name": "wedge_Material0/NORMAL",
      "type": "VEC3"
    },
    {
      "bufferView": 32,
      "byteOffset": 24,
      "componentType": 5126,
      "count": 16,
      "name": "wedge_Material0/TEXCOORD_0",
      "type": "VEC2"
    },
    {
      "bufferView": 33,
      "componentType": 5123,
      "count": 30,
      "name": "wedge_Material0/INDICES",
      "type": "SCALAR"
    },
    {
      "bufferView": 34,
      "componentType": 5126,
      "count": 7,
      "max": [
        0.017452169209718704,
        0.19055670499801636,
        0.010076019912958145
      ],
      "min": [
        0.0,
        0.029443269595503807,
        -3.609557054039112e-16
      ],
      "name": "wedge_Material0/POSITION",
      "type": "VEC3"
    },
    {
      "bufferView": 34,
      "byteOffset": 12,
      "componentType": 5126,
      "count": 7,
      "name": "wedge_Material0/NORMAL",
      "type": "VEC3"
    },
    {
      "bufferView": 34,
      "byteOffset": 24,
      "componentType": 5126,
      "count": 7,
      "name": "wedge_Material0/TEXCOORD_0",
      "type": "VEC2"
    },
    {
      "bufferView": 35,
      "componentType": 5123,
      "count": 9,
      "name": "wedge_Material0/INDICES",
      "type": "SCALAR"
    },
    {
      "bufferView": 36,
      "componentType": 5126,
      "count": 55,
      "max": [
        0.3400000035762787,
        0.2199999988079071,
        0.17000000178813934
      ],
      "min": [
        0.0,
        0.0,
        -3.609557054039112e-16
      ],
      "name": "wedge_Material0/POSITION",
      "type": "VEC3"
    },
    {
      "bufferView": 36,
      "byteOffset": 12,
      "componentType": 5126,
      "count": 55,
      "name": "wedge_Material0/NORMAL",
      "type": "VEC3"
    },
    {
      "bufferView": 36,
      "byteOffset": 24,
      "componentType": 5126,
      "count": 55,
      "name": "wedge_Material0/TEXCOORD_0",
      "type": "VEC2"
    },
    {
      "bufferView": 37,
      "componentType": 5123,
      "count": 105,
      "name": "wedge_Material0/INDICES",
      "type": "SCALAR"
    },
    {
      "bufferView": 38,
      "componentType": 5126,
      "count": 16,
      "max": [
        0.31055670976638794,
        0.19055670499801636,
        0.1552782952785492
      ],
      "min": [
        0.017452169209718704,
        0.029443269595503807,
        -3.609557054039112e-16
      ],
      "name": "wedge_Material0/POSITION",
      "type": "VEC3"
    },
    {
      "bufferView": 38,
      "byteOffset": 12,
      "componentType": 5126,
      "count": 16,
      "name": "wedge_Material0/NORMAL",
      "type": "VEC3"
    },
    {
      "bufferView": 38,
      "byteOffset": 24,
      "componentType": 5126,
      "count": 16,
      "name": "wedge_Material0/TEXCOORD_0",
      "type": "VEC2"
    },
    {
      "bufferView": 39,
      "componentType": 5123,
      "count": 30,
      "name": "wedge_Material0/INDICES",
      "type": "SCALAR"
    },
    {
      "bufferView": 40,
      "componentType": 5126,
      "count": 7,
      "max": [
        0.017452169209718704,
        0.19055670499801636,
        0.010076019912958145
      ],
      "min": [
        0.0,
        0.029443269595503807,
        -3.609557054039112e-16
      ],
      "name": "wedge_Material0/POSITION",
      "type": "VEC3"
    },
    {
      "bufferView": 40,
      "byteOffset": 12,
      "componentType": 5126,
      "count": 7,
      "name": "wedge_Material0/NORMAL",
      "type": "VEC3"
    },
    {
      "bufferView": 40,
      "byteOffset": 24,
      "componentType": 5126,
      "count": 7,
      "name": "wedge_Material0/TEXCOORD_0",
      "type": "VEC2"
    },
    {
      "bufferView": 41,
      "componentType": 5123,
      "count": 9,
      "name": "wedge_Material0/INDICES",
      "type": "SCALAR"
    },
    {
      "bufferView": 42,
      "componentType": 5126,
      "count": 55,
      "max": [
        0.3400000035762787,
        0.2199999988079071,
        0.17000000178813934
      ],
      "min": [
        0.0,
        0.0,
        -3.609557054039112e-16
      ],
      "name": "wedge_Material0/POSITION",
      "type": "VEC3"
    },
    {
      "bufferView": 42,
      "byteOffset": 12,
      "componentType": 5126,
      "count": 55,
      "name": "wedge_Material0/NORMAL",
      "type": "VEC3"
    },
    {
      "bufferView": 42,
      "byteOffset": 24,
      "componentType": 5126,
      "count": 55,
      "name": "wedge_Material0/TEXCOORD_0",
      "type": "VEC2"
    },
    {
      "bufferView": 43,
      "componentType": 5123,
      "count": 105,
      "name": "wedge_Material0/INDICES",
      "type": "SCALAR"
    },
    {
      "bufferView": 44,
      "componentType": 5126,
      "count": 16,
      "max": [
        0.31055670976638794,
        0.19055670499801636,
        0.1552782952785492
      ],
      "min": [
        0.017452169209718704,
        0.029443269595503807,
        -3.609557054039112e-16
      ],
      "name": "wedge_Material0/POSITION",
      "type": "VEC3"
    },
    {
      "bufferView": 44,
      "byteOffset": 12,
      "componentType": 5126,
      "count": 16,
      "name": "wedge_Material0/NORMAL",
      "type": "VEC3"
    },
    {
      "bufferView": 44,
      "byteOffset": 24,
      "componentType": 5126,
      "count": 16,
      "name": "wedge_Material0/TEXCOORD_0",
      "type": "VEC2"
    },
    {
      "bufferView": 45,
      "componentType": 5123,
      "count": 30,
      "name": "wedge_Material0/INDICES",
      "type": "SCALAR"
    },
    {
      "bufferView": 46,
      "componentType": 5126,
      "count": 7,
      "max": [
        0.017452169209718704,
        0.19055670499801636,
        0.010076019912958145
      ],
      "min": [
        0.0,
        0.029443269595503807,
        -3.609557054039112e-16
      ],
      "name": "wedge_Material0/POSITION",
      "type": "VEC3"
    },
    {
      "bufferView": 46,
      "byteOffset": 12,
      "componentType": 5126,
      "count": 7,
      "name": "wedge_Material0/NORMAL",
      "type": "VEC3"
    },
    {
      "bufferView": 46,
      "byteOffset": 24,
      "componentType": 5126,
      "count": 7,
      "name": "wedge_Material0/TEXCOORD_0",
      "type": "VEC2"
    },
    {
      "bufferView": 47,
      "componentType": 5123,
      "count": 9,
      "name": "wedge_Material0/INDICES",
      "type": "SCALAR"
    },
    {
      "bufferView": 48,
      "componentType": 5126,
      "count": 55,
      "max": [
        0.3400000035762787,
        0.2199999988079071,
        0.17000000178813934
      ],
      "min": [
        0.0,
        0.0,
        -3.609557054039112e-16
      ],
      "name": "wedge_Material0/POSITION",
      "type": "VEC3"
    },
    {
      "bufferView": 48,
      "byteOffset": 12,
      "componentType": 5126,
      "count": 55,
      "name": "wedge_Material0/NORMAL",
      "type": "VEC3"
    },
    {
      "bufferView": 48,
      "byteOffset": 24,
      "componentType": 5126,
      "count": 55,
      "name": "wedge_Material0/TEXCOORD_0",
      "type": "VEC2"
    },
    {
      "bufferView": 49,
      "componentType": 5123,
      "count": 105,
      "name": "wedge_Material0/INDICES",
      "type": "SCALAR"
    },
    {
      "bufferView": 50,
      "componentType": 5126,
      "count": 16,
      "max": [
        0.31055670976638794,
        0.19055670499801636,
        0.1552782952785492
      ],
      "min": [
        0.017452169209718704,
        0.029443269595503807,
        -3.609557054039112e-16
      ],
      "name": "wedge_Material0/POSITION",
      "type": "VEC3"
    },
    {
      "bufferView": 50,
      "byteOffset": 12,
      "componentType": 5126,
      "count": 16,
      "name": "wedge_Material0/NORMAL",
      "type": "VEC3"
    },
    {
      "bufferView": 50,
      "byteOffset": 24,
      "componentType": 5126,
      "count": 16,
      "name": "wedge_Material0/TEXCOORD_0",
      "type": "VEC2"
    },
    {
      "bufferView": 51,
      "componentType": 5123,
      "count": 30,
      "name": "wedge_Material0/INDICES",
      "type": "SCALAR"
    },
    {
      "bufferView": 52,
      "componentType": 5126,
      "count": 7,
      "max": [
        0.017452169209718704,
        0.19055670499801636,
        0.010076019912958145
      ],
      "min": [
        0.0,
        0.029443269595503807,
        -3.609557054039112e-16
      ],
      "name": "wedge_Material0/POSITION",
      "type": "VEC3"
    },
    {
      "bufferView": 52,
      "byteOffset": 12,
      "componentType": 5126,
      "count": 7,
      "name": "wedge_Material0/NORMAL",
      "type": "VEC3"
    },
    {
      "bufferView": 52,
      "byteOffset": 24,
      "componentType": 5126,
      "count": 7,
      "name": "wedge_Material0/TEXCOORD_0",
      "type": "VEC2"
    },
    {
      "bufferView": 53,
      "componentType": 5123,
      "count": 9,
      "name": "wedge_Material0/INDICES",
      "type": "SCALAR"
    },
    {
      "bufferView": 54,
      "componentType": 5126,
      "count": 55,
      "max": [
        0.3400000035762787,
        0.2199999988079071,
        0.17000000178813934
      ],
      "min": [
        0.0,
        0.0,
        -3.609557054039112e-16
      ],
      "name": "wedge_Material0/POSITION",
      "type": "VEC3"
    },
    {
      "bufferView": 54,
      "byteOffset": 12,
      "componentType": 5126,
      "count": 55,
      "name": "wedge_Material0/NORMAL",
      "type": "VEC3"
    },
    {
      "bufferView": 54,
      "byteOffset": 24,
      "componentType": 5126,
      "count": 55,
      "name": "wedge_Material0/TEXCOORD_0",
      "type": "VEC2"
    },
    {
      "bufferView": 55,
      "componentType": 5123,
      "count": 105,
      "name": "wedge_Material0/INDICES",
      "type": "SCALAR"
    },
    {
      "bufferView": 56,
      "componentType": 5126,
      "count": 16,
      "max": [
        0.31055670976638794,
        0.19055670499801636,
        0.1552782952785492
      ],
      "min": [
        0.017452169209718704,
        0.029443269595503807,
        0.0
      ],
      "name": "wedge_Material0/POSITION",
      "type": "VEC3"
    },
    {
      "bufferView": 56,
      "byteOffset": 12,
      "componentType": 5126,
      "count": 16,
      "name": "wedge_Material0/NORMAL",
      "type": "VEC3"
    },
    {
      "bufferView": 56,
      "byteOffset": 24,
      "componentType": 5126,
      "count": 16,
      "name": "wedge_Material0/TEXCOORD_0",
      "type": "VEC2"
    },
    {
      "bufferView": 57,
      "componentType": 5123,
      "count": 30,
      "name": "wedge_Material0/INDICES",
      "type": "SCALAR"
    },
    {
      "bufferView": 58,
      "componentType": 5126,
      "count": 7,
      "max": [
        0.017452169209718704,
        0.19055670499801636,
        0.010076019912958145
      ],
      "min": [
        0.0,
        0.029443269595503807,
        0.0
      ],
      "name": "wedge_Material0/POSITION",
      "type": "VEC3"
    },
    {
      "bufferView": 58,
      "byteOffset": 12,
      "componentType": 5126,
      "count": 7,
      "name": "wedge_Material0/NORMAL",
      "type": "VEC3"
    },
    {
      "bufferView": 58,
      "byteOffset": 24,
      "componentType": 5126,
      "count": 7,
      "name": "wedge_Material0/TEXCOORD_0",
      "type": "VEC2"
    },
    {
      "bufferView": 59,
      "componentType": 5123,
      "count": 9,
      "name": "wedge_Material0/INDICES",
      "type": "SCALAR"
    },
    {
      "bufferView": 60,
      "componentType": 5126,
      "count": 55,
      "max": [
        0.3400000035762787,
        0.2199999988079071,
        0.17000000178813934
      ],
      "min": [
        0.0,
        0.0,
        -3.609557054039112e-16
      ],
      "name": "wedge_Material0/POSITION",
      "type": "VEC3"
    },
    {
      "bufferView": 60,
      "byteOffset": 12,
      "componentType": 5126,
      "count": 55,
      "name": "wedge_Material0/NORMAL",
      "type": "VEC3"
    },
    {
      "bufferView": 60,
      "byteOffset": 24,
      "componentType": 5126,
      "count": 55,
      "name": "wedge_Material0/TEXCOORD_0",
      "type": "VEC2"
    },
    {
      "bufferView": 61,
      "componentType": 5123,
      "count": 105,
      "name": "wedge_Material0/INDICES",
      "type": "SCALAR"
    },
    {
      "bufferView": 62,
      "componentType": 5126,
      "count": 16,
      "max": [
        0.31055670976638794,
        0.19055670499801636,
        0.1552782952785492
      ],
      "min": [
        0.017452169209718704,
        0.029443269595503807,
        -3.609557054039112e-16
      ],
      "name": "wedge_Material0/POSITION",
      "type": "VEC3"
    },
    {
      "bufferView": 62,
      "byteOffset": 12,
      "componentType": 5126,
      "count": 16,
      "name": "wedge_Material0/NORMAL",
      "type": "VEC3"
    },
    {
      "bufferView": 62,
      "byteOffset": 24,
      "componentType": 5126,
      "count": 16,
      "name": "wedge_Material0/TEXCOORD_0",
      "type": "VEC2"
    },
    {
      "bufferView": 63,
      "componentType": 5123,
      "count": 30,
      "name": "wedge_Material0/INDICES",
      "type": "SCALAR"
    },
    {
      "bufferView": 64,
      "componentType": 5126,
      "count": 7,
      "max": [
        0.017452169209718704,
        0.19055670499801636,
        0.010076019912958145
      ],
      "min": [
        0.0,
        0.029443269595503807,
        -3.609557054039112e-16
      ],
      "name": "wedge_Material0/POSITION",
      "type": "VEC3"
    },
    {
      "bufferView": 64,
      "byteOffset": 12,
      "componentType": 5126,
      "count": 7,
      "name": "wedge_Material0/NORMAL",
      "type": "VEC3"
    },
    {
      "bufferView": 64,
      "byteOffset": 24,
      "componentType": 5126,
      "count": 7,
      "name": "wedge_Material0/TEXCOORD_0",
      "type": "VEC2"
    },
    {
      "bufferView": 65,
      "componentType": 5123,
      "count": 9,
      "name": "wedge_Material0/INDICES",
      "type": "SCALAR"
    },
    {
      "bufferView": 66,
      "componentType": 5126,
      "count": 55,
      "max": [
        0.3400000035762787,
        0.2199999988079071,
        0.17000000178813934
      ],
      "min": [
        0.0,
        0.0,
        -3.609557054039112e-16
      ],
      "name": "wedge_Material0/POSITION",
      "type": "VEC3"
    },
    {
      "bufferView": 66,
      "byteOffset": 12,
      "componentType": 5126,
      "count": 55,
      "name": "wedge_Material0/NORMAL",
      "type": "VEC3"
    },
    {
      "bufferView": 66,
      "byteOffset": 24,
      "componentType": 5126,
      "count": 55,
      "name": "wedge_Material0/TEXCOORD_0",
      "type": "VEC2"
    },
    {
      "bufferView": 67,
      "componentType": 5123,
      "count": 105,
      "name": "wedge_Material0/INDICES",
      "type": "SCALAR"
    },
    {
      "bufferView": 68,
      "componentType": 5126,
      "count": 16,
      "max": [
        0.31055670976638794,
        0.19055670499801636,
        0.1552782952785492
      ],
      "min": [
        0.017452169209718704,
        0.029443269595503807,
        -3.609557054039112e-16
      ],
      "name": "wedge_Material0/POSITION",
      "type": "VEC3"
    },
    {
      "bufferView": 68,
      "byteOffset": 12,
      "componentType": 5126,
      "count": 16,
      "name": "wedge_Material0/NORMAL",
      "type": "VEC3"
    },
    {
      "bufferView": 68,
      "byteOffset": 24,
      "componentType": 5126,
      "count": 16,
      "name": "wedge_Material0/TEXCOORD_0",
      "type": "VEC2"
    },
    {
      "bufferView": 69,
      "componentType": 5123,
      "count": 30,
      "name": "wedge_Material0/INDICES",
      "type": "SCALAR"
    },
    {
      "bufferView": 70,
      "componentType": 5126,
      "count": 7,
      "max": [
        0.017452169209718704,
        0.19055670499801636,
        0.010076019912958145
      ],
      "min": [
        0.0,
        0.029443269595503807,
        -3.609557054039112e-16
      ],
      "name": "wedge_Material0/POSITION",
      "type": "VEC3"
    },
    {
      "bufferView": 70,
      "byteOffset": 12,
      "componentType": 5126,
      "count": 7,
      "name": "wedge_Material0/NORMAL",
      "type": "VEC3"
    },
    {
      "bufferView": 70,
      "byteOffset": 24,
      "componentType": 5126,
      "count": 7,
      "name": "wedge_Material0/TEXCOORD_0",
      "type": "VEC2"
    },
    {
      "bufferView": 71,
      "componentType": 5123,
      "count": 9,
      "name": "wedge_Material0/INDICES",
      "type": "SCALAR"
    }
  ],
  "asset": {
    "copyright": "Copyright (c) 2018-2020 Chukong Technologies Inc.",
    "generator": "FBX-glTF-conv",
    "version": "2.0"
  },
  "bufferViews": [
    {
      "buffer": 0,
      "byteLength": 1760,
      "byteStride": 32,
      "name": "wedge_Material0",
      "target": 34962
    },
    {
      "buffer": 0,
      "byteLength": 210,
      "byteOffset": 1760,
      "target": 34963
    },
    {
      "buffer": 0,
      "byteLength": 512,
      "byteOffset": 1970,
      "byteStride": 32,
      "name": "wedge_Material0",
      "target": 34962
    },
    {
      "buffer": 0,
      "byteLength": 60,
      "byteOffset": 2482,
      "target": 34963
    },
    {
      "buffer": 0,
      "byteLength": 224,
      "byteOffset": 2542,
      "byteStride": 32,
      "name": "wedge_Material0",
      "target": 34962
    },
    {
      "buffer": 0,
      "byteLength": 18,
      "byteOffset": 2766,
      "target": 34963
    },
    {
      "buffer": 0,
      "byteLength": 1760,
      "byteOffset": 2784,
      "byteStride": 32,
      "name": "wedge_Material0",
      "target": 34962
    },
    {
      "buffer": 0,
      "byteLength": 210,
      "byteOffset": 4544,
      "target": 34963
    },
    {
      "buffer": 0,
      "byteLength": 512,
      "byteOffset": 4754,
      "byteStride": 32,
      "name": "wedge_Material0",
      "target": 34962
    },
    {
      "buffer": 0,
      "byteLength": 60,
      "byteOffset": 5266,
      "target": 34963
    },
    {
      "buffer": 0,
      "byteLength": 224,
      "byteOffset": 5326,
      "byteStride": 32,
      "name": "wedge_Material0",
      "target": 34962
    },
    {
      "buffer": 0,
      "byteLength": 18,
      "byteOffset": 5550,
      "target": 34963
    },
    {
      "buffer": 0,
      "byteLength": 1760,
      "byteOffset": 5568,
      "byteStride": 32,
      "name": "wedge_Material0",
      "target": 34962
    },
    {
      "buffer": 0,
      "byteLength": 210,
      "byteOffset": 7328,
      "target": 34963
    },
    {
      "buffer": 0,
      "byteLength": 512,
      "byteOffset": 7538,
      "byteStride": 32,
      "name": "wedge_Material0",
      "target": 34962
    },
    {
      "buffer": 0,
      "byteLength": 60,
      "byteOffset": 8050,
      "target": 34963
    },
    {
      "buffer": 0,
      "byteLength": 224,
      "byteOffset": 8110,
      "byteStride": 32,
      "name": "wedge_Material0",
      "target": 34962
    },
    {
      "buffer": 0,
      "byteLength": 18,
      "byteOffset": 8334,
      "target": 34963
    },
    {
      "buffer": 0,
      "byteLength": 1760,
      "byteOffset": 8352,
      "byteStride": 32,
      "name": "wedge_Material0",
      "target": 34962
    },
    {
      "buffer": 0,
      "byteLength": 210,
      "byteOffset": 10112,
      "target": 34963
    },
    {
      "buffer": 0,
      "byteLength": 512,
      "byteOffset": 10322,
      "byteStride": 32,
      "name": "wedge_Material0",
      "target": 34962
    },
    {
      "buffer": 0,
      "byteLength": 60,
      "byteOffset": 10834,
      "target": 34963
    },
    {
      "buffer": 0,
      "byteLength": 224,
      "byteOffset": 10894,
      "byteStride": 32,
      "name": "wedge_Material0",
      "target": 34962
    },
    {
      "buffer": 0,
      "byteLength": 18,
      "byteOffset": 11118,
      "target": 34963
    },
    {
      "buffer": 0,
      "byteLength": 1760,
      "byteOffset": 11136,
      "byteStride": 32,
      "name": "wedge_Material0",
      "target": 34962
    },
    {
      "buffer": 0,
      "byteLength": 210,
      "byteOffset": 12896,
      "target": 34963
    },
    {
      "buffer": 0,
      "byteLength": 512,
      "byteOffset": 13106,
      "byteStride": 32,
      "name": "wedge_Material0",
      "target": 34962
    },
    {
      "buffer": 0,
      "byteLength": 60,
      "byteOffset": 13618,
      "target": 34963
    },
    {
      "buffer": 0,
      "byteLength": 224,
      "byteOffset": 13678,
      "byteStride": 32,
      "name": "wedge_Material0",
      "target": 34962
    },
    {
      "buffer": 0,
      "byteLength": 18,
      "byteOffset": 13902,
      "target": 34963
    },
    {
      "buffer": 0,
      "byteLength": 1760,
      "byteOffset": 13920,
      "byteStride": 32,
      "name": "wedge_Material0",
      "target": 34962
    },
    {
      "buffer": 0,
      "byteLength": 210,
      "byteOffset": 15680,
      "target": 34963
    },
    {
      "buffer": 0,
      "byteLength": 512,
      "byteOffset": 15890,
      "byteStride": 32,
      "name": "wedge_Material0",
      "target": 34962
    },
    {
      "buffer": 0,
      "byteLength": 60,
      "byteOffset": 16402,
      "target": 34963
    },
    {
      "buffer": 0,
      "byteLength": 224,
      "byteOffset": 16462,
      "byteStride": 32,
      "name": "wedge_Material0",
      "target": 34962
    },
    {
      "buffer": 0,
      "byteLength": 18,
      "byteOffset": 16686,
      "target": 34963
    },
    {
      "buffer": 0,
      "byteLength": 1760,
      "byteOffset": 16704,
      "byteStride": 32,
      "name": "wedge_Material0",
      "target": 34962
    },
    {
      "buffer": 0,
      "byteLength": 210,
      "byteOffset": 18464,
      "target": 34963
    },
    {
      "buffer": 0,
      "byteLength": 512,
      "byteOffset": 18674,
      "byteStride": 32,
      "name": "wedge_Material0",
      "target": 34962
    },
    {
      "buffer": 0,
      "byteLength": 60,
      "byteOffset": 19186,
      "target": 34963
    },
    {
      "buffer": 0,
      "byteLength": 224,
      "byteOffset": 19246,
      "byteStride": 32,
      "name": "wedge_Material0",
      "target": 34962
    },
    {
      "buffer": 0,
      "byteLength": 18,
      "byteOffset": 19470,
      "target": 34963
    },
    {
      "buffer": 0,
      "byteLength": 1760,
      "byteOffset": 19488,
      "byteStride": 32,
      "name": "wedge_Material0",
      "target": 34962
    },
    {
      "buffer": 0,
      "byteLength": 210,
      "byteOffset": 21248,
      "target": 34963
    },
    {
      "buffer": 0,
      "byteLength": 512,
      "byteOffset": 21458,
      "byteStride": 32,
      "name": "wedge_Material0",
      "target": 34962
    },
    {
      "buffer": 0,
      "byteLength": 60,
      "byteOffset": 21970,
      "target": 34963
    },
    {
      "buffer": 0,
      "byteLength": 224,
      "byteOffset": 22030,
      "byteStride": 32,
      "name": "wedge_Material0",
      "target": 34962
    },
    {
      "buffer": 0,
      "byteLength": 18,
      "byteOffset": 22254,
      "target": 34963
    },
    {
      "buffer": 0,
      "byteLength": 1760,
      "byteOffset": 22272,
      "byteStride": 32,
      "name": "wedge_Material0",
      "target": 34962
    },
    {
      "buffer": 0,
      "byteLength": 210,
      "byteOffset": 24032,
      "target": 34963
    },
    {
      "buffer": 0,
      "byteLength": 512,
      "byteOffset": 24242,
      "byteStride": 32,
      "name": "wedge_Material0",
      "target": 34962
    },
    {
      "buffer": 0,
      "byteLength": 60,
      "byteOffset": 24754,
      "target": 34963
    },
    {
      "buffer": 0,
      "byteLength": 224,
      "byteOffset": 24814,
      "byteStride": 32,
      "name": "wedge_Material0",
      "target": 34962
    },
    {
      "buffer": 0,
      "byteLength": 18,
      "byteOffset": 25038,
      "target": 34963
    },
    {
      "buffer": 0,
      "byteLength": 1760,
      "byteOffset": 25056,
      "byteStride": 32,
      "name": "wedge_Material0",
      "target": 34962
    },
    {
      "buffer": 0,
      "byteLength": 210,
      "byteOffset": 26816,
      "target": 34963
    },
    {
      "buffer": 0,
      "byteLength": 512,
      "byteOffset": 27026,
      "byteStride": 32,
      "name": "wedge_Material0",
      "target": 34962
    },
    {
      "buffer": 0,
      "byteLength": 60,
      "byteOffset": 27538,
      "target": 34963
    },
    {
      "buffer": 0,
      "byteLength": 224,
      "byteOffset": 27598,
      "byteStride": 32,
      "name": "wedge_Material0",
      "target": 34962
    },
    {
      "buffer": 0,
      "byteLength": 18,
      "byteOffset": 27822,
      "target": 34963
    },
    {
      "buffer": 0,
      "byteLength": 1760,
      "byteOffset": 27840,
      "byteStride": 32,
      "name": "wedge_Material0",
      "target": 34962
    },
    {
      "buffer": 0,
      "byteLength": 210,
      "byteOffset": 29600,
      "target": 34963
    },
    {
      "buffer": 0,
      "byteLength": 512,
      "byteOffset": 29810,
      "byteStride": 32,
      "name": "wedge_Material0",
      "target": 34962
    },
    {
      "buffer": 0,
      "byteLength": 60,
      "byteOffset": 30322,
      "target": 34963
    },
    {
      "buffer": 0,
      "byteLength": 224,
      "byteOffset": 30382,
      "byteStride": 32,
      "name": "wedge_Material0",
      "target": 34962
    },
    {
      "buffer": 0,
      "byteLength": 18,
      "byteOffset": 30606,
      "target": 34963
    },
    {
      "buffer": 0,
      "byteLength": 1760,
      "byteOffset": 30624,
      "byteStride": 32,
      "name": "wedge_Material0",
      "target": 34962
    },
    {
      "buffer": 0,
      "byteLength": 210,
      "byteOffset": 32384,
      "target": 34963
    },
    {
      "buffer": 0,
      "byteLength": 512,
      "byteOffset": 32594,
      "byteStride": 32,
      "name": "wedge_Material0",
      "target": 34962
    },
    {
      "buffer": 0,
      "byteLength": 60,
      "byteOffset": 33106,
      "target": 34963
    },
    {
      "buffer": 0,
      "byteLength": 224,
      "byteOffset": 33166,
      "byteStride": 32,
      "name": "wedge_Material0",
      "target": 34962
    },
    {
      "buffer": 0,
      "byteLength": 18,
      "byteOffset": 33390,
      "target": 34963
    }
  ],
  "buffers": [
    {
      "byteLength": 33408,
      "uri": "out.bin"
    }
  ],
  "extras": {
    "FBX-glTF-conv": {
      "animationFrameRate": 24.0,
      "fbxFileHeaderInfo": {
        "creationTimeStamp": {
          "day": 2,
          "hour": 17,
          "millisecond": 10,
          "minute": 34,
          "month": 6,
          "second": 26,
          "year": 2022
        },
        "creator": "Model created by Kenney (www.kenney.nl)",
        "sceneInfo": {
          "author": "",
          "comment": "",
          "keywords": "",
          "original": {
            "applicationName": "",
            "applicationVendor": "",
            "applicationVersion": "",
            "fileName": ""
          },
          "revision": "",
          "subject": "",
          "title": "",
          "url": "C:\\coin-pusher\\cocos\\coin-pusher-cocos\\assets\\3D食品和厨具套件\\3D食品和厨房\\FBX format\\cheese.fbx"
        }
      }
    }
  },
  "materials": [
    {
      "extras": {
        "FBX-glTF-conv": {
          "raw": {
            "properties": {
              "ambient": {
                "value": [
                  0.2,
                  0.2,
                  0.2
                ]
              },
              "ambientFactor": {
                "value": 1.0
              },
              "bump": {
                "value": [
                  0.0,
                  0.0,
                  0.0
                ]
              },
              "bumpFactor": {
                "value": 1.0
              },
              "diffuse": {
                "value": [
                  1.0,
                  0.7982377,
                  0.3632075
                ]
              },
              "diffuseFactor": {
                "value": 1.0
              },
              "displacementColor": {
                "value": [
                  0.0,
                  0.0,
                  0.0
                ]
              },
              "displacementFactor": {
                "value": 1.0
              },
              "emissive": {
                "value": [
                  0.0,
                  0.0,
                  0.0
                ]
              },
              "emissiveFactor": {
                "value": 1.0
              },
              "normalMap": {
                "value": [
                  0.0,
                  0.0,
                  0.0
                ]
              },
              "reflection": {
                "value": [
                  0.0,
                  0.0,
                  0.0
                ]
              },
              "reflectionFactor": {
                "value": 1.0
              },
              "shadingModel": "Phong",
              "shininess": {
                "value": 20.0
              },
              "specular": {
                "value": [
                  0.2,
                  0.2,
                  0.2
                ]
              },
              "specularFactor": {
                "value": 1.0
              },
              "transparencyFactor": {
                "value": 0.0
              },
              "transparentColor": {
                "value": [
                  0.0,
                  0.0,
                  0.0
                ]
              },
              "vectorDisplacementColor": {
                "value": [
                  0.0,
                  0.0,
                  0.0
                ]
              },
              "vectorDisplacementFactor": {
                "value": 1.0
              }
            },
            "type": "phong"
          }
        }
      },
      "name": "yellow"
    },
    {
      "extras": {
        "FBX-glTF-conv": {
          "raw": {
            "properties": {
              "ambient": {
                "value": [
                  0.2,
                  0.2,
                  0.2
                ]
              },
              "ambientFactor": {
                "value": 1.0
              },
              "bump": {
                "value": [
                  0.0,
                  0.0,
                  0.0
                ]
              },
              "bumpFactor": {
                "value": 1.0
              },
              "diffuse": {
                "value": [
                  0.990566,
                  0.8227515,
                  0.6401299
                ]
              },
              "diffuseFactor": {
                "value": 1.0
              },
              "displacementColor": {
                "value": [
                  0.0,
                  0.0,
                  0.0
                ]
              },
              "displacementFactor": {
                "value": 1.0
              },
              "emissive": {
                "value": [
                  0.0,
                  0.0,
                  0.0
                ]
              },
              "emissiveFactor": {
                "value": 1.0
              },
              "normalMap": {
                "value": [
                  0.0,
                  0.0,
                  0.0
                ]
              },
              "reflection": {
                "value": [
                  0.0,
                  0.0,
                  0.0
                ]
              },
              "reflectionFactor": {
                "value": 1.0
              },
              "shadingModel": "Phong",
              "shininess": {
                "value": 20.0
              },
              "specular": {
                "value": [
                  0.2,
                  0.2,
                  0.2
                ]
              },
              "specularFactor": {
                "value": 1.0
              },
              "transparencyFactor": {
                "value": 0.0
              },
              "transparentColor": {
                "value": [
                  0.0,
                  0.0,
                  0.0
                ]
              },
              "vectorDisplacementColor": {
                "value": [
                  0.0,
                  0.0,
                  0.0
                ]
              },
              "vectorDisplacementFactor": {
                "value": 1.0
              }
            },
            "type": "phong"
          }
        }
      },
      "name": "brownLight"
    },
    {
      "extras": {
        "FBX-glTF-conv": {
          "raw": {
            "properties": {
              "ambient": {
                "value": [
                  0.2,
                  0.2,
                  0.2
                ]
              },
              "ambientFactor": {
                "value": 1.0
              },
              "bump": {
                "value": [
                  0.0,
                  0.0,
                  0.0
                ]
              },
              "bumpFactor": {
                "value": 1.0
              },
              "diffuse": {
                "value": [
                  1.0,
                  1.0,
                  1.0
                ]
              },
              "diffuseFactor": {
                "value": 1.0
              },
              "displacementColor": {
                "value": [
                  0.0,
                  0.0,
                  0.0
                ]
              },
              "displacementFactor": {
                "value": 1.0
              },
              "emissive": {
                "value": [
                  0.0,
                  0.0,
                  0.0
                ]
              },
              "emissiveFactor": {
                "value": 1.0
              },
              "normalMap": {
                "value": [
                  0.0,
                  0.0,
                  0.0
                ]
              },
              "reflection": {
                "value": [
                  0.0,
                  0.0,
                  0.0
                ]
              },
              "reflectionFactor": {
                "value": 1.0
              },
              "shadingModel": "Phong",
              "shininess": {
                "value": 20.0
              },
              "specular": {
                "value": [
                  0.2,
                  0.2,
                  0.2
                ]
              },
              "specularFactor": {
                "value": 1.0
              },
              "transparencyFactor": {
                "value": 0.0
              },
              "transparentColor": {
                "value": [
                  0.0,
                  0.0,
                  0.0
                ]
              },
              "vectorDisplacementColor": {
                "value": [
                  0.0,
                  0.0,
                  0.0
                ]
              },
              "vectorDisplacementFactor": {
                "value": 1.0
              }
            },
            "type": "phong"
          }
        }
      },
      "name": "_defaultMat"
    }
  ],
  "meshes": [
    {
      "name": "wedge_Material0",
      "primitives": [
        {
          "attributes": {
            "NORMAL": 1,
            "POSITION": 0,
            "TEXCOORD_0": 2
          },
          "indices": 3,
          "material": 0
        },
        {
          "attributes": {
            "NORMAL": 5,
            "POSITION": 4,
            "TEXCOORD_0": 6
          },
          "indices": 7,
          "material": 1
        },
        {
          "attributes": {
            "NORMAL": 9,
            "POSITION": 8,
            "TEXCOORD_0": 10
          },
          "indices": 11,
          "material": 2
        }
      ]
    },
    {
      "name": "wedge_Material0",
      "primitives": [
        {
          "attributes": {
            "NORMAL": 13,
            "POSITION": 12,
            "TEXCOORD_0": 14
          },
          "indices": 15,
          "material": 0
        },
        {
          "attributes": {
            "NORMAL": 17,
            "POSITION": 16,
            "TEXCOORD_0": 18
          },
          "indices": 19,
          "material": 1
        },
        {
          "attributes": {
            "NORMAL": 21,
            "POSITION": 20,
            "TEXCOORD_0": 22
          },
          "indices": 23,
          "material": 2
        }
      ]
    },
    {
      "name": "wedge_Material0",
      "primitives": [
        {
          "attributes": {
            "NORMAL": 25,
            "POSITION": 24,
            "TEXCOORD_0": 26
          },
          "indices": 27,
          "material": 0
        },
        {
          "attributes": {
            "NORMAL": 29,
            "POSITION": 28,
            "TEXCOORD_0": 30
          },
          "indices": 31,
          "material": 1
        },
        {
          "attributes": {
            "NORMAL": 33,
            "POSITION": 32,
            "TEXCOORD_0": 34
          },
          "indices": 35,
          "material": 2
        }
      ]
    },
    {
      "name": "wedge_Material0",
      "primitives": [
        {
          "attributes": {
            "NORMAL": 37,
            "POSITION": 36,
            "TEXCOORD_0": 38
          },
          "indices": 39,
          "material": 0
        },
        {
          "attributes": {
            "NORMAL": 41,
            "POSITION": 40,
            "TEXCOORD_0": 42
          },
          "indices": 43,
          "material": 1
        },
        {
          "attributes": {
            "NORMAL": 45,
            "POSITION": 44,
            "TEXCOORD_0": 46
          },
          "indices": 47,
          "material": 2
        }
      ]
    },
    {
      "name": "wedge_Material0",
      "primitives": [
        {
          "attributes": {
            "NORMAL": 49,
            "POSITION": 48,
            "TEXCOORD_0": 50
          },
          "indices": 51,
          "material": 0
        },
        {
          "attributes": {
            "NORMAL": 53,
            "POSITION": 52,
            "TEXCOORD_0": 54
          },
          "indices": 55,
          "material": 1
        },
        {
          "attributes": {
            "NORMAL": 57,
            "POSITION": 56,
            "TEXCOORD_0": 58
          },
          "indices": 59,
          "material": 2
        }
      ]
    },
    {
      "name": "wedge_Material0",
      "primitives": [
        {
          "attributes": {
            "NORMAL": 61,
            "POSITION": 60,
            "TEXCOORD_0": 62
          },
          "indices": 63,
          "material": 0
        },
        {
          "attributes": {
            "NORMAL": 65,
            "POSITION": 64,
            "TEXCOORD_0": 66
          },
          "indices": 67,
          "material": 1
        },
        {
          "attributes": {
            "NORMAL": 69,
            "POSITION": 68,
            "TEXCOORD_0": 70
          },
          "indices": 71,
          "material": 2
        }
      ]
    },
    {
      "name": "wedge_Material0",
      "primitives": [
        {
          "attributes": {
            "NORMAL": 73,
            "POSITION": 72,
            "TEXCOORD_0": 74
          },
          "indices": 75,
          "material": 0
        },
        {
          "attributes": {
            "NORMAL": 77,
            "POSITION": 76,
            "TEXCOORD_0": 78
          },
          "indices": 79,
          "material": 1
        },
        {
          "attributes": {
            "NORMAL": 81,
            "POSITION": 80,
            "TEXCOORD_0": 82
          },
          "indices": 83,
          "material": 2
        }
      ]
    },
    {
      "name": "wedge_Material0",
      "primitives": [
        {
          "attributes": {
            "NORMAL": 85,
            "POSITION": 84,
            "TEXCOORD_0": 86
          },
          "indices": 87,
          "material": 0
        },
        {
          "attributes": {
            "NORMAL": 89,
            "POSITION": 88,
            "TEXCOORD_0": 90
          },
          "indices": 91,
          "material": 1
        },
        {
          "attributes": {
            "NORMAL": 93,
            "POSITION": 92,
            "TEXCOORD_0": 94
          },
          "indices": 95,
          "material": 2
        }
      ]
    },
    {
      "name": "wedge_Material0",
      "primitives": [
        {
          "attributes": {
            "NORMAL": 97,
            "POSITION": 96,
            "TEXCOORD_0": 98
          },
          "indices": 99,
          "material": 0
        },
        {
          "attributes": {
            "NORMAL": 101,
            "POSITION": 100,
            "TEXCOORD_0": 102
          },
          "indices": 103,
          "material": 1
        },
        {
          "attributes": {
            "NORMAL": 105,
            "POSITION": 104,
            "TEXCOORD_0": 106
          },
          "indices": 107,
          "material": 2
        }
      ]
    },
    {
      "name": "wedge_Material0",
      "primitives": [
        {
          "attributes": {
            "NORMAL": 109,
            "POSITION": 108,
            "TEXCOORD_0": 110
          },
          "indices": 111,
          "material": 0
        },
        {
          "attributes": {
            "NORMAL": 113,
            "POSITION": 112,
            "TEXCOORD_0": 114
          },
          "indices": 115,
          "material": 1
        },
        {
          "attributes": {
            "NORMAL": 117,
            "POSITION": 116,
            "TEXCOORD_0": 118
          },
          "indices": 119,
          "material": 2
        }
      ]
    },
    {
      "name": "wedge_Material0",
      "primitives": [
        {
          "attributes": {
            "NORMAL": 121,
            "POSITION": 120,
            "TEXCOORD_0": 122
          },
          "indices": 123,
          "material": 0
        },
        {
          "attributes": {
            "NORMAL": 125,
            "POSITION": 124,
            "TEXCOORD_0": 126
          },
          "indices": 127,
          "material": 1
        },
        {
          "attributes": {
            "NORMAL": 129,
            "POSITION": 128,
            "TEXCOORD_0": 130
          },
          "indices": 131,
          "material": 2
        }
      ]
    },
    {
      "name": "wedge_Material0",
      "primitives": [
        {
          "attributes": {
            "NORMAL": 133,
            "POSITION": 132,
            "TEXCOORD_0": 134
          },
          "indices": 135,
          "material": 0
        },
        {
          "attributes": {
            "NORMAL": 137,
            "POSITION": 136,
            "TEXCOORD_0": 138
          },
          "indices": 139,
          "material": 1
        },
        {
          "attributes": {
            "NORMAL": 141,
            "POSITION": 140,
            "TEXCOORD_0": 142
          },
          "indices": 143,
          "material": 2
        }
      ]
    }
  ],
  "nodes": [
    {
      "children": [
        1,
        2,
        3,
        4,
        5,
        6,
        7,
        8,
        9,
        10,
        11,
        12
      ],
      "name": "cheese"
    },
    {
      "mesh": 0,
      "name": "wedge",
      "rotation": [
        -0.0,
        -0.7071067690849304,
        0.0,
        0.7071067690849304
      ],
      "translation": [
        -1.4438230333738817e-15,
        -4.934941998262377e-17,
        -4.331468994242527e-15
      ]
    },
    {
      "mesh": 1,
      "name": "wedge",
      "rotation": [
        -8.364493367528069e-17,
        -0.8660253882408142,
        -8.364493367528069e-17,
        0.5
      ],
      "translation": [
        2.1657340736047897e-15,
        0.0,
        -4.692424037901948e-15
      ]
    },
    {
      "mesh": 2,
      "name": "wedge",
      "rotation": [
        7.49939942790704e-17,
        0.9659258127212524,
        7.49939942790704e-17,
        -0.258819043636322
      ],
      "translation": [
        2.1657340736047897e-15,
        0.0,
        -4.692424037901948e-15
      ]
    },
    {
      "mesh": 3,
      "name": "wedge",
      "rotation": [
        0.0,
        0.5,
        0.0,
        0.8660253882408142
      ],
      "translation": [
        -1.4438230333738817e-15,
        0.0,
        5.414335819286685e-15
      ]
    },
    {
      "mesh": 4,
      "name": "wedge",
      "rotation": [
        2.2412592700383518e-17,
        0.8660253882408142,
        2.2412592700383518e-17,
        0.5
      ],
      "translation": [
        -1.4438230333738817e-15,
        0.0,
        4.331468994242527e-15
      ]
    },
    {
      "mesh": 5,
      "name": "wedge",
      "rotation": [
        -0.0,
        0.7071067690849304,
        0.0,
        0.7071067690849304
      ],
      "translation": [
        -1.4438230333738817e-15,
        0.0,
        4.331468994242527e-15
      ]
    },
    {
      "mesh": 6,
      "name": "wedge",
      "rotation": [
        6.123234262925839e-17,
        1.0,
        6.123234262925839e-17,
        -6.123234262925839e-17
      ],
      "translation": [
        2.8876460667477634e-15,
        0.0,
        -1.8047790299453685e-15
      ]
    },
    {
      "mesh": 7,
      "name": "wedge",
      "rotation": [
        0.0,
        0.258819043636322,
        0.0,
        0.9659258127212524
      ],
      "translation": [
        -2.1657340736047897e-15,
        0.0,
        3.609556789341316e-15
      ]
    },
    {
      "mesh": 8,
      "name": "wedge",
      "rotation": [
        0.0,
        -0.258819043636322,
        0.0,
        0.9659258127212524
      ],
      "translation": [
        -2.8876460667477634e-15,
        0.0,
        -2.8876460667477634e-15
      ]
    },
    {
      "mesh": 9,
      "name": "wedge",
      "rotation": [
        0.0,
        -0.5,
        0.0,
        0.8660253882408142
      ],
      "translation": [
        -2.1657340736047897e-15,
        0.0,
        -3.970513103550158e-15
      ]
    },
    {
      "mesh": 10,
      "name": "wedge",
      "rotation": [
        4.329780301713277e-17,
        0.9659258127212524,
        4.329780301713277e-17,
        0.258819043636322
      ],
      "translation": [
        3.609556789341316e-15,
        0.0,
        -2.8876460667477634e-15
      ]
    },
    {
      "mesh": 11,
      "name": "wedge"
    }
  ],
  "scenes": [
    {
      "nodes": [
        0
      ]
    }
  ]
}