{
  "accessors": [
    {
      "bufferView": 0,
      "componentType": 5126,
      "count": 28,
      "max": [
        0.0,
        0.23999999463558197,
        0.319599986076355
      ],
      "min": [
        -0.27678170800209045,
        0.05999999865889549,
        0.0
      ],
      "name": "slice_Material0/POSITION",
      "type": "VEC3"
    },
    {
      "bufferView": 0,
      "byteOffset": 12,
      "componentType": 5126,
      "count": 28,
      "name": "slice_Material0/NORMAL",
      "type": "VEC3"
    },
    {
      "bufferView": 0,
      "byteOffset": 24,
      "componentType": 5126,
      "count": 28,
      "name": "slice_Material0/TEXCOORD_0",
      "type": "VEC2"
    },
    {
      "bufferView": 1,
      "componentType": 5123,
      "count": 48,
      "name": "slice_Material0/INDICES",
      "type": "SCALAR"
    },
    {
      "bufferView": 2,
      "componentType": 5126,
      "count": 61,
      "max": [
        0.0,
        0.23999999463558197,
        0.319599986076355
      ],
      "min": [
        -0.27678170800209045,
        0.0,
        0.0
      ],
      "name": "slice_Material0/POSITION",
      "type": "VEC3"
    },
    {
      "bufferView": 2,
      "byteOffset": 12,
      "componentType": 5126,
      "count": 61,
      "name": "slice_Material0/NORMAL",
      "type": "VEC3"
    },
    {
      "bufferView": 2,
      "byteOffset": 24,
      "componentType": 5126,
      "count": 61,
      "name": "slice_Material0/TEXCOORD_0",
      "type": "VEC2"
    },
    {
      "bufferView": 3,
      "componentType": 5123,
      "count": 111,
      "name": "slice_Material0/INDICES",
      "type": "SCALAR"
    },
    {
      "bufferView": 4,
      "componentType": 5126,
      "count": 63,
      "max": [
        0.0,
        0.23999999463558197,
        0.319599986076355
      ],
      "min": [
        -0.27678170800209045,
        0.05999999865889549,
        0.0
      ],
      "name": "slice_Material0/POSITION",
      "type": "VEC3"
    },
    {
      "bufferView": 4,
      "byteOffset": 12,
      "componentType": 5126,
      "count": 63,
      "name": "slice_Material0/NORMAL",
      "type": "VEC3"
    },
    {
      "bufferView": 4,
      "byteOffset": 24,
      "componentType": 5126,
      "count": 63,
      "name": "slice_Material0/TEXCOORD_0",
      "type": "VEC2"
    },
    {
      "bufferView": 5,
      "componentType": 5123,
      "count": 189,
      "name": "slice_Material0/INDICES",
      "type": "SCALAR"
    },
    {
      "bufferView": 6,
      "componentType": 5126,
      "count": 122,
      "max": [
        0.0,
        0.3425154983997345,
        0.319599986076355
      ],
      "min": [
        -0.27678170800209045,
        0.09000000357627869,
        0.1268395036458969
      ],
      "name": "slice_Material0/POSITION",
      "type": "VEC3"
    },
    {
      "bufferView": 6,
      "byteOffset": 12,
      "componentType": 5126,
      "count": 122,
      "name": "slice_Material0/NORMAL",
      "type": "VEC3"
    },
    {
      "bufferView": 6,
      "byteOffset": 24,
      "componentType": 5126,
      "count": 122,
      "name": "slice_Material0/TEXCOORD_0",
      "type": "VEC2"
    },
    {
      "bufferView": 7,
      "componentType": 5123,
      "count": 150,
      "name": "slice_Material0/INDICES",
      "type": "SCALAR"
    },
    {
      "bufferView": 8,
      "componentType": 5126,
      "count": 12,
      "max": [
        -0.11041519790887833,
        0.23999999463558197,
        0.15484380722045898
      ],
      "min": [
        -0.25044411420822144,
        0.23999999463558197,
        0.07974196970462799
      ],
      "name": "slice_Material0/POSITION",
      "type": "VEC3"
    },
    {
      "bufferView": 8,
      "byteOffset": 12,
      "componentType": 5126,
      "count": 12,
      "name": "slice_Material0/NORMAL",
      "type": "VEC3"
    },
    {
      "bufferView": 8,
      "byteOffset": 24,
      "componentType": 5126,
      "count": 12,
      "name": "slice_Material0/TEXCOORD_0",
      "type": "VEC2"
    },
    {
      "bufferView": 9,
      "componentType": 5123,
      "count": 18,
      "name": "slice_Material0/INDICES",
      "type": "SCALAR"
    },
    {
      "bufferView": 10,
      "componentType": 5126,
      "count": 12,
      "max": [
        -0.17725349962711334,
        0.23999999463558197,
        0.21568310260772705
      ],
      "min": [
        -0.2562249004840851,
        0.23999999463558197,
        0.03677875176072121
      ],
      "name": "slice_Material0/POSITION",
      "type": "VEC3"
    },
    {
      "bufferView": 10,
      "byteOffset": 12,
      "componentType": 5126,
      "count": 12,
      "name": "slice_Material0/NORMAL",
      "type": "VEC3"
    },
    {
      "bufferView": 10,
      "byteOffset": 24,
      "componentType": 5126,
      "count": 12,
      "name": "slice_Material0/TEXCOORD_0",
      "type": "VEC2"
    },
    {
      "bufferView": 11,
      "componentType": 5123,
      "count": 18,
      "name": "slice_Material0/INDICES",
      "type": "SCALAR"
    },
    {
      "bufferView": 12,
      "componentType": 5126,
      "count": 80,
      "max": [
        -0.15872010588645935,
        0.3637736141681671,
        0.19645999372005463
      ],
      "min": [
        -0.1806551069021225,
        0.33188650012016296,
        0.17452490329742432
      ],
      "name": "slice_Material0/POSITION",
      "type": "VEC3"
    },
    {
      "bufferView": 12,
      "byteOffset": 12,
      "componentType": 5126,
      "count": 80,
      "name": "slice_Material0/NORMAL",
      "type": "VEC3"
    },
    {
      "bufferView": 12,
      "byteOffset": 24,
      "componentType": 5126,
      "count": 80,
      "name": "slice_Material0/TEXCOORD_0",
      "type": "VEC2"
    },
    {
      "bufferView": 13,
      "componentType": 5123,
      "count": 132,
      "name": "slice_Material0/INDICES",
      "type": "SCALAR"
    },
    {
      "bufferView": 14,
      "componentType": 5126,
      "count": 28,
      "max": [
        0.0,
        0.23999999463558197,
        0.319599986076355
      ],
      "min": [
        -0.27678170800209045,
        0.05999999865889549,
        0.0
      ],
      "name": "slice_Material0/POSITION",
      "type": "VEC3"
    },
    {
      "bufferView": 14,
      "byteOffset": 12,
      "componentType": 5126,
      "count": 28,
      "name": "slice_Material0/NORMAL",
      "type": "VEC3"
    },
    {
      "bufferView": 14,
      "byteOffset": 24,
      "componentType": 5126,
      "count": 28,
      "name": "slice_Material0/TEXCOORD_0",
      "type": "VEC2"
    },
    {
      "bufferView": 15,
      "componentType": 5123,
      "count": 48,
      "name": "slice_Material0/INDICES",
      "type": "SCALAR"
    },
    {
      "bufferView": 16,
      "componentType": 5126,
      "count": 61,
      "max": [
        0.0,
        0.23999999463558197,
        0.319599986076355
      ],
      "min": [
        -0.27678170800209045,
        0.0,
        0.0
      ],
      "name": "slice_Material0/POSITION",
      "type": "VEC3"
    },
    {
      "bufferView": 16,
      "byteOffset": 12,
      "componentType": 5126,
      "count": 61,
      "name": "slice_Material0/NORMAL",
      "type": "VEC3"
    },
    {
      "bufferView": 16,
      "byteOffset": 24,
      "componentType": 5126,
      "count": 61,
      "name": "slice_Material0/TEXCOORD_0",
      "type": "VEC2"
    },
    {
      "bufferView": 17,
      "componentType": 5123,
      "count": 111,
      "name": "slice_Material0/INDICES",
      "type": "SCALAR"
    },
    {
      "bufferView": 18,
      "componentType": 5126,
      "count": 63,
      "max": [
        0.0,
        0.23999999463558197,
        0.319599986076355
      ],
      "min": [
        -0.27678170800209045,
        0.05999999865889549,
        0.0
      ],
      "name": "slice_Material0/POSITION",
      "type": "VEC3"
    },
    {
      "bufferView": 18,
      "byteOffset": 12,
      "componentType": 5126,
      "count": 63,
      "name": "slice_Material0/NORMAL",
      "type": "VEC3"
    },
    {
      "bufferView": 18,
      "byteOffset": 24,
      "componentType": 5126,
      "count": 63,
      "name": "slice_Material0/TEXCOORD_0",
      "type": "VEC2"
    },
    {
      "bufferView": 19,
      "componentType": 5123,
      "count": 189,
      "name": "slice_Material0/INDICES",
      "type": "SCALAR"
    },
    {
      "bufferView": 20,
      "componentType": 5126,
      "count": 122,
      "max": [
        0.0,
        0.3425154983997345,
        0.319599986076355
      ],
      "min": [
        -0.27678170800209045,
        0.09000000357627869,
        0.1268395036458969
      ],
      "name": "slice_Material0/POSITION",
      "type": "VEC3"
    },
    {
      "bufferView": 20,
      "byteOffset": 12,
      "componentType": 5126,
      "count": 122,
      "name": "slice_Material0/NORMAL",
      "type": "VEC3"
    },
    {
      "bufferView": 20,
      "byteOffset": 24,
      "componentType": 5126,
      "count": 122,
      "name": "slice_Material0/TEXCOORD_0",
      "type": "VEC2"
    },
    {
      "bufferView": 21,
      "componentType": 5123,
      "count": 150,
      "name": "slice_Material0/INDICES",
      "type": "SCALAR"
    },
    {
      "bufferView": 22,
      "componentType": 5126,
      "count": 12,
      "max": [
        -0.11041519790887833,
        0.23999999463558197,
        0.15484380722045898
      ],
      "min": [
        -0.25044411420822144,
        0.23999999463558197,
        0.07974196970462799
      ],
      "name": "slice_Material0/POSITION",
      "type": "VEC3"
    },
    {
      "bufferView": 22,
      "byteOffset": 12,
      "componentType": 5126,
      "count": 12,
      "name": "slice_Material0/NORMAL",
      "type": "VEC3"
    },
    {
      "bufferView": 22,
      "byteOffset": 24,
      "componentType": 5126,
      "count": 12,
      "name": "slice_Material0/TEXCOORD_0",
      "type": "VEC2"
    },
    {
      "bufferView": 23,
      "componentType": 5123,
      "count": 18,
      "name": "slice_Material0/INDICES",
      "type": "SCALAR"
    },
    {
      "bufferView": 24,
      "componentType": 5126,
      "count": 12,
      "max": [
        -0.17725349962711334,
        0.23999999463558197,
        0.21568310260772705
      ],
      "min": [
        -0.2562249004840851,
        0.23999999463558197,
        0.03677875176072121
      ],
      "name": "slice_Material0/POSITION",
      "type": "VEC3"
    },
    {
      "bufferView": 24,
      "byteOffset": 12,
      "componentType": 5126,
      "count": 12,
      "name": "slice_Material0/NORMAL",
      "type": "VEC3"
    },
    {
      "bufferView": 24,
      "byteOffset": 24,
      "componentType": 5126,
      "count": 12,
      "name": "slice_Material0/TEXCOORD_0",
      "type": "VEC2"
    },
    {
      "bufferView": 25,
      "componentType": 5123,
      "count": 18,
      "name": "slice_Material0/INDICES",
      "type": "SCALAR"
    },
    {
      "bufferView": 26,
      "componentType": 5126,
      "count": 80,
      "max": [
        -0.15872010588645935,
        0.3637736141681671,
        0.19645999372005463
      ],
      "min": [
        -0.1806551069021225,
        0.33188650012016296,
        0.17452490329742432
      ],
      "name": "slice_Material0/POSITION",
      "type": "VEC3"
    },
    {
      "bufferView": 26,
      "byteOffset": 12,
      "componentType": 5126,
      "count": 80,
      "name": "slice_Material0/NORMAL",
      "type": "VEC3"
    },
    {
      "bufferView": 26,
      "byteOffset": 24,
      "componentType": 5126,
      "count": 80,
      "name": "slice_Material0/TEXCOORD_0",
      "type": "VEC2"
    },
    {
      "bufferView": 27,
      "componentType": 5123,
      "count": 132,
      "name": "slice_Material0/INDICES",
      "type": "SCALAR"
    },
    {
      "bufferView": 28,
      "componentType": 5126,
      "count": 28,
      "max": [
        0.0,
        0.23999999463558197,
        0.319599986076355
      ],
      "min": [
        -0.27678170800209045,
        0.05999999865889549,
        0.0
      ],
      "name": "slice_Material0/POSITION",
      "type": "VEC3"
    },
    {
      "bufferView": 28,
      "byteOffset": 12,
      "componentType": 5126,
      "count": 28,
      "name": "slice_Material0/NORMAL",
      "type": "VEC3"
    },
    {
      "bufferView": 28,
      "byteOffset": 24,
      "componentType": 5126,
      "count": 28,
      "name": "slice_Material0/TEXCOORD_0",
      "type": "VEC2"
    },
    {
      "bufferView": 29,
      "componentType": 5123,
      "count": 48,
      "name": "slice_Material0/INDICES",
      "type": "SCALAR"
    },
    {
      "bufferView": 30,
      "componentType": 5126,
      "count": 61,
      "max": [
        0.0,
        0.23999999463558197,
        0.319599986076355
      ],
      "min": [
        -0.27678170800209045,
        0.0,
        0.0
      ],
      "name": "slice_Material0/POSITION",
      "type": "VEC3"
    },
    {
      "bufferView": 30,
      "byteOffset": 12,
      "componentType": 5126,
      "count": 61,
      "name": "slice_Material0/NORMAL",
      "type": "VEC3"
    },
    {
      "bufferView": 30,
      "byteOffset": 24,
      "componentType": 5126,
      "count": 61,
      "name": "slice_Material0/TEXCOORD_0",
      "type": "VEC2"
    },
    {
      "bufferView": 31,
      "componentType": 5123,
      "count": 111,
      "name": "slice_Material0/INDICES",
      "type": "SCALAR"
    },
    {
      "bufferView": 32,
      "componentType": 5126,
      "count": 63,
      "max": [
        0.0,
        0.23999999463558197,
        0.319599986076355
      ],
      "min": [
        -0.27678170800209045,
        0.05999999865889549,
        0.0
      ],
      "name": "slice_Material0/POSITION",
      "type": "VEC3"
    },
    {
      "bufferView": 32,
      "byteOffset": 12,
      "componentType": 5126,
      "count": 63,
      "name": "slice_Material0/NORMAL",
      "type": "VEC3"
    },
    {
      "bufferView": 32,
      "byteOffset": 24,
      "componentType": 5126,
      "count": 63,
      "name": "slice_Material0/TEXCOORD_0",
      "type": "VEC2"
    },
    {
      "bufferView": 33,
      "componentType": 5123,
      "count": 189,
      "name": "slice_Material0/INDICES",
      "type": "SCALAR"
    },
    {
      "bufferView": 34,
      "componentType": 5126,
      "count": 122,
      "max": [
        0.0,
        0.3425154983997345,
        0.319599986076355
      ],
      "min": [
        -0.27678170800209045,
        0.09000000357627869,
        0.1268395036458969
      ],
      "name": "slice_Material0/POSITION",
      "type": "VEC3"
    },
    {
      "bufferView": 34,
      "byteOffset": 12,
      "componentType": 5126,
      "count": 122,
      "name": "slice_Material0/NORMAL",
      "type": "VEC3"
    },
    {
      "bufferView": 34,
      "byteOffset": 24,
      "componentType": 5126,
      "count": 122,
      "name": "slice_Material0/TEXCOORD_0",
      "type": "VEC2"
    },
    {
      "bufferView": 35,
      "componentType": 5123,
      "count": 150,
      "name": "slice_Material0/INDICES",
      "type": "SCALAR"
    },
    {
      "bufferView": 36,
      "componentType": 5126,
      "count": 12,
      "max": [
        -0.11041519790887833,
        0.23999999463558197,
        0.15484380722045898
      ],
      "min": [
        -0.25044411420822144,
        0.23999999463558197,
        0.07974196970462799
      ],
      "name": "slice_Material0/POSITION",
      "type": "VEC3"
    },
    {
      "bufferView": 36,
      "byteOffset": 12,
      "componentType": 5126,
      "count": 12,
      "name": "slice_Material0/NORMAL",
      "type": "VEC3"
    },
    {
      "bufferView": 36,
      "byteOffset": 24,
      "componentType": 5126,
      "count": 12,
      "name": "slice_Material0/TEXCOORD_0",
      "type": "VEC2"
    },
    {
      "bufferView": 37,
      "componentType": 5123,
      "count": 18,
      "name": "slice_Material0/INDICES",
      "type": "SCALAR"
    },
    {
      "bufferView": 38,
      "componentType": 5126,
      "count": 12,
      "max": [
        -0.17725349962711334,
        0.23999999463558197,
        0.21568310260772705
      ],
      "min": [
        -0.2562249004840851,
        0.23999999463558197,
        0.03677875176072121
      ],
      "name": "slice_Material0/POSITION",
      "type": "VEC3"
    },
    {
      "bufferView": 38,
      "byteOffset": 12,
      "componentType": 5126,
      "count": 12,
      "name": "slice_Material0/NORMAL",
      "type": "VEC3"
    },
    {
      "bufferView": 38,
      "byteOffset": 24,
      "componentType": 5126,
      "count": 12,
      "name": "slice_Material0/TEXCOORD_0",
      "type": "VEC2"
    },
    {
      "bufferView": 39,
      "componentType": 5123,
      "count": 18,
      "name": "slice_Material0/INDICES",
      "type": "SCALAR"
    },
    {
      "bufferView": 40,
      "componentType": 5126,
      "count": 80,
      "max": [
        -0.15872010588645935,
        0.3637736141681671,
        0.19645999372005463
      ],
      "min": [
        -0.1806551069021225,
        0.33188650012016296,
        0.17452490329742432
      ],
      "name": "slice_Material0/POSITION",
      "type": "VEC3"
    },
    {
      "bufferView": 40,
      "byteOffset": 12,
      "componentType": 5126,
      "count": 80,
      "name": "slice_Material0/NORMAL",
      "type": "VEC3"
    },
    {
      "bufferView": 40,
      "byteOffset": 24,
      "componentType": 5126,
      "count": 80,
      "name": "slice_Material0/TEXCOORD_0",
      "type": "VEC2"
    },
    {
      "bufferView": 41,
      "componentType": 5123,
      "count": 132,
      "name": "slice_Material0/INDICES",
      "type": "SCALAR"
    },
    {
      "bufferView": 42,
      "componentType": 5126,
      "count": 28,
      "max": [
        0.0,
        0.23999999463558197,
        0.319599986076355
      ],
      "min": [
        -0.27678170800209045,
        0.05999999865889549,
        0.0
      ],
      "name": "slice_Material0/POSITION",
      "type": "VEC3"
    },
    {
      "bufferView": 42,
      "byteOffset": 12,
      "componentType": 5126,
      "count": 28,
      "name": "slice_Material0/NORMAL",
      "type": "VEC3"
    },
    {
      "bufferView": 42,
      "byteOffset": 24,
      "componentType": 5126,
      "count": 28,
      "name": "slice_Material0/TEXCOORD_0",
      "type": "VEC2"
    },
    {
      "bufferView": 43,
      "componentType": 5123,
      "count": 48,
      "name": "slice_Material0/INDICES",
      "type": "SCALAR"
    },
    {
      "bufferView": 44,
      "componentType": 5126,
      "count": 61,
      "max": [
        0.0,
        0.23999999463558197,
        0.319599986076355
      ],
      "min": [
        -0.27678170800209045,
        0.0,
        0.0
      ],
      "name": "slice_Material0/POSITION",
      "type": "VEC3"
    },
    {
      "bufferView": 44,
      "byteOffset": 12,
      "componentType": 5126,
      "count": 61,
      "name": "slice_Material0/NORMAL",
      "type": "VEC3"
    },
    {
      "bufferView": 44,
      "byteOffset": 24,
      "componentType": 5126,
      "count": 61,
      "name": "slice_Material0/TEXCOORD_0",
      "type": "VEC2"
    },
    {
      "bufferView": 45,
      "componentType": 5123,
      "count": 111,
      "name": "slice_Material0/INDICES",
      "type": "SCALAR"
    },
    {
      "bufferView": 46,
      "componentType": 5126,
      "count": 63,
      "max": [
        0.0,
        0.23999999463558197,
        0.319599986076355
      ],
      "min": [
        -0.27678170800209045,
        0.05999999865889549,
        0.0
      ],
      "name": "slice_Material0/POSITION",
      "type": "VEC3"
    },
    {
      "bufferView": 46,
      "byteOffset": 12,
      "componentType": 5126,
      "count": 63,
      "name": "slice_Material0/NORMAL",
      "type": "VEC3"
    },
    {
      "bufferView": 46,
      "byteOffset": 24,
      "componentType": 5126,
      "count": 63,
      "name": "slice_Material0/TEXCOORD_0",
      "type": "VEC2"
    },
    {
      "bufferView": 47,
      "componentType": 5123,
      "count": 189,
      "name": "slice_Material0/INDICES",
      "type": "SCALAR"
    },
    {
      "bufferView": 48,
      "componentType": 5126,
      "count": 122,
      "max": [
        0.0,
        0.3425154983997345,
        0.319599986076355
      ],
      "min": [
        -0.27678170800209045,
        0.09000000357627869,
        0.1268395036458969
      ],
      "name": "slice_Material0/POSITION",
      "type": "VEC3"
    },
    {
      "bufferView": 48,
      "byteOffset": 12,
      "componentType": 5126,
      "count": 122,
      "name": "slice_Material0/NORMAL",
      "type": "VEC3"
    },
    {
      "bufferView": 48,
      "byteOffset": 24,
      "componentType": 5126,
      "count": 122,
      "name": "slice_Material0/TEXCOORD_0",
      "type": "VEC2"
    },
    {
      "bufferView": 49,
      "componentType": 5123,
      "count": 150,
      "name": "slice_Material0/INDICES",
      "type": "SCALAR"
    },
    {
      "bufferView": 50,
      "componentType": 5126,
      "count": 12,
      "max": [
        -0.11041519790887833,
        0.23999999463558197,
        0.15484380722045898
      ],
      "min": [
        -0.25044411420822144,
        0.23999999463558197,
        0.07974196970462799
      ],
      "name": "slice_Material0/POSITION",
      "type": "VEC3"
    },
    {
      "bufferView": 50,
      "byteOffset": 12,
      "componentType": 5126,
      "count": 12,
      "name": "slice_Material0/NORMAL",
      "type": "VEC3"
    },
    {
      "bufferView": 50,
      "byteOffset": 24,
      "componentType": 5126,
      "count": 12,
      "name": "slice_Material0/TEXCOORD_0",
      "type": "VEC2"
    },
    {
      "bufferView": 51,
      "componentType": 5123,
      "count": 18,
      "name": "slice_Material0/INDICES",
      "type": "SCALAR"
    },
    {
      "bufferView": 52,
      "componentType": 5126,
      "count": 12,
      "max": [
        -0.17725349962711334,
        0.23999999463558197,
        0.21568310260772705
      ],
      "min": [
        -0.2562249004840851,
        0.23999999463558197,
        0.03677875176072121
      ],
      "name": "slice_Material0/POSITION",
      "type": "VEC3"
    },
    {
      "bufferView": 52,
      "byteOffset": 12,
      "componentType": 5126,
      "count": 12,
      "name": "slice_Material0/NORMAL",
      "type": "VEC3"
    },
    {
      "bufferView": 52,
      "byteOffset": 24,
      "componentType": 5126,
      "count": 12,
      "name": "slice_Material0/TEXCOORD_0",
      "type": "VEC2"
    },
    {
      "bufferView": 53,
      "componentType": 5123,
      "count": 18,
      "name": "slice_Material0/INDICES",
      "type": "SCALAR"
    },
    {
      "bufferView": 54,
      "componentType": 5126,
      "count": 80,
      "max": [
        -0.15872010588645935,
        0.3637736141681671,
        0.19645999372005463
      ],
      "min": [
        -0.1806551069021225,
        0.33188650012016296,
        0.17452490329742432
      ],
      "name": "slice_Material0/POSITION",
      "type": "VEC3"
    },
    {
      "bufferView": 54,
      "byteOffset": 12,
      "componentType": 5126,
      "count": 80,
      "name": "slice_Material0/NORMAL",
      "type": "VEC3"
    },
    {
      "bufferView": 54,
      "byteOffset": 24,
      "componentType": 5126,
      "count": 80,
      "name": "slice_Material0/TEXCOORD_0",
      "type": "VEC2"
    },
    {
      "bufferView": 55,
      "componentType": 5123,
      "count": 132,
      "name": "slice_Material0/INDICES",
      "type": "SCALAR"
    },
    {
      "bufferView": 56,
      "componentType": 5126,
      "count": 28,
      "max": [
        0.0,
        0.23999999463558197,
        0.319599986076355
      ],
      "min": [
        -0.27678170800209045,
        0.05999999865889549,
        0.0
      ],
      "name": "slice_Material0/POSITION",
      "type": "VEC3"
    },
    {
      "bufferView": 56,
      "byteOffset": 12,
      "componentType": 5126,
      "count": 28,
      "name": "slice_Material0/NORMAL",
      "type": "VEC3"
    },
    {
      "bufferView": 56,
      "byteOffset": 24,
      "componentType": 5126,
      "count": 28,
      "name": "slice_Material0/TEXCOORD_0",
      "type": "VEC2"
    },
    {
      "bufferView": 57,
      "componentType": 5123,
      "count": 48,
      "name": "slice_Material0/INDICES",
      "type": "SCALAR"
    },
    {
      "bufferView": 58,
      "componentType": 5126,
      "count": 61,
      "max": [
        0.0,
        0.23999999463558197,
        0.319599986076355
      ],
      "min": [
        -0.27678170800209045,
        0.0,
        0.0
      ],
      "name": "slice_Material0/POSITION",
      "type": "VEC3"
    },
    {
      "bufferView": 58,
      "byteOffset": 12,
      "componentType": 5126,
      "count": 61,
      "name": "slice_Material0/NORMAL",
      "type": "VEC3"
    },
    {
      "bufferView": 58,
      "byteOffset": 24,
      "componentType": 5126,
      "count": 61,
      "name": "slice_Material0/TEXCOORD_0",
      "type": "VEC2"
    },
    {
      "bufferView": 59,
      "componentType": 5123,
      "count": 111,
      "name": "slice_Material0/INDICES",
      "type": "SCALAR"
    },
    {
      "bufferView": 60,
      "componentType": 5126,
      "count": 63,
      "max": [
        0.0,
        0.23999999463558197,
        0.319599986076355
      ],
      "min": [
        -0.27678170800209045,
        0.05999999865889549,
        0.0
      ],
      "name": "slice_Material0/POSITION",
      "type": "VEC3"
    },
    {
      "bufferView": 60,
      "byteOffset": 12,
      "componentType": 5126,
      "count": 63,
      "name": "slice_Material0/NORMAL",
      "type": "VEC3"
    },
    {
      "bufferView": 60,
      "byteOffset": 24,
      "componentType": 5126,
      "count": 63,
      "name": "slice_Material0/TEXCOORD_0",
      "type": "VEC2"
    },
    {
      "bufferView": 61,
      "componentType": 5123,
      "count": 189,
      "name": "slice_Material0/INDICES",
      "type": "SCALAR"
    },
    {
      "bufferView": 62,
      "componentType": 5126,
      "count": 122,
      "max": [
        0.0,
        0.3425154983997345,
        0.319599986076355
      ],
      "min": [
        -0.27678170800209045,
        0.09000000357627869,
        0.1268395036458969
      ],
      "name": "slice_Material0/POSITION",
      "type": "VEC3"
    },
    {
      "bufferView": 62,
      "byteOffset": 12,
      "componentType": 5126,
      "count": 122,
      "name": "slice_Material0/NORMAL",
      "type": "VEC3"
    },
    {
      "bufferView": 62,
      "byteOffset": 24,
      "componentType": 5126,
      "count": 122,
      "name": "slice_Material0/TEXCOORD_0",
      "type": "VEC2"
    },
    {
      "bufferView": 63,
      "componentType": 5123,
      "count": 150,
      "name": "slice_Material0/INDICES",
      "type": "SCALAR"
    },
    {
      "bufferView": 64,
      "componentType": 5126,
      "count": 12,
      "max": [
        -0.11041519790887833,
        0.23999999463558197,
        0.15484380722045898
      ],
      "min": [
        -0.25044411420822144,
        0.23999999463558197,
        0.07974196970462799
      ],
      "name": "slice_Material0/POSITION",
      "type": "VEC3"
    },
    {
      "bufferView": 64,
      "byteOffset": 12,
      "componentType": 5126,
      "count": 12,
      "name": "slice_Material0/NORMAL",
      "type": "VEC3"
    },
    {
      "bufferView": 64,
      "byteOffset": 24,
      "componentType": 5126,
      "count": 12,
      "name": "slice_Material0/TEXCOORD_0",
      "type": "VEC2"
    },
    {
      "bufferView": 65,
      "componentType": 5123,
      "count": 18,
      "name": "slice_Material0/INDICES",
      "type": "SCALAR"
    },
    {
      "bufferView": 66,
      "componentType": 5126,
      "count": 12,
      "max": [
        -0.17725349962711334,
        0.23999999463558197,
        0.21568310260772705
      ],
      "min": [
        -0.2562249004840851,
        0.23999999463558197,
        0.03677875176072121
      ],
      "name": "slice_Material0/POSITION",
      "type": "VEC3"
    },
    {
      "bufferView": 66,
      "byteOffset": 12,
      "componentType": 5126,
      "count": 12,
      "name": "slice_Material0/NORMAL",
      "type": "VEC3"
    },
    {
      "bufferView": 66,
      "byteOffset": 24,
      "componentType": 5126,
      "count": 12,
      "name": "slice_Material0/TEXCOORD_0",
      "type": "VEC2"
    },
    {
      "bufferView": 67,
      "componentType": 5123,
      "count": 18,
      "name": "slice_Material0/INDICES",
      "type": "SCALAR"
    },
    {
      "bufferView": 68,
      "componentType": 5126,
      "count": 80,
      "max": [
        -0.15872010588645935,
        0.3637736141681671,
        0.19645999372005463
      ],
      "min": [
        -0.1806551069021225,
        0.33188650012016296,
        0.17452490329742432
      ],
      "name": "slice_Material0/POSITION",
      "type": "VEC3"
    },
    {
      "bufferView": 68,
      "byteOffset": 12,
      "componentType": 5126,
      "count": 80,
      "name": "slice_Material0/NORMAL",
      "type": "VEC3"
    },
    {
      "bufferView": 68,
      "byteOffset": 24,
      "componentType": 5126,
      "count": 80,
      "name": "slice_Material0/TEXCOORD_0",
      "type": "VEC2"
    },
    {
      "bufferView": 69,
      "componentType": 5123,
      "count": 132,
      "name": "slice_Material0/INDICES",
      "type": "SCALAR"
    },
    {
      "bufferView": 70,
      "componentType": 5126,
      "count": 28,
      "max": [
        0.0,
        0.23999999463558197,
        0.319599986076355
      ],
      "min": [
        -0.27678170800209045,
        0.05999999865889549,
        0.0
      ],
      "name": "slice_Material0/POSITION",
      "type": "VEC3"
    },
    {
      "bufferView": 70,
      "byteOffset": 12,
      "componentType": 5126,
      "count": 28,
      "name": "slice_Material0/NORMAL",
      "type": "VEC3"
    },
    {
      "bufferView": 70,
      "byteOffset": 24,
      "componentType": 5126,
      "count": 28,
      "name": "slice_Material0/TEXCOORD_0",
      "type": "VEC2"
    },
    {
      "bufferView": 71,
      "componentType": 5123,
      "count": 48,
      "name": "slice_Material0/INDICES",
      "type": "SCALAR"
    },
    {
      "bufferView": 72,
      "componentType": 5126,
      "count": 61,
      "max": [
        0.0,
        0.23999999463558197,
        0.319599986076355
      ],
      "min": [
        -0.27678170800209045,
        0.0,
        0.0
      ],
      "name": "slice_Material0/POSITION",
      "type": "VEC3"
    },
    {
      "bufferView": 72,
      "byteOffset": 12,
      "componentType": 5126,
      "count": 61,
      "name": "slice_Material0/NORMAL",
      "type": "VEC3"
    },
    {
      "bufferView": 72,
      "byteOffset": 24,
      "componentType": 5126,
      "count": 61,
      "name": "slice_Material0/TEXCOORD_0",
      "type": "VEC2"
    },
    {
      "bufferView": 73,
      "componentType": 5123,
      "count": 111,
      "name": "slice_Material0/INDICES",
      "type": "SCALAR"
    },
    {
      "bufferView": 74,
      "componentType": 5126,
      "count": 63,
      "max": [
        0.0,
        0.23999999463558197,
        0.319599986076355
      ],
      "min": [
        -0.27678170800209045,
        0.05999999865889549,
        0.0
      ],
      "name": "slice_Material0/POSITION",
      "type": "VEC3"
    },
    {
      "bufferView": 74,
      "byteOffset": 12,
      "componentType": 5126,
      "count": 63,
      "name": "slice_Material0/NORMAL",
      "type": "VEC3"
    },
    {
      "bufferView": 74,
      "byteOffset": 24,
      "componentType": 5126,
      "count": 63,
      "name": "slice_Material0/TEXCOORD_0",
      "type": "VEC2"
    },
    {
      "bufferView": 75,
      "componentType": 5123,
      "count": 189,
      "name": "slice_Material0/INDICES",
      "type": "SCALAR"
    },
    {
      "bufferView": 76,
      "componentType": 5126,
      "count": 122,
      "max": [
        0.0,
        0.3425154983997345,
        0.319599986076355
      ],
      "min": [
        -0.27678170800209045,
        0.09000000357627869,
        0.1268395036458969
      ],
      "name": "slice_Material0/POSITION",
      "type": "VEC3"
    },
    {
      "bufferView": 76,
      "byteOffset": 12,
      "componentType": 5126,
      "count": 122,
      "name": "slice_Material0/NORMAL",
      "type": "VEC3"
    },
    {
      "bufferView": 76,
      "byteOffset": 24,
      "componentType": 5126,
      "count": 122,
      "name": "slice_Material0/TEXCOORD_0",
      "type": "VEC2"
    },
    {
      "bufferView": 77,
      "componentType": 5123,
      "count": 150,
      "name": "slice_Material0/INDICES",
      "type": "SCALAR"
    },
    {
      "bufferView": 78,
      "componentType": 5126,
      "count": 12,
      "max": [
        -0.11041519790887833,
        0.23999999463558197,
        0.15484380722045898
      ],
      "min": [
        -0.25044411420822144,
        0.23999999463558197,
        0.07974196970462799
      ],
      "name": "slice_Material0/POSITION",
      "type": "VEC3"
    },
    {
      "bufferView": 78,
      "byteOffset": 12,
      "componentType": 5126,
      "count": 12,
      "name": "slice_Material0/NORMAL",
      "type": "VEC3"
    },
    {
      "bufferView": 78,
      "byteOffset": 24,
      "componentType": 5126,
      "count": 12,
      "name": "slice_Material0/TEXCOORD_0",
      "type": "VEC2"
    },
    {
      "bufferView": 79,
      "componentType": 5123,
      "count": 18,
      "name": "slice_Material0/INDICES",
      "type": "SCALAR"
    },
    {
      "bufferView": 80,
      "componentType": 5126,
      "count": 12,
      "max": [
        -0.17725349962711334,
        0.23999999463558197,
        0.21568310260772705
      ],
      "min": [
        -0.2562249004840851,
        0.23999999463558197,
        0.03677875176072121
      ],
      "name": "slice_Material0/POSITION",
      "type": "VEC3"
    },
    {
      "bufferView": 80,
      "byteOffset": 12,
      "componentType": 5126,
      "count": 12,
      "name": "slice_Material0/NORMAL",
      "type": "VEC3"
    },
    {
      "bufferView": 80,
      "byteOffset": 24,
      "componentType": 5126,
      "count": 12,
      "name": "slice_Material0/TEXCOORD_0",
      "type": "VEC2"
    },
    {
      "bufferView": 81,
      "componentType": 5123,
      "count": 18,
      "name": "slice_Material0/INDICES",
      "type": "SCALAR"
    },
    {
      "bufferView": 82,
      "componentType": 5126,
      "count": 80,
      "max": [
        -0.15872010588645935,
        0.3637736141681671,
        0.19645999372005463
      ],
      "min": [
        -0.1806551069021225,
        0.33188650012016296,
        0.17452490329742432
      ],
      "name": "slice_Material0/POSITION",
      "type": "VEC3"
    },
    {
      "bufferView": 82,
      "byteOffset": 12,
      "componentType": 5126,
      "count": 80,
      "name": "slice_Material0/NORMAL",
      "type": "VEC3"
    },
    {
      "bufferView": 82,
      "byteOffset": 24,
      "componentType": 5126,
      "count": 80,
      "name": "slice_Material0/TEXCOORD_0",
      "type": "VEC2"
    },
    {
      "bufferView": 83,
      "componentType": 5123,
      "count": 132,
      "name": "slice_Material0/INDICES",
      "type": "SCALAR"
    }
  ],
  "asset": {
    "copyright": "Copyright (c) 2018-2020 Chukong Technologies Inc.",
    "generator": "FBX-glTF-conv",
    "version": "2.0"
  },
  "bufferViews": [
    {
      "buffer": 0,
      "byteLength": 896,
      "byteStride": 32,
      "name": "slice_Material0",
      "target": 34962
    },
    {
      "buffer": 0,
      "byteLength": 96,
      "byteOffset": 896,
      "target": 34963
    },
    {
      "buffer": 0,
      "byteLength": 1952,
      "byteOffset": 992,
      "byteStride": 32,
      "name": "slice_Material0",
      "target": 34962
    },
    {
      "buffer": 0,
      "byteLength": 222,
      "byteOffset": 2944,
      "target": 34963
    },
    {
      "buffer": 0,
      "byteLength": 2016,
      "byteOffset": 3166,
      "byteStride": 32,
      "name": "slice_Material0",
      "target": 34962
    },
    {
      "buffer": 0,
      "byteLength": 378,
      "byteOffset": 5182,
      "target": 34963
    },
    {
      "buffer": 0,
      "byteLength": 3904,
      "byteOffset": 5560,
      "byteStride": 32,
      "name": "slice_Material0",
      "target": 34962
    },
    {
      "buffer": 0,
      "byteLength": 300,
      "byteOffset": 9464,
      "target": 34963
    },
    {
      "buffer": 0,
      "byteLength": 384,
      "byteOffset": 9764,
      "byteStride": 32,
      "name": "slice_Material0",
      "target": 34962
    },
    {
      "buffer": 0,
      "byteLength": 36,
      "byteOffset": 10148,
      "target": 34963
    },
    {
      "buffer": 0,
      "byteLength": 384,
      "byteOffset": 10184,
      "byteStride": 32,
      "name": "slice_Material0",
      "target": 34962
    },
    {
      "buffer": 0,
      "byteLength": 36,
      "byteOffset": 10568,
      "target": 34963
    },
    {
      "buffer": 0,
      "byteLength": 2560,
      "byteOffset": 10604,
      "byteStride": 32,
      "name": "slice_Material0",
      "target": 34962
    },
    {
      "buffer": 0,
      "byteLength": 264,
      "byteOffset": 13164,
      "target": 34963
    },
    {
      "buffer": 0,
      "byteLength": 896,
      "byteOffset": 13428,
      "byteStride": 32,
      "name": "slice_Material0",
      "target": 34962
    },
    {
      "buffer": 0,
      "byteLength": 96,
      "byteOffset": 14324,
      "target": 34963
    },
    {
      "buffer": 0,
      "byteLength": 1952,
      "byteOffset": 14420,
      "byteStride": 32,
      "name": "slice_Material0",
      "target": 34962
    },
    {
      "buffer": 0,
      "byteLength": 222,
      "byteOffset": 16372,
      "target": 34963
    },
    {
      "buffer": 0,
      "byteLength": 2016,
      "byteOffset": 16594,
      "byteStride": 32,
      "name": "slice_Material0",
      "target": 34962
    },
    {
      "buffer": 0,
      "byteLength": 378,
      "byteOffset": 18610,
      "target": 34963
    },
    {
      "buffer": 0,
      "byteLength": 3904,
      "byteOffset": 18988,
      "byteStride": 32,
      "name": "slice_Material0",
      "target": 34962
    },
    {
      "buffer": 0,
      "byteLength": 300,
      "byteOffset": 22892,
      "target": 34963
    },
    {
      "buffer": 0,
      "byteLength": 384,
      "byteOffset": 23192,
      "byteStride": 32,
      "name": "slice_Material0",
      "target": 34962
    },
    {
      "buffer": 0,
      "byteLength": 36,
      "byteOffset": 23576,
      "target": 34963
    },
    {
      "buffer": 0,
      "byteLength": 384,
      "byteOffset": 23612,
      "byteStride": 32,
      "name": "slice_Material0",
      "target": 34962
    },
    {
      "buffer": 0,
      "byteLength": 36,
      "byteOffset": 23996,
      "target": 34963
    },
    {
      "buffer": 0,
      "byteLength": 2560,
      "byteOffset": 24032,
      "byteStride": 32,
      "name": "slice_Material0",
      "target": 34962
    },
    {
      "buffer": 0,
      "byteLength": 264,
      "byteOffset": 26592,
      "target": 34963
    },
    {
      "buffer": 0,
      "byteLength": 896,
      "byteOffset": 26856,
      "byteStride": 32,
      "name": "slice_Material0",
      "target": 34962
    },
    {
      "buffer": 0,
      "byteLength": 96,
      "byteOffset": 27752,
      "target": 34963
    },
    {
      "buffer": 0,
      "byteLength": 1952,
      "byteOffset": 27848,
      "byteStride": 32,
      "name": "slice_Material0",
      "target": 34962
    },
    {
      "buffer": 0,
      "byteLength": 222,
      "byteOffset": 29800,
      "target": 34963
    },
    {
      "buffer": 0,
      "byteLength": 2016,
      "byteOffset": 30022,
      "byteStride": 32,
      "name": "slice_Material0",
      "target": 34962
    },
    {
      "buffer": 0,
      "byteLength": 378,
      "byteOffset": 32038,
      "target": 34963
    },
    {
      "buffer": 0,
      "byteLength": 3904,
      "byteOffset": 32416,
      "byteStride": 32,
      "name": "slice_Material0",
      "target": 34962
    },
    {
      "buffer": 0,
      "byteLength": 300,
      "byteOffset": 36320,
      "target": 34963
    },
    {
      "buffer": 0,
      "byteLength": 384,
      "byteOffset": 36620,
      "byteStride": 32,
      "name": "slice_Material0",
      "target": 34962
    },
    {
      "buffer": 0,
      "byteLength": 36,
      "byteOffset": 37004,
      "target": 34963
    },
    {
      "buffer": 0,
      "byteLength": 384,
      "byteOffset": 37040,
      "byteStride": 32,
      "name": "slice_Material0",
      "target": 34962
    },
    {
      "buffer": 0,
      "byteLength": 36,
      "byteOffset": 37424,
      "target": 34963
    },
    {
      "buffer": 0,
      "byteLength": 2560,
      "byteOffset": 37460,
      "byteStride": 32,
      "name": "slice_Material0",
      "target": 34962
    },
    {
      "buffer": 0,
      "byteLength": 264,
      "byteOffset": 40020,
      "target": 34963
    },
    {
      "buffer": 0,
      "byteLength": 896,
      "byteOffset": 40284,
      "byteStride": 32,
      "name": "slice_Material0",
      "target": 34962
    },
    {
      "buffer": 0,
      "byteLength": 96,
      "byteOffset": 41180,
      "target": 34963
    },
    {
      "buffer": 0,
      "byteLength": 1952,
      "byteOffset": 41276,
      "byteStride": 32,
      "name": "slice_Material0",
      "target": 34962
    },
    {
      "buffer": 0,
      "byteLength": 222,
      "byteOffset": 43228,
      "target": 34963
    },
    {
      "buffer": 0,
      "byteLength": 2016,
      "byteOffset": 43450,
      "byteStride": 32,
      "name": "slice_Material0",
      "target": 34962
    },
    {
      "buffer": 0,
      "byteLength": 378,
      "byteOffset": 45466,
      "target": 34963
    },
    {
      "buffer": 0,
      "byteLength": 3904,
      "byteOffset": 45844,
      "byteStride": 32,
      "name": "slice_Material0",
      "target": 34962
    },
    {
      "buffer": 0,
      "byteLength": 300,
      "byteOffset": 49748,
      "target": 34963
    },
    {
      "buffer": 0,
      "byteLength": 384,
      "byteOffset": 50048,
      "byteStride": 32,
      "name": "slice_Material0",
      "target": 34962
    },
    {
      "buffer": 0,
      "byteLength": 36,
      "byteOffset": 50432,
      "target": 34963
    },
    {
      "buffer": 0,
      "byteLength": 384,
      "byteOffset": 50468,
      "byteStride": 32,
      "name": "slice_Material0",
      "target": 34962
    },
    {
      "buffer": 0,
      "byteLength": 36,
      "byteOffset": 50852,
      "target": 34963
    },
    {
      "buffer": 0,
      "byteLength": 2560,
      "byteOffset": 50888,
      "byteStride": 32,
      "name": "slice_Material0",
      "target": 34962
    },
    {
      "buffer": 0,
      "byteLength": 264,
      "byteOffset": 53448,
      "target": 34963
    },
    {
      "buffer": 0,
      "byteLength": 896,
      "byteOffset": 53712,
      "byteStride": 32,
      "name": "slice_Material0",
      "target": 34962
    },
    {
      "buffer": 0,
      "byteLength": 96,
      "byteOffset": 54608,
      "target": 34963
    },
    {
      "buffer": 0,
      "byteLength": 1952,
      "byteOffset": 54704,
      "byteStride": 32,
      "name": "slice_Material0",
      "target": 34962
    },
    {
      "buffer": 0,
      "byteLength": 222,
      "byteOffset": 56656,
      "target": 34963
    },
    {
      "buffer": 0,
      "byteLength": 2016,
      "byteOffset": 56878,
      "byteStride": 32,
      "name": "slice_Material0",
      "target": 34962
    },
    {
      "buffer": 0,
      "byteLength": 378,
      "byteOffset": 58894,
      "target": 34963
    },
    {
      "buffer": 0,
      "byteLength": 3904,
      "byteOffset": 59272,
      "byteStride": 32,
      "name": "slice_Material0",
      "target": 34962
    },
    {
      "buffer": 0,
      "byteLength": 300,
      "byteOffset": 63176,
      "target": 34963
    },
    {
      "buffer": 0,
      "byteLength": 384,
      "byteOffset": 63476,
      "byteStride": 32,
      "name": "slice_Material0",
      "target": 34962
    },
    {
      "buffer": 0,
      "byteLength": 36,
      "byteOffset": 63860,
      "target": 34963
    },
    {
      "buffer": 0,
      "byteLength": 384,
      "byteOffset": 63896,
      "byteStride": 32,
      "name": "slice_Material0",
      "target": 34962
    },
    {
      "buffer": 0,
      "byteLength": 36,
      "byteOffset": 64280,
      "target": 34963
    },
    {
      "buffer": 0,
      "byteLength": 2560,
      "byteOffset": 64316,
      "byteStride": 32,
      "name": "slice_Material0",
      "target": 34962
    },
    {
      "buffer": 0,
      "byteLength": 264,
      "byteOffset": 66876,
      "target": 34963
    },
    {
      "buffer": 0,
      "byteLength": 896,
      "byteOffset": 67140,
      "byteStride": 32,
      "name": "slice_Material0",
      "target": 34962
    },
    {
      "buffer": 0,
      "byteLength": 96,
      "byteOffset": 68036,
      "target": 34963
    },
    {
      "buffer": 0,
      "byteLength": 1952,
      "byteOffset": 68132,
      "byteStride": 32,
      "name": "slice_Material0",
      "target": 34962
    },
    {
      "buffer": 0,
      "byteLength": 222,
      "byteOffset": 70084,
      "target": 34963
    },
    {
      "buffer": 0,
      "byteLength": 2016,
      "byteOffset": 70306,
      "byteStride": 32,
      "name": "slice_Material0",
      "target": 34962
    },
    {
      "buffer": 0,
      "byteLength": 378,
      "byteOffset": 72322,
      "target": 34963
    },
    {
      "buffer": 0,
      "byteLength": 3904,
      "byteOffset": 72700,
      "byteStride": 32,
      "name": "slice_Material0",
      "target": 34962
    },
    {
      "buffer": 0,
      "byteLength": 300,
      "byteOffset": 76604,
      "target": 34963
    },
    {
      "buffer": 0,
      "byteLength": 384,
      "byteOffset": 76904,
      "byteStride": 32,
      "name": "slice_Material0",
      "target": 34962
    },
    {
      "buffer": 0,
      "byteLength": 36,
      "byteOffset": 77288,
      "target": 34963
    },
    {
      "buffer": 0,
      "byteLength": 384,
      "byteOffset": 77324,
      "byteStride": 32,
      "name": "slice_Material0",
      "target": 34962
    },
    {
      "buffer": 0,
      "byteLength": 36,
      "byteOffset": 77708,
      "target": 34963
    },
    {
      "buffer": 0,
      "byteLength": 2560,
      "byteOffset": 77744,
      "byteStride": 32,
      "name": "slice_Material0",
      "target": 34962
    },
    {
      "buffer": 0,
      "byteLength": 264,
      "byteOffset": 80304,
      "target": 34963
    }
  ],
  "buffers": [
    {
      "byteLength": 80568,
      "uri": "out.bin"
    }
  ],
  "extras": {
    "FBX-glTF-conv": {
      "animationFrameRate": 24.0,
      "fbxFileHeaderInfo": {
        "creationTimeStamp": {
          "day": 2,
          "hour": 17,
          "millisecond": 248,
          "minute": 34,
          "month": 6,
          "second": 25,
          "year": 2022
        },
        "creator": "Model created by Kenney (www.kenney.nl)",
        "sceneInfo": {
          "author": "",
          "comment": "",
          "keywords": "",
          "original": {
            "applicationName": "",
            "applicationVendor": "",
            "applicationVersion": "",
            "fileName": ""
          },
          "revision": "",
          "subject": "",
          "title": "",
          "url": "C:\\coin-pusher\\cocos\\coin-pusher-cocos\\assets\\3D食品和厨具套件\\3D食品和厨房\\FBX format\\cakeBirthday.fbx"
        }
      }
    }
  },
  "materials": [
    {
      "extras": {
        "FBX-glTF-conv": {
          "raw": {
            "properties": {
              "ambient": {
                "value": [
                  0.2,
                  0.2,
                  0.2
                ]
              },
              "ambientFactor": {
                "value": 1.0
              },
              "bump": {
                "value": [
                  0.0,
                  0.0,
                  0.0
                ]
              },
              "bumpFactor": {
                "value": 1.0
              },
              "diffuse": {
                "value": [
                  0.2588235,
                  0.1607843,
                  0.1372549
                ]
              },
              "diffuseFactor": {
                "value": 1.0
              },
              "displacementColor": {
                "value": [
                  0.0,
                  0.0,
                  0.0
                ]
              },
              "displacementFactor": {
                "value": 1.0
              },
              "emissive": {
                "value": [
                  0.0,
                  0.0,
                  0.0
                ]
              },
              "emissiveFactor": {
                "value": 1.0
              },
              "normalMap": {
                "value": [
                  0.0,
                  0.0,
                  0.0
                ]
              },
              "reflection": {
                "value": [
                  0.0,
                  0.0,
                  0.0
                ]
              },
              "reflectionFactor": {
                "value": 1.0
              },
              "shadingModel": "Phong",
              "shininess": {
                "value": 20.0
              },
              "specular": {
                "value": [
                  0.2,
                  0.2,
                  0.2
                ]
              },
              "specularFactor": {
                "value": 1.0
              },
              "transparencyFactor": {
                "value": 0.0
              },
              "transparentColor": {
                "value": [
                  0.0,
                  0.0,
                  0.0
                ]
              },
              "vectorDisplacementColor": {
                "value": [
                  0.0,
                  0.0,
                  0.0
                ]
              },
              "vectorDisplacementFactor": {
                "value": 1.0
              }
            },
            "type": "phong"
          }
        }
      },
      "name": "brownDarkest"
    },
    {
      "extras": {
        "FBX-glTF-conv": {
          "raw": {
            "properties": {
              "ambient": {
                "value": [
                  0.2,
                  0.2,
                  0.2
                ]
              },
              "ambientFactor": {
                "value": 1.0
              },
              "bump": {
                "value": [
                  0.0,
                  0.0,
                  0.0
                ]
              },
              "bumpFactor": {
                "value": 1.0
              },
              "diffuse": {
                "value": [
                  0.7924528,
                  0.4986147,
                  0.3700604
                ]
              },
              "diffuseFactor": {
                "value": 1.0
              },
              "displacementColor": {
                "value": [
                  0.0,
                  0.0,
                  0.0
                ]
              },
              "displacementFactor": {
                "value": 1.0
              },
              "emissive": {
                "value": [
                  0.0,
                  0.0,
                  0.0
                ]
              },
              "emissiveFactor": {
                "value": 1.0
              },
              "normalMap": {
                "value": [
                  0.0,
                  0.0,
                  0.0
                ]
              },
              "reflection": {
                "value": [
                  0.0,
                  0.0,
                  0.0
                ]
              },
              "reflectionFactor": {
                "value": 1.0
              },
              "shadingModel": "Phong",
              "shininess": {
                "value": 20.0
              },
              "specular": {
                "value": [
                  0.2,
                  0.2,
                  0.2
                ]
              },
              "specularFactor": {
                "value": 1.0
              },
              "transparencyFactor": {
                "value": 0.0
              },
              "transparentColor": {
                "value": [
                  0.0,
                  0.0,
                  0.0
                ]
              },
              "vectorDisplacementColor": {
                "value": [
                  0.0,
                  0.0,
                  0.0
                ]
              },
              "vectorDisplacementFactor": {
                "value": 1.0
              }
            },
            "type": "phong"
          }
        }
      },
      "name": "brownDark"
    },
    {
      "extras": {
        "FBX-glTF-conv": {
          "raw": {
            "properties": {
              "ambient": {
                "value": [
                  0.2,
                  0.2,
                  0.2
                ]
              },
              "ambientFactor": {
                "value": 1.0
              },
              "bump": {
                "value": [
                  0.0,
                  0.0,
                  0.0
                ]
              },
              "bumpFactor": {
                "value": 1.0
              },
              "diffuse": {
                "value": [
                  1.0,
                  0.6650944,
                  0.8969522
                ]
              },
              "diffuseFactor": {
                "value": 1.0
              },
              "displacementColor": {
                "value": [
                  0.0,
                  0.0,
                  0.0
                ]
              },
              "displacementFactor": {
                "value": 1.0
              },
              "emissive": {
                "value": [
                  0.0,
                  0.0,
                  0.0
                ]
              },
              "emissiveFactor": {
                "value": 1.0
              },
              "normalMap": {
                "value": [
                  0.0,
                  0.0,
                  0.0
                ]
              },
              "reflection": {
                "value": [
                  0.0,
                  0.0,
                  0.0
                ]
              },
              "reflectionFactor": {
                "value": 1.0
              },
              "shadingModel": "Phong",
              "shininess": {
                "value": 20.0
              },
              "specular": {
                "value": [
                  0.2,
                  0.2,
                  0.2
                ]
              },
              "specularFactor": {
                "value": 1.0
              },
              "transparencyFactor": {
                "value": 0.0
              },
              "transparentColor": {
                "value": [
                  0.0,
                  0.0,
                  0.0
                ]
              },
              "vectorDisplacementColor": {
                "value": [
                  0.0,
                  0.0,
                  0.0
                ]
              },
              "vectorDisplacementFactor": {
                "value": 1.0
              }
            },
            "type": "phong"
          }
        }
      },
      "name": "purpleLight"
    },
    {
      "extras": {
        "FBX-glTF-conv": {
          "raw": {
            "properties": {
              "ambient": {
                "value": [
                  0.2,
                  0.2,
                  0.2
                ]
              },
              "ambientFactor": {
                "value": 1.0
              },
              "bump": {
                "value": [
                  0.0,
                  0.0,
                  0.0
                ]
              },
              "bumpFactor": {
                "value": 1.0
              },
              "diffuse": {
                "value": [
                  1.0,
                  1.0,
                  1.0
                ]
              },
              "diffuseFactor": {
                "value": 1.0
              },
              "displacementColor": {
                "value": [
                  0.0,
                  0.0,
                  0.0
                ]
              },
              "displacementFactor": {
                "value": 1.0
              },
              "emissive": {
                "value": [
                  0.0,
                  0.0,
                  0.0
                ]
              },
              "emissiveFactor": {
                "value": 1.0
              },
              "normalMap": {
                "value": [
                  0.0,
                  0.0,
                  0.0
                ]
              },
              "reflection": {
                "value": [
                  0.0,
                  0.0,
                  0.0
                ]
              },
              "reflectionFactor": {
                "value": 1.0
              },
              "shadingModel": "Phong",
              "shininess": {
                "value": 20.0
              },
              "specular": {
                "value": [
                  0.2,
                  0.2,
                  0.2
                ]
              },
              "specularFactor": {
                "value": 1.0
              },
              "transparencyFactor": {
                "value": 0.0
              },
              "transparentColor": {
                "value": [
                  0.0,
                  0.0,
                  0.0
                ]
              },
              "vectorDisplacementColor": {
                "value": [
                  0.0,
                  0.0,
                  0.0
                ]
              },
              "vectorDisplacementFactor": {
                "value": 1.0
              }
            },
            "type": "phong"
          }
        }
      },
      "name": "_defaultMat"
    },
    {
      "extras": {
        "FBX-glTF-conv": {
          "raw": {
            "properties": {
              "ambient": {
                "value": [
                  0.2,
                  0.2,
                  0.2
                ]
              },
              "ambientFactor": {
                "value": 1.0
              },
              "bump": {
                "value": [
                  0.0,
                  0.0,
                  0.0
                ]
              },
              "bumpFactor": {
                "value": 1.0
              },
              "diffuse": {
                "value": [
                  0.9098039,
                  0.3333333,
                  0.3254901
                ]
              },
              "diffuseFactor": {
                "value": 1.0
              },
              "displacementColor": {
                "value": [
                  0.0,
                  0.0,
                  0.0
                ]
              },
              "displacementFactor": {
                "value": 1.0
              },
              "emissive": {
                "value": [
                  0.0,
                  0.0,
                  0.0
                ]
              },
              "emissiveFactor": {
                "value": 1.0
              },
              "normalMap": {
                "value": [
                  0.0,
                  0.0,
                  0.0
                ]
              },
              "reflection": {
                "value": [
                  0.0,
                  0.0,
                  0.0
                ]
              },
              "reflectionFactor": {
                "value": 1.0
              },
              "shadingModel": "Phong",
              "shininess": {
                "value": 20.0
              },
              "specular": {
                "value": [
                  0.2,
                  0.2,
                  0.2
                ]
              },
              "specularFactor": {
                "value": 1.0
              },
              "transparencyFactor": {
                "value": 0.0
              },
              "transparentColor": {
                "value": [
                  0.0,
                  0.0,
                  0.0
                ]
              },
              "vectorDisplacementColor": {
                "value": [
                  0.0,
                  0.0,
                  0.0
                ]
              },
              "vectorDisplacementFactor": {
                "value": 1.0
              }
            },
            "type": "phong"
          }
        }
      },
      "name": "red"
    },
    {
      "extras": {
        "FBX-glTF-conv": {
          "raw": {
            "properties": {
              "ambient": {
                "value": [
                  0.2,
                  0.2,
                  0.2
                ]
              },
              "ambientFactor": {
                "value": 1.0
              },
              "bump": {
                "value": [
                  0.0,
                  0.0,
                  0.0
                ]
              },
              "bumpFactor": {
                "value": 1.0
              },
              "diffuse": {
                "value": [
                  0.6235294,
                  0.5568628,
                  0.9098039
                ]
              },
              "diffuseFactor": {
                "value": 1.0
              },
              "displacementColor": {
                "value": [
                  0.0,
                  0.0,
                  0.0
                ]
              },
              "displacementFactor": {
                "value": 1.0
              },
              "emissive": {
                "value": [
                  0.0,
                  0.0,
                  0.0
                ]
              },
              "emissiveFactor": {
                "value": 1.0
              },
              "normalMap": {
                "value": [
                  0.0,
                  0.0,
                  0.0
                ]
              },
              "reflection": {
                "value": [
                  0.0,
                  0.0,
                  0.0
                ]
              },
              "reflectionFactor": {
                "value": 1.0
              },
              "shadingModel": "Phong",
              "shininess": {
                "value": 20.0
              },
              "specular": {
                "value": [
                  0.2,
                  0.2,
                  0.2
                ]
              },
              "specularFactor": {
                "value": 1.0
              },
              "transparencyFactor": {
                "value": 0.0
              },
              "transparentColor": {
                "value": [
                  0.0,
                  0.0,
                  0.0
                ]
              },
              "vectorDisplacementColor": {
                "value": [
                  0.0,
                  0.0,
                  0.0
                ]
              },
              "vectorDisplacementFactor": {
                "value": 1.0
              }
            },
            "type": "phong"
          }
        }
      },
      "name": "purple"
    },
    {
      "extras": {
        "FBX-glTF-conv": {
          "raw": {
            "properties": {
              "ambient": {
                "value": [
                  0.2,
                  0.2,
                  0.2
                ]
              },
              "ambientFactor": {
                "value": 1.0
              },
              "bump": {
                "value": [
                  0.0,
                  0.0,
                  0.0
                ]
              },
              "bumpFactor": {
                "value": 1.0
              },
              "diffuse": {
                "value": [
                  1.0,
                  0.7982377,
                  0.3632075
                ]
              },
              "diffuseFactor": {
                "value": 1.0
              },
              "displacementColor": {
                "value": [
                  0.0,
                  0.0,
                  0.0
                ]
              },
              "displacementFactor": {
                "value": 1.0
              },
              "emissive": {
                "value": [
                  0.0,
                  0.0,
                  0.0
                ]
              },
              "emissiveFactor": {
                "value": 1.0
              },
              "normalMap": {
                "value": [
                  0.0,
                  0.0,
                  0.0
                ]
              },
              "reflection": {
                "value": [
                  0.0,
                  0.0,
                  0.0
                ]
              },
              "reflectionFactor": {
                "value": 1.0
              },
              "shadingModel": "Phong",
              "shininess": {
                "value": 20.0
              },
              "specular": {
                "value": [
                  0.2,
                  0.2,
                  0.2
                ]
              },
              "specularFactor": {
                "value": 1.0
              },
              "transparencyFactor": {
                "value": 0.0
              },
              "transparentColor": {
                "value": [
                  0.0,
                  0.0,
                  0.0
                ]
              },
              "vectorDisplacementColor": {
                "value": [
                  0.0,
                  0.0,
                  0.0
                ]
              },
              "vectorDisplacementFactor": {
                "value": 1.0
              }
            },
            "type": "phong"
          }
        }
      },
      "name": "yellow"
    }
  ],
  "meshes": [
    {
      "name": "slice_Material0",
      "primitives": [
        {
          "attributes": {
            "NORMAL": 1,
            "POSITION": 0,
            "TEXCOORD_0": 2
          },
          "indices": 3,
          "material": 0
        },
        {
          "attributes": {
            "NORMAL": 5,
            "POSITION": 4,
            "TEXCOORD_0": 6
          },
          "indices": 7,
          "material": 1
        },
        {
          "attributes": {
            "NORMAL": 9,
            "POSITION": 8,
            "TEXCOORD_0": 10
          },
          "indices": 11,
          "material": 2
        },
        {
          "attributes": {
            "NORMAL": 13,
            "POSITION": 12,
            "TEXCOORD_0": 14
          },
          "indices": 15,
          "material": 3
        },
        {
          "attributes": {
            "NORMAL": 17,
            "POSITION": 16,
            "TEXCOORD_0": 18
          },
          "indices": 19,
          "material": 4
        },
        {
          "attributes": {
            "NORMAL": 21,
            "POSITION": 20,
            "TEXCOORD_0": 22
          },
          "indices": 23,
          "material": 5
        },
        {
          "attributes": {
            "NORMAL": 25,
            "POSITION": 24,
            "TEXCOORD_0": 26
          },
          "indices": 27,
          "material": 6
        }
      ]
    },
    {
      "name": "slice_Material0",
      "primitives": [
        {
          "attributes": {
            "NORMAL": 29,
            "POSITION": 28,
            "TEXCOORD_0": 30
          },
          "indices": 31,
          "material": 0
        },
        {
          "attributes": {
            "NORMAL": 33,
            "POSITION": 32,
            "TEXCOORD_0": 34
          },
          "indices": 35,
          "material": 1
        },
        {
          "attributes": {
            "NORMAL": 37,
            "POSITION": 36,
            "TEXCOORD_0": 38
          },
          "indices": 39,
          "material": 2
        },
        {
          "attributes": {
            "NORMAL": 41,
            "POSITION": 40,
            "TEXCOORD_0": 42
          },
          "indices": 43,
          "material": 3
        },
        {
          "attributes": {
            "NORMAL": 45,
            "POSITION": 44,
            "TEXCOORD_0": 46
          },
          "indices": 47,
          "material": 4
        },
        {
          "attributes": {
            "NORMAL": 49,
            "POSITION": 48,
            "TEXCOORD_0": 50
          },
          "indices": 51,
          "material": 5
        },
        {
          "attributes": {
            "NORMAL": 53,
            "POSITION": 52,
            "TEXCOORD_0": 54
          },
          "indices": 55,
          "material": 6
        }
      ]
    },
    {
      "name": "slice_Material0",
      "primitives": [
        {
          "attributes": {
            "NORMAL": 57,
            "POSITION": 56,
            "TEXCOORD_0": 58
          },
          "indices": 59,
          "material": 0
        },
        {
          "attributes": {
            "NORMAL": 61,
            "POSITION": 60,
            "TEXCOORD_0": 62
          },
          "indices": 63,
          "material": 1
        },
        {
          "attributes": {
            "NORMAL": 65,
            "POSITION": 64,
            "TEXCOORD_0": 66
          },
          "indices": 67,
          "material": 2
        },
        {
          "attributes": {
            "NORMAL": 69,
            "POSITION": 68,
            "TEXCOORD_0": 70
          },
          "indices": 71,
          "material": 3
        },
        {
          "attributes": {
            "NORMAL": 73,
            "POSITION": 72,
            "TEXCOORD_0": 74
          },
          "indices": 75,
          "material": 4
        },
        {
          "attributes": {
            "NORMAL": 77,
            "POSITION": 76,
            "TEXCOORD_0": 78
          },
          "indices": 79,
          "material": 5
        },
        {
          "attributes": {
            "NORMAL": 81,
            "POSITION": 80,
            "TEXCOORD_0": 82
          },
          "indices": 83,
          "material": 6
        }
      ]
    },
    {
      "name": "slice_Material0",
      "primitives": [
        {
          "attributes": {
            "NORMAL": 85,
            "POSITION": 84,
            "TEXCOORD_0": 86
          },
          "indices": 87,
          "material": 0
        },
        {
          "attributes": {
            "NORMAL": 89,
            "POSITION": 88,
            "TEXCOORD_0": 90
          },
          "indices": 91,
          "material": 1
        },
        {
          "attributes": {
            "NORMAL": 93,
            "POSITION": 92,
            "TEXCOORD_0": 94
          },
          "indices": 95,
          "material": 2
        },
        {
          "attributes": {
            "NORMAL": 97,
            "POSITION": 96,
            "TEXCOORD_0": 98
          },
          "indices": 99,
          "material": 3
        },
        {
          "attributes": {
            "NORMAL": 101,
            "POSITION": 100,
            "TEXCOORD_0": 102
          },
          "indices": 103,
          "material": 4
        },
        {
          "attributes": {
            "NORMAL": 105,
            "POSITION": 104,
            "TEXCOORD_0": 106
          },
          "indices": 107,
          "material": 5
        },
        {
          "attributes": {
            "NORMAL": 109,
            "POSITION": 108,
            "TEXCOORD_0": 110
          },
          "indices": 111,
          "material": 6
        }
      ]
    },
    {
      "name": "slice_Material0",
      "primitives": [
        {
          "attributes": {
            "NORMAL": 113,
            "POSITION": 112,
            "TEXCOORD_0": 114
          },
          "indices": 115,
          "material": 0
        },
        {
          "attributes": {
            "NORMAL": 117,
            "POSITION": 116,
            "TEXCOORD_0": 118
          },
          "indices": 119,
          "material": 1
        },
        {
          "attributes": {
            "NORMAL": 121,
            "POSITION": 120,
            "TEXCOORD_0": 122
          },
          "indices": 123,
          "material": 2
        },
        {
          "attributes": {
            "NORMAL": 125,
            "POSITION": 124,
            "TEXCOORD_0": 126
          },
          "indices": 127,
          "material": 3
        },
        {
          "attributes": {
            "NORMAL": 129,
            "POSITION": 128,
            "TEXCOORD_0": 130
          },
          "indices": 131,
          "material": 4
        },
        {
          "attributes": {
            "NORMAL": 133,
            "POSITION": 132,
            "TEXCOORD_0": 134
          },
          "indices": 135,
          "material": 5
        },
        {
          "attributes": {
            "NORMAL": 137,
            "POSITION": 136,
            "TEXCOORD_0": 138
          },
          "indices": 139,
          "material": 6
        }
      ]
    },
    {
      "name": "slice_Material0",
      "primitives": [
        {
          "attributes": {
            "NORMAL": 141,
            "POSITION": 140,
            "TEXCOORD_0": 142
          },
          "indices": 143,
          "material": 0
        },
        {
          "attributes": {
            "NORMAL": 145,
            "POSITION": 144,
            "TEXCOORD_0": 146
          },
          "indices": 147,
          "material": 1
        },
        {
          "attributes": {
            "NORMAL": 149,
            "POSITION": 148,
            "TEXCOORD_0": 150
          },
          "indices": 151,
          "material": 2
        },
        {
          "attributes": {
            "NORMAL": 153,
            "POSITION": 152,
            "TEXCOORD_0": 154
          },
          "indices": 155,
          "material": 3
        },
        {
          "attributes": {
            "NORMAL": 157,
            "POSITION": 156,
            "TEXCOORD_0": 158
          },
          "indices": 159,
          "material": 4
        },
        {
          "attributes": {
            "NORMAL": 161,
            "POSITION": 160,
            "TEXCOORD_0": 162
          },
          "indices": 163,
          "material": 5
        },
        {
          "attributes": {
            "NORMAL": 165,
            "POSITION": 164,
            "TEXCOORD_0": 166
          },
          "indices": 167,
          "material": 6
        }
      ]
    }
  ],
  "nodes": [
    {
      "children": [
        1,
        2,
        3,
        4,
        5,
        6
      ],
      "name": "cakeBirthday"
    },
    {
      "mesh": 0,
      "name": "slice",
      "translation": [
        0.27678170800209045,
        0.0,
        6.497203067847316e-15
      ]
    },
    {
      "mesh": 1,
      "name": "slice",
      "rotation": [
        0.0,
        0.5,
        0.0,
        0.8660253882408142
      ],
      "translation": [
        0.1383908987045288,
        0.0,
        -0.23970000445842743
      ]
    },
    {
      "mesh": 2,
      "name": "slice",
      "rotation": [
        2.2412592700383518e-17,
        0.8660253882408142,
        2.2412592700383518e-17,
        0.5
      ],
      "translation": [
        -0.1383908987045288,
        0.0,
        -0.23970000445842743
      ]
    },
    {
      "mesh": 3,
      "name": "slice",
      "rotation": [
        6.123234262925839e-17,
        1.0,
        6.123234262925839e-17,
        -6.123234262925839e-17
      ],
      "translation": [
        -0.27678170800209045,
        0.0,
        2.0357900207181728e-13
      ]
    },
    {
      "mesh": 4,
      "name": "slice",
      "rotation": [
        -8.364493367528069e-17,
        -0.8660253882408142,
        -8.364493367528069e-17,
        0.5
      ],
      "translation": [
        -0.1383908987045288,
        0.0,
        0.23970000445842743
      ]
    },
    {
      "mesh": 5,
      "name": "slice",
      "rotation": [
        0.0,
        -0.5,
        0.0,
        0.8660253882408142
      ],
      "translation": [
        0.1383908987045288,
        0.0,
        0.23970000445842743
      ]
    }
  ],
  "scenes": [
    {
      "nodes": [
        0
      ]
    }
  ]
}