{
  "accessors": [
    {
      "bufferView": 0,
      "componentType": 5126,
      "count": 55,
      "max": [
        0.6100000143051147,
        0.05000000074505806,
        0.4313352108001709
      ],
      "min": [
        -3.609557054039112e-16,
        0.0,
        -6.041229183573193e-10
      ],
      "name": "slice1_Material0/POSITION",
      "type": "VEC3"
    },
    {
      "bufferView": 0,
      "byteOffset": 12,
      "componentType": 5126,
      "count": 55,
      "name": "slice1_Material0/NORMAL",
      "type": "VEC3"
    },
    {
      "bufferView": 0,
      "byteOffset": 24,
      "componentType": 5126,
      "count": 55,
      "name": "slice1_Material0/TEXCOORD_0",
      "type": "VEC2"
    },
    {
      "bufferView": 1,
      "componentType": 5123,
      "count": 105,
      "name": "slice1_Material0/INDICES",
      "type": "SCALAR"
    },
    {
      "bufferView": 2,
      "componentType": 5126,
      "count": 72,
      "max": [
        0.48371830582618713,
        0.029999999329447746,
        0.34204038977622986
      ],
      "min": [
        -3.609557054039112e-16,
        0.014999999664723873,
        2.0564510094800426e-09
      ],
      "name": "slice1_Material0/POSITION",
      "type": "VEC3"
    },
    {
      "bufferView": 2,
      "byteOffset": 12,
      "componentType": 5126,
      "count": 72,
      "name": "slice1_Material0/NORMAL",
      "type": "VEC3"
    },
    {
      "bufferView": 2,
      "byteOffset": 24,
      "componentType": 5126,
      "count": 72,
      "name": "slice1_Material0/TEXCOORD_0",
      "type": "VEC2"
    },
    {
      "bufferView": 3,
      "componentType": 5123,
      "count": 228,
      "name": "slice1_Material0/INDICES",
      "type": "SCALAR"
    },
    {
      "bufferView": 4,
      "componentType": 5126,
      "count": 32,
      "max": [
        0.44290679693222046,
        0.029999999329447746,
        0.14540010690689087
      ],
      "min": [
        0.16920170187950134,
        0.029999999329447746,
        0.029876569285988808
      ],
      "name": "slice1_Material0/POSITION",
      "type": "VEC3"
    },
    {
      "bufferView": 4,
      "byteOffset": 12,
      "componentType": 5126,
      "count": 32,
      "name": "slice1_Material0/NORMAL",
      "type": "VEC3"
    },
    {
      "bufferView": 4,
      "byteOffset": 24,
      "componentType": 5126,
      "count": 32,
      "name": "slice1_Material0/TEXCOORD_0",
      "type": "VEC2"
    },
    {
      "bufferView": 5,
      "componentType": 5123,
      "count": 96,
      "name": "slice1_Material0/INDICES",
      "type": "SCALAR"
    },
    {
      "bufferView": 6,
      "componentType": 5126,
      "count": 79,
      "max": [
        0.5214381814002991,
        0.03999999910593033,
        0.36871251463890076
      ],
      "min": [
        0.27732521295547485,
        0.014999999664723873,
        1.2617450417806708e-09
      ],
      "name": "slice1_Material0/POSITION",
      "type": "VEC3"
    },
    {
      "bufferView": 6,
      "byteOffset": 12,
      "componentType": 5126,
      "count": 79,
      "name": "slice1_Material0/NORMAL",
      "type": "VEC3"
    },
    {
      "bufferView": 6,
      "byteOffset": 24,
      "componentType": 5126,
      "count": 79,
      "name": "slice1_Material0/TEXCOORD_0",
      "type": "VEC2"
    },
    {
      "bufferView": 7,
      "componentType": 5123,
      "count": 135,
      "name": "slice1_Material0/INDICES",
      "type": "SCALAR"
    },
    {
      "bufferView": 8,
      "componentType": 5126,
      "count": 12,
      "max": [
        0.4247516989707947,
        0.029999999329447746,
        0.1814740002155304
      ],
      "min": [
        0.10319919884204865,
        0.029999999329447746,
        0.022693390026688576
      ],
      "name": "slice1_Material0/POSITION",
      "type": "VEC3"
    },
    {
      "bufferView": 8,
      "byteOffset": 12,
      "componentType": 5126,
      "count": 12,
      "name": "slice1_Material0/NORMAL",
      "type": "VEC3"
    },
    {
      "bufferView": 8,
      "byteOffset": 24,
      "componentType": 5126,
      "count": 12,
      "name": "slice1_Material0/TEXCOORD_0",
      "type": "VEC2"
    },
    {
      "bufferView": 9,
      "componentType": 5123,
      "count": 18,
      "name": "slice1_Material0/INDICES",
      "type": "SCALAR"
    },
    {
      "bufferView": 10,
      "componentType": 5126,
      "count": 55,
      "max": [
        0.6100000143051147,
        0.05000000074505806,
        0.4313352108001709
      ],
      "min": [
        -3.609557054039112e-16,
        0.0,
        -6.041229183573193e-10
      ],
      "name": "slice2_Material0/POSITION",
      "type": "VEC3"
    },
    {
      "bufferView": 10,
      "byteOffset": 12,
      "componentType": 5126,
      "count": 55,
      "name": "slice2_Material0/NORMAL",
      "type": "VEC3"
    },
    {
      "bufferView": 10,
      "byteOffset": 24,
      "componentType": 5126,
      "count": 55,
      "name": "slice2_Material0/TEXCOORD_0",
      "type": "VEC2"
    },
    {
      "bufferView": 11,
      "componentType": 5123,
      "count": 105,
      "name": "slice2_Material0/INDICES",
      "type": "SCALAR"
    },
    {
      "bufferView": 12,
      "componentType": 5126,
      "count": 72,
      "max": [
        0.48371830582618713,
        0.029999999329447746,
        0.34204038977622986
      ],
      "min": [
        -3.609557054039112e-16,
        0.014999999664723873,
        2.0564510094800426e-09
      ],
      "name": "slice2_Material0/POSITION",
      "type": "VEC3"
    },
    {
      "bufferView": 12,
      "byteOffset": 12,
      "componentType": 5126,
      "count": 72,
      "name": "slice2_Material0/NORMAL",
      "type": "VEC3"
    },
    {
      "bufferView": 12,
      "byteOffset": 24,
      "componentType": 5126,
      "count": 72,
      "name": "slice2_Material0/TEXCOORD_0",
      "type": "VEC2"
    },
    {
      "bufferView": 13,
      "componentType": 5123,
      "count": 228,
      "name": "slice2_Material0/INDICES",
      "type": "SCALAR"
    },
    {
      "bufferView": 14,
      "componentType": 5126,
      "count": 32,
      "max": [
        0.44290679693222046,
        0.029999999329447746,
        0.14540010690689087
      ],
      "min": [
        0.16920170187950134,
        0.029999999329447746,
        0.029876569285988808
      ],
      "name": "slice2_Material0/POSITION",
      "type": "VEC3"
    },
    {
      "bufferView": 14,
      "byteOffset": 12,
      "componentType": 5126,
      "count": 32,
      "name": "slice2_Material0/NORMAL",
      "type": "VEC3"
    },
    {
      "bufferView": 14,
      "byteOffset": 24,
      "componentType": 5126,
      "count": 32,
      "name": "slice2_Material0/TEXCOORD_0",
      "type": "VEC2"
    },
    {
      "bufferView": 15,
      "componentType": 5123,
      "count": 96,
      "name": "slice2_Material0/INDICES",
      "type": "SCALAR"
    },
    {
      "bufferView": 16,
      "componentType": 5126,
      "count": 79,
      "max": [
        0.5214381814002991,
        0.03999999910593033,
        0.36871251463890076
      ],
      "min": [
        0.27732521295547485,
        0.014999999664723873,
        1.2617450417806708e-09
      ],
      "name": "slice2_Material0/POSITION",
      "type": "VEC3"
    },
    {
      "bufferView": 16,
      "byteOffset": 12,
      "componentType": 5126,
      "count": 79,
      "name": "slice2_Material0/NORMAL",
      "type": "VEC3"
    },
    {
      "bufferView": 16,
      "byteOffset": 24,
      "componentType": 5126,
      "count": 79,
      "name": "slice2_Material0/TEXCOORD_0",
      "type": "VEC2"
    },
    {
      "bufferView": 17,
      "componentType": 5123,
      "count": 135,
      "name": "slice2_Material0/INDICES",
      "type": "SCALAR"
    },
    {
      "bufferView": 18,
      "componentType": 5126,
      "count": 12,
      "max": [
        0.4247516989707947,
        0.029999999329447746,
        0.1814740002155304
      ],
      "min": [
        0.10319919884204865,
        0.029999999329447746,
        0.022693390026688576
      ],
      "name": "slice2_Material0/POSITION",
      "type": "VEC3"
    },
    {
      "bufferView": 18,
      "byteOffset": 12,
      "componentType": 5126,
      "count": 12,
      "name": "slice2_Material0/NORMAL",
      "type": "VEC3"
    },
    {
      "bufferView": 18,
      "byteOffset": 24,
      "componentType": 5126,
      "count": 12,
      "name": "slice2_Material0/TEXCOORD_0",
      "type": "VEC2"
    },
    {
      "bufferView": 19,
      "componentType": 5123,
      "count": 18,
      "name": "slice2_Material0/INDICES",
      "type": "SCALAR"
    },
    {
      "bufferView": 20,
      "componentType": 5126,
      "count": 55,
      "max": [
        0.6100000143051147,
        0.05000000074505806,
        0.4313352108001709
      ],
      "min": [
        -3.609557054039112e-16,
        0.0,
        -6.041229183573193e-10
      ],
      "name": "slice3_Material0/POSITION",
      "type": "VEC3"
    },
    {
      "bufferView": 20,
      "byteOffset": 12,
      "componentType": 5126,
      "count": 55,
      "name": "slice3_Material0/NORMAL",
      "type": "VEC3"
    },
    {
      "bufferView": 20,
      "byteOffset": 24,
      "componentType": 5126,
      "count": 55,
      "name": "slice3_Material0/TEXCOORD_0",
      "type": "VEC2"
    },
    {
      "bufferView": 21,
      "componentType": 5123,
      "count": 105,
      "name": "slice3_Material0/INDICES",
      "type": "SCALAR"
    },
    {
      "bufferView": 22,
      "componentType": 5126,
      "count": 72,
      "max": [
        0.48371830582618713,
        0.029999999329447746,
        0.34204038977622986
      ],
      "min": [
        -3.609557054039112e-16,
        0.014999999664723873,
        2.0564510094800426e-09
      ],
      "name": "slice3_Material0/POSITION",
      "type": "VEC3"
    },
    {
      "bufferView": 22,
      "byteOffset": 12,
      "componentType": 5126,
      "count": 72,
      "name": "slice3_Material0/NORMAL",
      "type": "VEC3"
    },
    {
      "bufferView": 22,
      "byteOffset": 24,
      "componentType": 5126,
      "count": 72,
      "name": "slice3_Material0/TEXCOORD_0",
      "type": "VEC2"
    },
    {
      "bufferView": 23,
      "componentType": 5123,
      "count": 228,
      "name": "slice3_Material0/INDICES",
      "type": "SCALAR"
    },
    {
      "bufferView": 24,
      "componentType": 5126,
      "count": 32,
      "max": [
        0.44290679693222046,
        0.029999999329447746,
        0.14540010690689087
      ],
      "min": [
        0.16920170187950134,
        0.029999999329447746,
        0.029876569285988808
      ],
      "name": "slice3_Material0/POSITION",
      "type": "VEC3"
    },
    {
      "bufferView": 24,
      "byteOffset": 12,
      "componentType": 5126,
      "count": 32,
      "name": "slice3_Material0/NORMAL",
      "type": "VEC3"
    },
    {
      "bufferView": 24,
      "byteOffset": 24,
      "componentType": 5126,
      "count": 32,
      "name": "slice3_Material0/TEXCOORD_0",
      "type": "VEC2"
    },
    {
      "bufferView": 25,
      "componentType": 5123,
      "count": 96,
      "name": "slice3_Material0/INDICES",
      "type": "SCALAR"
    },
    {
      "bufferView": 26,
      "componentType": 5126,
      "count": 79,
      "max": [
        0.5214381814002991,
        0.03999999910593033,
        0.36871251463890076
      ],
      "min": [
        0.27732521295547485,
        0.014999999664723873,
        1.2617450417806708e-09
      ],
      "name": "slice3_Material0/POSITION",
      "type": "VEC3"
    },
    {
      "bufferView": 26,
      "byteOffset": 12,
      "componentType": 5126,
      "count": 79,
      "name": "slice3_Material0/NORMAL",
      "type": "VEC3"
    },
    {
      "bufferView": 26,
      "byteOffset": 24,
      "componentType": 5126,
      "count": 79,
      "name": "slice3_Material0/TEXCOORD_0",
      "type": "VEC2"
    },
    {
      "bufferView": 27,
      "componentType": 5123,
      "count": 135,
      "name": "slice3_Material0/INDICES",
      "type": "SCALAR"
    },
    {
      "bufferView": 28,
      "componentType": 5126,
      "count": 12,
      "max": [
        0.4247516989707947,
        0.029999999329447746,
        0.1814740002155304
      ],
      "min": [
        0.10319919884204865,
        0.029999999329447746,
        0.022693390026688576
      ],
      "name": "slice3_Material0/POSITION",
      "type": "VEC3"
    },
    {
      "bufferView": 28,
      "byteOffset": 12,
      "componentType": 5126,
      "count": 12,
      "name": "slice3_Material0/NORMAL",
      "type": "VEC3"
    },
    {
      "bufferView": 28,
      "byteOffset": 24,
      "componentType": 5126,
      "count": 12,
      "name": "slice3_Material0/TEXCOORD_0",
      "type": "VEC2"
    },
    {
      "bufferView": 29,
      "componentType": 5123,
      "count": 18,
      "name": "slice3_Material0/INDICES",
      "type": "SCALAR"
    },
    {
      "bufferView": 30,
      "componentType": 5126,
      "count": 55,
      "max": [
        0.6100000143051147,
        0.05000000074505806,
        0.4313352108001709
      ],
      "min": [
        -3.609557054039112e-16,
        0.0,
        -6.041229183573193e-10
      ],
      "name": "slice4_Material0/POSITION",
      "type": "VEC3"
    },
    {
      "bufferView": 30,
      "byteOffset": 12,
      "componentType": 5126,
      "count": 55,
      "name": "slice4_Material0/NORMAL",
      "type": "VEC3"
    },
    {
      "bufferView": 30,
      "byteOffset": 24,
      "componentType": 5126,
      "count": 55,
      "name": "slice4_Material0/TEXCOORD_0",
      "type": "VEC2"
    },
    {
      "bufferView": 31,
      "componentType": 5123,
      "count": 105,
      "name": "slice4_Material0/INDICES",
      "type": "SCALAR"
    },
    {
      "bufferView": 32,
      "componentType": 5126,
      "count": 72,
      "max": [
        0.48371830582618713,
        0.029999999329447746,
        0.34204038977622986
      ],
      "min": [
        -3.609557054039112e-16,
        0.014999999664723873,
        2.0564510094800426e-09
      ],
      "name": "slice4_Material0/POSITION",
      "type": "VEC3"
    },
    {
      "bufferView": 32,
      "byteOffset": 12,
      "componentType": 5126,
      "count": 72,
      "name": "slice4_Material0/NORMAL",
      "type": "VEC3"
    },
    {
      "bufferView": 32,
      "byteOffset": 24,
      "componentType": 5126,
      "count": 72,
      "name": "slice4_Material0/TEXCOORD_0",
      "type": "VEC2"
    },
    {
      "bufferView": 33,
      "componentType": 5123,
      "count": 228,
      "name": "slice4_Material0/INDICES",
      "type": "SCALAR"
    },
    {
      "bufferView": 34,
      "componentType": 5126,
      "count": 32,
      "max": [
        0.44290679693222046,
        0.029999999329447746,
        0.14540010690689087
      ],
      "min": [
        0.16920170187950134,
        0.029999999329447746,
        0.029876569285988808
      ],
      "name": "slice4_Material0/POSITION",
      "type": "VEC3"
    },
    {
      "bufferView": 34,
      "byteOffset": 12,
      "componentType": 5126,
      "count": 32,
      "name": "slice4_Material0/NORMAL",
      "type": "VEC3"
    },
    {
      "bufferView": 34,
      "byteOffset": 24,
      "componentType": 5126,
      "count": 32,
      "name": "slice4_Material0/TEXCOORD_0",
      "type": "VEC2"
    },
    {
      "bufferView": 35,
      "componentType": 5123,
      "count": 96,
      "name": "slice4_Material0/INDICES",
      "type": "SCALAR"
    },
    {
      "bufferView": 36,
      "componentType": 5126,
      "count": 79,
      "max": [
        0.5214381814002991,
        0.03999999910593033,
        0.36871251463890076
      ],
      "min": [
        0.27732521295547485,
        0.014999999664723873,
        1.2617450417806708e-09
      ],
      "name": "slice4_Material0/POSITION",
      "type": "VEC3"
    },
    {
      "bufferView": 36,
      "byteOffset": 12,
      "componentType": 5126,
      "count": 79,
      "name": "slice4_Material0/NORMAL",
      "type": "VEC3"
    },
    {
      "bufferView": 36,
      "byteOffset": 24,
      "componentType": 5126,
      "count": 79,
      "name": "slice4_Material0/TEXCOORD_0",
      "type": "VEC2"
    },
    {
      "bufferView": 37,
      "componentType": 5123,
      "count": 135,
      "name": "slice4_Material0/INDICES",
      "type": "SCALAR"
    },
    {
      "bufferView": 38,
      "componentType": 5126,
      "count": 12,
      "max": [
        0.4247516989707947,
        0.029999999329447746,
        0.1814740002155304
      ],
      "min": [
        0.10319919884204865,
        0.029999999329447746,
        0.022693390026688576
      ],
      "name": "slice4_Material0/POSITION",
      "type": "VEC3"
    },
    {
      "bufferView": 38,
      "byteOffset": 12,
      "componentType": 5126,
      "count": 12,
      "name": "slice4_Material0/NORMAL",
      "type": "VEC3"
    },
    {
      "bufferView": 38,
      "byteOffset": 24,
      "componentType": 5126,
      "count": 12,
      "name": "slice4_Material0/TEXCOORD_0",
      "type": "VEC2"
    },
    {
      "bufferView": 39,
      "componentType": 5123,
      "count": 18,
      "name": "slice4_Material0/INDICES",
      "type": "SCALAR"
    },
    {
      "bufferView": 40,
      "componentType": 5126,
      "count": 55,
      "max": [
        0.6100000143051147,
        0.05000000074505806,
        0.4313352108001709
      ],
      "min": [
        -3.609557054039112e-16,
        0.0,
        -6.041229183573193e-10
      ],
      "name": "slice5_Material0/POSITION",
      "type": "VEC3"
    },
    {
      "bufferView": 40,
      "byteOffset": 12,
      "componentType": 5126,
      "count": 55,
      "name": "slice5_Material0/NORMAL",
      "type": "VEC3"
    },
    {
      "bufferView": 40,
      "byteOffset": 24,
      "componentType": 5126,
      "count": 55,
      "name": "slice5_Material0/TEXCOORD_0",
      "type": "VEC2"
    },
    {
      "bufferView": 41,
      "componentType": 5123,
      "count": 105,
      "name": "slice5_Material0/INDICES",
      "type": "SCALAR"
    },
    {
      "bufferView": 42,
      "componentType": 5126,
      "count": 72,
      "max": [
        0.48371830582618713,
        0.029999999329447746,
        0.34204038977622986
      ],
      "min": [
        -3.609557054039112e-16,
        0.014999999664723873,
        2.0564510094800426e-09
      ],
      "name": "slice5_Material0/POSITION",
      "type": "VEC3"
    },
    {
      "bufferView": 42,
      "byteOffset": 12,
      "componentType": 5126,
      "count": 72,
      "name": "slice5_Material0/NORMAL",
      "type": "VEC3"
    },
    {
      "bufferView": 42,
      "byteOffset": 24,
      "componentType": 5126,
      "count": 72,
      "name": "slice5_Material0/TEXCOORD_0",
      "type": "VEC2"
    },
    {
      "bufferView": 43,
      "componentType": 5123,
      "count": 228,
      "name": "slice5_Material0/INDICES",
      "type": "SCALAR"
    },
    {
      "bufferView": 44,
      "componentType": 5126,
      "count": 32,
      "max": [
        0.44290679693222046,
        0.029999999329447746,
        0.14540010690689087
      ],
      "min": [
        0.16920170187950134,
        0.029999999329447746,
        0.029876569285988808
      ],
      "name": "slice5_Material0/POSITION",
      "type": "VEC3"
    },
    {
      "bufferView": 44,
      "byteOffset": 12,
      "componentType": 5126,
      "count": 32,
      "name": "slice5_Material0/NORMAL",
      "type": "VEC3"
    },
    {
      "bufferView": 44,
      "byteOffset": 24,
      "componentType": 5126,
      "count": 32,
      "name": "slice5_Material0/TEXCOORD_0",
      "type": "VEC2"
    },
    {
      "bufferView": 45,
      "componentType": 5123,
      "count": 96,
      "name": "slice5_Material0/INDICES",
      "type": "SCALAR"
    },
    {
      "bufferView": 46,
      "componentType": 5126,
      "count": 79,
      "max": [
        0.5214381814002991,
        0.03999999910593033,
        0.36871251463890076
      ],
      "min": [
        0.27732521295547485,
        0.014999999664723873,
        1.2617450417806708e-09
      ],
      "name": "slice5_Material0/POSITION",
      "type": "VEC3"
    },
    {
      "bufferView": 46,
      "byteOffset": 12,
      "componentType": 5126,
      "count": 79,
      "name": "slice5_Material0/NORMAL",
      "type": "VEC3"
    },
    {
      "bufferView": 46,
      "byteOffset": 24,
      "componentType": 5126,
      "count": 79,
      "name": "slice5_Material0/TEXCOORD_0",
      "type": "VEC2"
    },
    {
      "bufferView": 47,
      "componentType": 5123,
      "count": 135,
      "name": "slice5_Material0/INDICES",
      "type": "SCALAR"
    },
    {
      "bufferView": 48,
      "componentType": 5126,
      "count": 12,
      "max": [
        0.4247516989707947,
        0.029999999329447746,
        0.1814740002155304
      ],
      "min": [
        0.10319919884204865,
        0.029999999329447746,
        0.022693390026688576
      ],
      "name": "slice5_Material0/POSITION",
      "type": "VEC3"
    },
    {
      "bufferView": 48,
      "byteOffset": 12,
      "componentType": 5126,
      "count": 12,
      "name": "slice5_Material0/NORMAL",
      "type": "VEC3"
    },
    {
      "bufferView": 48,
      "byteOffset": 24,
      "componentType": 5126,
      "count": 12,
      "name": "slice5_Material0/TEXCOORD_0",
      "type": "VEC2"
    },
    {
      "bufferView": 49,
      "componentType": 5123,
      "count": 18,
      "name": "slice5_Material0/INDICES",
      "type": "SCALAR"
    },
    {
      "bufferView": 50,
      "componentType": 5126,
      "count": 55,
      "max": [
        0.6100000143051147,
        0.05000000074505806,
        0.4313352108001709
      ],
      "min": [
        -3.609557054039112e-16,
        0.0,
        -6.041229183573193e-10
      ],
      "name": "slice6_Material0/POSITION",
      "type": "VEC3"
    },
    {
      "bufferView": 50,
      "byteOffset": 12,
      "componentType": 5126,
      "count": 55,
      "name": "slice6_Material0/NORMAL",
      "type": "VEC3"
    },
    {
      "bufferView": 50,
      "byteOffset": 24,
      "componentType": 5126,
      "count": 55,
      "name": "slice6_Material0/TEXCOORD_0",
      "type": "VEC2"
    },
    {
      "bufferView": 51,
      "componentType": 5123,
      "count": 105,
      "name": "slice6_Material0/INDICES",
      "type": "SCALAR"
    },
    {
      "bufferView": 52,
      "componentType": 5126,
      "count": 72,
      "max": [
        0.48371830582618713,
        0.029999999329447746,
        0.34204038977622986
      ],
      "min": [
        -3.609557054039112e-16,
        0.014999999664723873,
        2.0564510094800426e-09
      ],
      "name": "slice6_Material0/POSITION",
      "type": "VEC3"
    },
    {
      "bufferView": 52,
      "byteOffset": 12,
      "componentType": 5126,
      "count": 72,
      "name": "slice6_Material0/NORMAL",
      "type": "VEC3"
    },
    {
      "bufferView": 52,
      "byteOffset": 24,
      "componentType": 5126,
      "count": 72,
      "name": "slice6_Material0/TEXCOORD_0",
      "type": "VEC2"
    },
    {
      "bufferView": 53,
      "componentType": 5123,
      "count": 228,
      "name": "slice6_Material0/INDICES",
      "type": "SCALAR"
    },
    {
      "bufferView": 54,
      "componentType": 5126,
      "count": 32,
      "max": [
        0.44290679693222046,
        0.029999999329447746,
        0.14540010690689087
      ],
      "min": [
        0.16920170187950134,
        0.029999999329447746,
        0.029876569285988808
      ],
      "name": "slice6_Material0/POSITION",
      "type": "VEC3"
    },
    {
      "bufferView": 54,
      "byteOffset": 12,
      "componentType": 5126,
      "count": 32,
      "name": "slice6_Material0/NORMAL",
      "type": "VEC3"
    },
    {
      "bufferView": 54,
      "byteOffset": 24,
      "componentType": 5126,
      "count": 32,
      "name": "slice6_Material0/TEXCOORD_0",
      "type": "VEC2"
    },
    {
      "bufferView": 55,
      "componentType": 5123,
      "count": 96,
      "name": "slice6_Material0/INDICES",
      "type": "SCALAR"
    },
    {
      "bufferView": 56,
      "componentType": 5126,
      "count": 79,
      "max": [
        0.5214381814002991,
        0.03999999910593033,
        0.36871251463890076
      ],
      "min": [
        0.27732521295547485,
        0.014999999664723873,
        1.2617450417806708e-09
      ],
      "name": "slice6_Material0/POSITION",
      "type": "VEC3"
    },
    {
      "bufferView": 56,
      "byteOffset": 12,
      "componentType": 5126,
      "count": 79,
      "name": "slice6_Material0/NORMAL",
      "type": "VEC3"
    },
    {
      "bufferView": 56,
      "byteOffset": 24,
      "componentType": 5126,
      "count": 79,
      "name": "slice6_Material0/TEXCOORD_0",
      "type": "VEC2"
    },
    {
      "bufferView": 57,
      "componentType": 5123,
      "count": 135,
      "name": "slice6_Material0/INDICES",
      "type": "SCALAR"
    },
    {
      "bufferView": 58,
      "componentType": 5126,
      "count": 12,
      "max": [
        0.4247516989707947,
        0.029999999329447746,
        0.1814740002155304
      ],
      "min": [
        0.10319919884204865,
        0.029999999329447746,
        0.022693390026688576
      ],
      "name": "slice6_Material0/POSITION",
      "type": "VEC3"
    },
    {
      "bufferView": 58,
      "byteOffset": 12,
      "componentType": 5126,
      "count": 12,
      "name": "slice6_Material0/NORMAL",
      "type": "VEC3"
    },
    {
      "bufferView": 58,
      "byteOffset": 24,
      "componentType": 5126,
      "count": 12,
      "name": "slice6_Material0/TEXCOORD_0",
      "type": "VEC2"
    },
    {
      "bufferView": 59,
      "componentType": 5123,
      "count": 18,
      "name": "slice6_Material0/INDICES",
      "type": "SCALAR"
    },
    {
      "bufferView": 60,
      "componentType": 5126,
      "count": 55,
      "max": [
        0.6100000143051147,
        0.05000000074505806,
        0.4313352108001709
      ],
      "min": [
        -3.609557054039112e-16,
        0.0,
        -6.041229183573193e-10
      ],
      "name": "slice7_Material0/POSITION",
      "type": "VEC3"
    },
    {
      "bufferView": 60,
      "byteOffset": 12,
      "componentType": 5126,
      "count": 55,
      "name": "slice7_Material0/NORMAL",
      "type": "VEC3"
    },
    {
      "bufferView": 60,
      "byteOffset": 24,
      "componentType": 5126,
      "count": 55,
      "name": "slice7_Material0/TEXCOORD_0",
      "type": "VEC2"
    },
    {
      "bufferView": 61,
      "componentType": 5123,
      "count": 105,
      "name": "slice7_Material0/INDICES",
      "type": "SCALAR"
    },
    {
      "bufferView": 62,
      "componentType": 5126,
      "count": 72,
      "max": [
        0.48371830582618713,
        0.029999999329447746,
        0.34204038977622986
      ],
      "min": [
        -3.609557054039112e-16,
        0.014999999664723873,
        2.0564510094800426e-09
      ],
      "name": "slice7_Material0/POSITION",
      "type": "VEC3"
    },
    {
      "bufferView": 62,
      "byteOffset": 12,
      "componentType": 5126,
      "count": 72,
      "name": "slice7_Material0/NORMAL",
      "type": "VEC3"
    },
    {
      "bufferView": 62,
      "byteOffset": 24,
      "componentType": 5126,
      "count": 72,
      "name": "slice7_Material0/TEXCOORD_0",
      "type": "VEC2"
    },
    {
      "bufferView": 63,
      "componentType": 5123,
      "count": 228,
      "name": "slice7_Material0/INDICES",
      "type": "SCALAR"
    },
    {
      "bufferView": 64,
      "componentType": 5126,
      "count": 32,
      "max": [
        0.44290679693222046,
        0.029999999329447746,
        0.14540010690689087
      ],
      "min": [
        0.16920170187950134,
        0.029999999329447746,
        0.029876569285988808
      ],
      "name": "slice7_Material0/POSITION",
      "type": "VEC3"
    },
    {
      "bufferView": 64,
      "byteOffset": 12,
      "componentType": 5126,
      "count": 32,
      "name": "slice7_Material0/NORMAL",
      "type": "VEC3"
    },
    {
      "bufferView": 64,
      "byteOffset": 24,
      "componentType": 5126,
      "count": 32,
      "name": "slice7_Material0/TEXCOORD_0",
      "type": "VEC2"
    },
    {
      "bufferView": 65,
      "componentType": 5123,
      "count": 96,
      "name": "slice7_Material0/INDICES",
      "type": "SCALAR"
    },
    {
      "bufferView": 66,
      "componentType": 5126,
      "count": 79,
      "max": [
        0.5214381814002991,
        0.03999999910593033,
        0.36871251463890076
      ],
      "min": [
        0.27732521295547485,
        0.014999999664723873,
        1.2617450417806708e-09
      ],
      "name": "slice7_Material0/POSITION",
      "type": "VEC3"
    },
    {
      "bufferView": 66,
      "byteOffset": 12,
      "componentType": 5126,
      "count": 79,
      "name": "slice7_Material0/NORMAL",
      "type": "VEC3"
    },
    {
      "bufferView": 66,
      "byteOffset": 24,
      "componentType": 5126,
      "count": 79,
      "name": "slice7_Material0/TEXCOORD_0",
      "type": "VEC2"
    },
    {
      "bufferView": 67,
      "componentType": 5123,
      "count": 135,
      "name": "slice7_Material0/INDICES",
      "type": "SCALAR"
    },
    {
      "bufferView": 68,
      "componentType": 5126,
      "count": 12,
      "max": [
        0.4247516989707947,
        0.029999999329447746,
        0.1814740002155304
      ],
      "min": [
        0.10319919884204865,
        0.029999999329447746,
        0.022693390026688576
      ],
      "name": "slice7_Material0/POSITION",
      "type": "VEC3"
    },
    {
      "bufferView": 68,
      "byteOffset": 12,
      "componentType": 5126,
      "count": 12,
      "name": "slice7_Material0/NORMAL",
      "type": "VEC3"
    },
    {
      "bufferView": 68,
      "byteOffset": 24,
      "componentType": 5126,
      "count": 12,
      "name": "slice7_Material0/TEXCOORD_0",
      "type": "VEC2"
    },
    {
      "bufferView": 69,
      "componentType": 5123,
      "count": 18,
      "name": "slice7_Material0/INDICES",
      "type": "SCALAR"
    },
    {
      "bufferView": 70,
      "componentType": 5126,
      "count": 55,
      "max": [
        0.6100000143051147,
        0.05000000074505806,
        0.4313352108001709
      ],
      "min": [
        -3.609557054039112e-16,
        0.0,
        -6.041229183573193e-10
      ],
      "name": "slice8_Material0/POSITION",
      "type": "VEC3"
    },
    {
      "bufferView": 70,
      "byteOffset": 12,
      "componentType": 5126,
      "count": 55,
      "name": "slice8_Material0/NORMAL",
      "type": "VEC3"
    },
    {
      "bufferView": 70,
      "byteOffset": 24,
      "componentType": 5126,
      "count": 55,
      "name": "slice8_Material0/TEXCOORD_0",
      "type": "VEC2"
    },
    {
      "bufferView": 71,
      "componentType": 5123,
      "count": 105,
      "name": "slice8_Material0/INDICES",
      "type": "SCALAR"
    },
    {
      "bufferView": 72,
      "componentType": 5126,
      "count": 72,
      "max": [
        0.48371830582618713,
        0.029999999329447746,
        0.34204038977622986
      ],
      "min": [
        -3.609557054039112e-16,
        0.014999999664723873,
        2.0564510094800426e-09
      ],
      "name": "slice8_Material0/POSITION",
      "type": "VEC3"
    },
    {
      "bufferView": 72,
      "byteOffset": 12,
      "componentType": 5126,
      "count": 72,
      "name": "slice8_Material0/NORMAL",
      "type": "VEC3"
    },
    {
      "bufferView": 72,
      "byteOffset": 24,
      "componentType": 5126,
      "count": 72,
      "name": "slice8_Material0/TEXCOORD_0",
      "type": "VEC2"
    },
    {
      "bufferView": 73,
      "componentType": 5123,
      "count": 228,
      "name": "slice8_Material0/INDICES",
      "type": "SCALAR"
    },
    {
      "bufferView": 74,
      "componentType": 5126,
      "count": 32,
      "max": [
        0.44290679693222046,
        0.029999999329447746,
        0.14540010690689087
      ],
      "min": [
        0.16920170187950134,
        0.029999999329447746,
        0.029876569285988808
      ],
      "name": "slice8_Material0/POSITION",
      "type": "VEC3"
    },
    {
      "bufferView": 74,
      "byteOffset": 12,
      "componentType": 5126,
      "count": 32,
      "name": "slice8_Material0/NORMAL",
      "type": "VEC3"
    },
    {
      "bufferView": 74,
      "byteOffset": 24,
      "componentType": 5126,
      "count": 32,
      "name": "slice8_Material0/TEXCOORD_0",
      "type": "VEC2"
    },
    {
      "bufferView": 75,
      "componentType": 5123,
      "count": 96,
      "name": "slice8_Material0/INDICES",
      "type": "SCALAR"
    },
    {
      "bufferView": 76,
      "componentType": 5126,
      "count": 79,
      "max": [
        0.5214381814002991,
        0.03999999910593033,
        0.36871251463890076
      ],
      "min": [
        0.27732521295547485,
        0.014999999664723873,
        1.2617450417806708e-09
      ],
      "name": "slice8_Material0/POSITION",
      "type": "VEC3"
    },
    {
      "bufferView": 76,
      "byteOffset": 12,
      "componentType": 5126,
      "count": 79,
      "name": "slice8_Material0/NORMAL",
      "type": "VEC3"
    },
    {
      "bufferView": 76,
      "byteOffset": 24,
      "componentType": 5126,
      "count": 79,
      "name": "slice8_Material0/TEXCOORD_0",
      "type": "VEC2"
    },
    {
      "bufferView": 77,
      "componentType": 5123,
      "count": 135,
      "name": "slice8_Material0/INDICES",
      "type": "SCALAR"
    },
    {
      "bufferView": 78,
      "componentType": 5126,
      "count": 12,
      "max": [
        0.4247516989707947,
        0.029999999329447746,
        0.1814740002155304
      ],
      "min": [
        0.10319919884204865,
        0.029999999329447746,
        0.022693390026688576
      ],
      "name": "slice8_Material0/POSITION",
      "type": "VEC3"
    },
    {
      "bufferView": 78,
      "byteOffset": 12,
      "componentType": 5126,
      "count": 12,
      "name": "slice8_Material0/NORMAL",
      "type": "VEC3"
    },
    {
      "bufferView": 78,
      "byteOffset": 24,
      "componentType": 5126,
      "count": 12,
      "name": "slice8_Material0/TEXCOORD_0",
      "type": "VEC2"
    },
    {
      "bufferView": 79,
      "componentType": 5123,
      "count": 18,
      "name": "slice8_Material0/INDICES",
      "type": "SCALAR"
    }
  ],
  "asset": {
    "copyright": "Copyright (c) 2018-2020 Chukong Technologies Inc.",
    "generator": "FBX-glTF-conv",
    "version": "2.0"
  },
  "bufferViews": [
    {
      "buffer": 0,
      "byteLength": 1760,
      "byteStride": 32,
      "name": "slice1_Material0",
      "target": 34962
    },
    {
      "buffer": 0,
      "byteLength": 210,
      "byteOffset": 1760,
      "target": 34963
    },
    {
      "buffer": 0,
      "byteLength": 2304,
      "byteOffset": 1970,
      "byteStride": 32,
      "name": "slice1_Material0",
      "target": 34962
    },
    {
      "buffer": 0,
      "byteLength": 456,
      "byteOffset": 4274,
      "target": 34963
    },
    {
      "buffer": 0,
      "byteLength": 1024,
      "byteOffset": 4730,
      "byteStride": 32,
      "name": "slice1_Material0",
      "target": 34962
    },
    {
      "buffer": 0,
      "byteLength": 192,
      "byteOffset": 5754,
      "target": 34963
    },
    {
      "buffer": 0,
      "byteLength": 2528,
      "byteOffset": 5946,
      "byteStride": 32,
      "name": "slice1_Material0",
      "target": 34962
    },
    {
      "buffer": 0,
      "byteLength": 270,
      "byteOffset": 8474,
      "target": 34963
    },
    {
      "buffer": 0,
      "byteLength": 384,
      "byteOffset": 8744,
      "byteStride": 32,
      "name": "slice1_Material0",
      "target": 34962
    },
    {
      "buffer": 0,
      "byteLength": 36,
      "byteOffset": 9128,
      "target": 34963
    },
    {
      "buffer": 0,
      "byteLength": 1760,
      "byteOffset": 9164,
      "byteStride": 32,
      "name": "slice2_Material0",
      "target": 34962
    },
    {
      "buffer": 0,
      "byteLength": 210,
      "byteOffset": 10924,
      "target": 34963
    },
    {
      "buffer": 0,
      "byteLength": 2304,
      "byteOffset": 11134,
      "byteStride": 32,
      "name": "slice2_Material0",
      "target": 34962
    },
    {
      "buffer": 0,
      "byteLength": 456,
      "byteOffset": 13438,
      "target": 34963
    },
    {
      "buffer": 0,
      "byteLength": 1024,
      "byteOffset": 13894,
      "byteStride": 32,
      "name": "slice2_Material0",
      "target": 34962
    },
    {
      "buffer": 0,
      "byteLength": 192,
      "byteOffset": 14918,
      "target": 34963
    },
    {
      "buffer": 0,
      "byteLength": 2528,
      "byteOffset": 15110,
      "byteStride": 32,
      "name": "slice2_Material0",
      "target": 34962
    },
    {
      "buffer": 0,
      "byteLength": 270,
      "byteOffset": 17638,
      "target": 34963
    },
    {
      "buffer": 0,
      "byteLength": 384,
      "byteOffset": 17908,
      "byteStride": 32,
      "name": "slice2_Material0",
      "target": 34962
    },
    {
      "buffer": 0,
      "byteLength": 36,
      "byteOffset": 18292,
      "target": 34963
    },
    {
      "buffer": 0,
      "byteLength": 1760,
      "byteOffset": 18328,
      "byteStride": 32,
      "name": "slice3_Material0",
      "target": 34962
    },
    {
      "buffer": 0,
      "byteLength": 210,
      "byteOffset": 20088,
      "target": 34963
    },
    {
      "buffer": 0,
      "byteLength": 2304,
      "byteOffset": 20298,
      "byteStride": 32,
      "name": "slice3_Material0",
      "target": 34962
    },
    {
      "buffer": 0,
      "byteLength": 456,
      "byteOffset": 22602,
      "target": 34963
    },
    {
      "buffer": 0,
      "byteLength": 1024,
      "byteOffset": 23058,
      "byteStride": 32,
      "name": "slice3_Material0",
      "target": 34962
    },
    {
      "buffer": 0,
      "byteLength": 192,
      "byteOffset": 24082,
      "target": 34963
    },
    {
      "buffer": 0,
      "byteLength": 2528,
      "byteOffset": 24274,
      "byteStride": 32,
      "name": "slice3_Material0",
      "target": 34962
    },
    {
      "buffer": 0,
      "byteLength": 270,
      "byteOffset": 26802,
      "target": 34963
    },
    {
      "buffer": 0,
      "byteLength": 384,
      "byteOffset": 27072,
      "byteStride": 32,
      "name": "slice3_Material0",
      "target": 34962
    },
    {
      "buffer": 0,
      "byteLength": 36,
      "byteOffset": 27456,
      "target": 34963
    },
    {
      "buffer": 0,
      "byteLength": 1760,
      "byteOffset": 27492,
      "byteStride": 32,
      "name": "slice4_Material0",
      "target": 34962
    },
    {
      "buffer": 0,
      "byteLength": 210,
      "byteOffset": 29252,
      "target": 34963
    },
    {
      "buffer": 0,
      "byteLength": 2304,
      "byteOffset": 29462,
      "byteStride": 32,
      "name": "slice4_Material0",
      "target": 34962
    },
    {
      "buffer": 0,
      "byteLength": 456,
      "byteOffset": 31766,
      "target": 34963
    },
    {
      "buffer": 0,
      "byteLength": 1024,
      "byteOffset": 32222,
      "byteStride": 32,
      "name": "slice4_Material0",
      "target": 34962
    },
    {
      "buffer": 0,
      "byteLength": 192,
      "byteOffset": 33246,
      "target": 34963
    },
    {
      "buffer": 0,
      "byteLength": 2528,
      "byteOffset": 33438,
      "byteStride": 32,
      "name": "slice4_Material0",
      "target": 34962
    },
    {
      "buffer": 0,
      "byteLength": 270,
      "byteOffset": 35966,
      "target": 34963
    },
    {
      "buffer": 0,
      "byteLength": 384,
      "byteOffset": 36236,
      "byteStride": 32,
      "name": "slice4_Material0",
      "target": 34962
    },
    {
      "buffer": 0,
      "byteLength": 36,
      "byteOffset": 36620,
      "target": 34963
    },
    {
      "buffer": 0,
      "byteLength": 1760,
      "byteOffset": 36656,
      "byteStride": 32,
      "name": "slice5_Material0",
      "target": 34962
    },
    {
      "buffer": 0,
      "byteLength": 210,
      "byteOffset": 38416,
      "target": 34963
    },
    {
      "buffer": 0,
      "byteLength": 2304,
      "byteOffset": 38626,
      "byteStride": 32,
      "name": "slice5_Material0",
      "target": 34962
    },
    {
      "buffer": 0,
      "byteLength": 456,
      "byteOffset": 40930,
      "target": 34963
    },
    {
      "buffer": 0,
      "byteLength": 1024,
      "byteOffset": 41386,
      "byteStride": 32,
      "name": "slice5_Material0",
      "target": 34962
    },
    {
      "buffer": 0,
      "byteLength": 192,
      "byteOffset": 42410,
      "target": 34963
    },
    {
      "buffer": 0,
      "byteLength": 2528,
      "byteOffset": 42602,
      "byteStride": 32,
      "name": "slice5_Material0",
      "target": 34962
    },
    {
      "buffer": 0,
      "byteLength": 270,
      "byteOffset": 45130,
      "target": 34963
    },
    {
      "buffer": 0,
      "byteLength": 384,
      "byteOffset": 45400,
      "byteStride": 32,
      "name": "slice5_Material0",
      "target": 34962
    },
    {
      "buffer": 0,
      "byteLength": 36,
      "byteOffset": 45784,
      "target": 34963
    },
    {
      "buffer": 0,
      "byteLength": 1760,
      "byteOffset": 45820,
      "byteStride": 32,
      "name": "slice6_Material0",
      "target": 34962
    },
    {
      "buffer": 0,
      "byteLength": 210,
      "byteOffset": 47580,
      "target": 34963
    },
    {
      "buffer": 0,
      "byteLength": 2304,
      "byteOffset": 47790,
      "byteStride": 32,
      "name": "slice6_Material0",
      "target": 34962
    },
    {
      "buffer": 0,
      "byteLength": 456,
      "byteOffset": 50094,
      "target": 34963
    },
    {
      "buffer": 0,
      "byteLength": 1024,
      "byteOffset": 50550,
      "byteStride": 32,
      "name": "slice6_Material0",
      "target": 34962
    },
    {
      "buffer": 0,
      "byteLength": 192,
      "byteOffset": 51574,
      "target": 34963
    },
    {
      "buffer": 0,
      "byteLength": 2528,
      "byteOffset": 51766,
      "byteStride": 32,
      "name": "slice6_Material0",
      "target": 34962
    },
    {
      "buffer": 0,
      "byteLength": 270,
      "byteOffset": 54294,
      "target": 34963
    },
    {
      "buffer": 0,
      "byteLength": 384,
      "byteOffset": 54564,
      "byteStride": 32,
      "name": "slice6_Material0",
      "target": 34962
    },
    {
      "buffer": 0,
      "byteLength": 36,
      "byteOffset": 54948,
      "target": 34963
    },
    {
      "buffer": 0,
      "byteLength": 1760,
      "byteOffset": 54984,
      "byteStride": 32,
      "name": "slice7_Material0",
      "target": 34962
    },
    {
      "buffer": 0,
      "byteLength": 210,
      "byteOffset": 56744,
      "target": 34963
    },
    {
      "buffer": 0,
      "byteLength": 2304,
      "byteOffset": 56954,
      "byteStride": 32,
      "name": "slice7_Material0",
      "target": 34962
    },
    {
      "buffer": 0,
      "byteLength": 456,
      "byteOffset": 59258,
      "target": 34963
    },
    {
      "buffer": 0,
      "byteLength": 1024,
      "byteOffset": 59714,
      "byteStride": 32,
      "name": "slice7_Material0",
      "target": 34962
    },
    {
      "buffer": 0,
      "byteLength": 192,
      "byteOffset": 60738,
      "target": 34963
    },
    {
      "buffer": 0,
      "byteLength": 2528,
      "byteOffset": 60930,
      "byteStride": 32,
      "name": "slice7_Material0",
      "target": 34962
    },
    {
      "buffer": 0,
      "byteLength": 270,
      "byteOffset": 63458,
      "target": 34963
    },
    {
      "buffer": 0,
      "byteLength": 384,
      "byteOffset": 63728,
      "byteStride": 32,
      "name": "slice7_Material0",
      "target": 34962
    },
    {
      "buffer": 0,
      "byteLength": 36,
      "byteOffset": 64112,
      "target": 34963
    },
    {
      "buffer": 0,
      "byteLength": 1760,
      "byteOffset": 64148,
      "byteStride": 32,
      "name": "slice8_Material0",
      "target": 34962
    },
    {
      "buffer": 0,
      "byteLength": 210,
      "byteOffset": 65908,
      "target": 34963
    },
    {
      "buffer": 0,
      "byteLength": 2304,
      "byteOffset": 66118,
      "byteStride": 32,
      "name": "slice8_Material0",
      "target": 34962
    },
    {
      "buffer": 0,
      "byteLength": 456,
      "byteOffset": 68422,
      "target": 34963
    },
    {
      "buffer": 0,
      "byteLength": 1024,
      "byteOffset": 68878,
      "byteStride": 32,
      "name": "slice8_Material0",
      "target": 34962
    },
    {
      "buffer": 0,
      "byteLength": 192,
      "byteOffset": 69902,
      "target": 34963
    },
    {
      "buffer": 0,
      "byteLength": 2528,
      "byteOffset": 70094,
      "byteStride": 32,
      "name": "slice8_Material0",
      "target": 34962
    },
    {
      "buffer": 0,
      "byteLength": 270,
      "byteOffset": 72622,
      "target": 34963
    },
    {
      "buffer": 0,
      "byteLength": 384,
      "byteOffset": 72892,
      "byteStride": 32,
      "name": "slice8_Material0",
      "target": 34962
    },
    {
      "buffer": 0,
      "byteLength": 36,
      "byteOffset": 73276,
      "target": 34963
    }
  ],
  "buffers": [
    {
      "byteLength": 73312,
      "uri": "out.bin"
    }
  ],
  "extras": {
    "FBX-glTF-conv": {
      "animationFrameRate": 24.0,
      "fbxFileHeaderInfo": {
        "creationTimeStamp": {
          "day": 2,
          "hour": 17,
          "millisecond": 621,
          "minute": 34,
          "month": 6,
          "second": 32,
          "year": 2022
        },
        "creator": "Model created by Kenney (www.kenney.nl)",
        "sceneInfo": {
          "author": "",
          "comment": "",
          "keywords": "",
          "original": {
            "applicationName": "",
            "applicationVendor": "",
            "applicationVersion": "",
            "fileName": ""
          },
          "revision": "",
          "subject": "",
          "title": "",
          "url": "C:\\coin-pusher\\cocos\\coin-pusher-cocos\\assets\\3D食品和厨具套件\\3D食品和厨房\\FBX format\\pizza.fbx"
        }
      }
    }
  },
  "materials": [
    {
      "extras": {
        "FBX-glTF-conv": {
          "raw": {
            "properties": {
              "ambient": {
                "value": [
                  0.2,
                  0.2,
                  0.2
                ]
              },
              "ambientFactor": {
                "value": 1.0
              },
              "bump": {
                "value": [
                  0.0,
                  0.0,
                  0.0
                ]
              },
              "bumpFactor": {
                "value": 1.0
              },
              "diffuse": {
                "value": [
                  1.0,
                  0.6868886,
                  0.495283
                ]
              },
              "diffuseFactor": {
                "value": 1.0
              },
              "displacementColor": {
                "value": [
                  0.0,
                  0.0,
                  0.0
                ]
              },
              "displacementFactor": {
                "value": 1.0
              },
              "emissive": {
                "value": [
                  0.0,
                  0.0,
                  0.0
                ]
              },
              "emissiveFactor": {
                "value": 1.0
              },
              "normalMap": {
                "value": [
                  0.0,
                  0.0,
                  0.0
                ]
              },
              "reflection": {
                "value": [
                  0.0,
                  0.0,
                  0.0
                ]
              },
              "reflectionFactor": {
                "value": 1.0
              },
              "shadingModel": "Phong",
              "shininess": {
                "value": 20.0
              },
              "specular": {
                "value": [
                  0.2,
                  0.2,
                  0.2
                ]
              },
              "specularFactor": {
                "value": 1.0
              },
              "transparencyFactor": {
                "value": 0.0
              },
              "transparentColor": {
                "value": [
                  0.0,
                  0.0,
                  0.0
                ]
              },
              "vectorDisplacementColor": {
                "value": [
                  0.0,
                  0.0,
                  0.0
                ]
              },
              "vectorDisplacementFactor": {
                "value": 1.0
              }
            },
            "type": "phong"
          }
        }
      },
      "name": "brown"
    },
    {
      "extras": {
        "FBX-glTF-conv": {
          "raw": {
            "properties": {
              "ambient": {
                "value": [
                  0.2,
                  0.2,
                  0.2
                ]
              },
              "ambientFactor": {
                "value": 1.0
              },
              "bump": {
                "value": [
                  0.0,
                  0.0,
                  0.0
                ]
              },
              "bumpFactor": {
                "value": 1.0
              },
              "diffuse": {
                "value": [
                  1.0,
                  0.7982377,
                  0.3632075
                ]
              },
              "diffuseFactor": {
                "value": 1.0
              },
              "displacementColor": {
                "value": [
                  0.0,
                  0.0,
                  0.0
                ]
              },
              "displacementFactor": {
                "value": 1.0
              },
              "emissive": {
                "value": [
                  0.0,
                  0.0,
                  0.0
                ]
              },
              "emissiveFactor": {
                "value": 1.0
              },
              "normalMap": {
                "value": [
                  0.0,
                  0.0,
                  0.0
                ]
              },
              "reflection": {
                "value": [
                  0.0,
                  0.0,
                  0.0
                ]
              },
              "reflectionFactor": {
                "value": 1.0
              },
              "shadingModel": "Phong",
              "shininess": {
                "value": 20.0
              },
              "specular": {
                "value": [
                  0.2,
                  0.2,
                  0.2
                ]
              },
              "specularFactor": {
                "value": 1.0
              },
              "transparencyFactor": {
                "value": 0.0
              },
              "transparentColor": {
                "value": [
                  0.0,
                  0.0,
                  0.0
                ]
              },
              "vectorDisplacementColor": {
                "value": [
                  0.0,
                  0.0,
                  0.0
                ]
              },
              "vectorDisplacementFactor": {
                "value": 1.0
              }
            },
            "type": "phong"
          }
        }
      },
      "name": "yellow"
    },
    {
      "extras": {
        "FBX-glTF-conv": {
          "raw": {
            "properties": {
              "ambient": {
                "value": [
                  0.2,
                  0.2,
                  0.2
                ]
              },
              "ambientFactor": {
                "value": 1.0
              },
              "bump": {
                "value": [
                  0.0,
                  0.0,
                  0.0
                ]
              },
              "bumpFactor": {
                "value": 1.0
              },
              "diffuse": {
                "value": [
                  0.2588235,
                  0.1607843,
                  0.1372549
                ]
              },
              "diffuseFactor": {
                "value": 1.0
              },
              "displacementColor": {
                "value": [
                  0.0,
                  0.0,
                  0.0
                ]
              },
              "displacementFactor": {
                "value": 1.0
              },
              "emissive": {
                "value": [
                  0.0,
                  0.0,
                  0.0
                ]
              },
              "emissiveFactor": {
                "value": 1.0
              },
              "normalMap": {
                "value": [
                  0.0,
                  0.0,
                  0.0
                ]
              },
              "reflection": {
                "value": [
                  0.0,
                  0.0,
                  0.0
                ]
              },
              "reflectionFactor": {
                "value": 1.0
              },
              "shadingModel": "Phong",
              "shininess": {
                "value": 20.0
              },
              "specular": {
                "value": [
                  0.2,
                  0.2,
                  0.2
                ]
              },
              "specularFactor": {
                "value": 1.0
              },
              "transparencyFactor": {
                "value": 0.0
              },
              "transparentColor": {
                "value": [
                  0.0,
                  0.0,
                  0.0
                ]
              },
              "vectorDisplacementColor": {
                "value": [
                  0.0,
                  0.0,
                  0.0
                ]
              },
              "vectorDisplacementFactor": {
                "value": 1.0
              }
            },
            "type": "phong"
          }
        }
      },
      "name": "brownDarkest"
    },
    {
      "extras": {
        "FBX-glTF-conv": {
          "raw": {
            "properties": {
              "ambient": {
                "value": [
                  0.2,
                  0.2,
                  0.2
                ]
              },
              "ambientFactor": {
                "value": 1.0
              },
              "bump": {
                "value": [
                  0.0,
                  0.0,
                  0.0
                ]
              },
              "bumpFactor": {
                "value": 1.0
              },
              "diffuse": {
                "value": [
                  0.9098039,
                  0.3333333,
                  0.3254901
                ]
              },
              "diffuseFactor": {
                "value": 1.0
              },
              "displacementColor": {
                "value": [
                  0.0,
                  0.0,
                  0.0
                ]
              },
              "displacementFactor": {
                "value": 1.0
              },
              "emissive": {
                "value": [
                  0.0,
                  0.0,
                  0.0
                ]
              },
              "emissiveFactor": {
                "value": 1.0
              },
              "normalMap": {
                "value": [
                  0.0,
                  0.0,
                  0.0
                ]
              },
              "reflection": {
                "value": [
                  0.0,
                  0.0,
                  0.0
                ]
              },
              "reflectionFactor": {
                "value": 1.0
              },
              "shadingModel": "Phong",
              "shininess": {
                "value": 20.0
              },
              "specular": {
                "value": [
                  0.2,
                  0.2,
                  0.2
                ]
              },
              "specularFactor": {
                "value": 1.0
              },
              "transparencyFactor": {
                "value": 0.0
              },
              "transparentColor": {
                "value": [
                  0.0,
                  0.0,
                  0.0
                ]
              },
              "vectorDisplacementColor": {
                "value": [
                  0.0,
                  0.0,
                  0.0
                ]
              },
              "vectorDisplacementFactor": {
                "value": 1.0
              }
            },
            "type": "phong"
          }
        }
      },
      "name": "red"
    },
    {
      "extras": {
        "FBX-glTF-conv": {
          "raw": {
            "properties": {
              "ambient": {
                "value": [
                  0.2,
                  0.2,
                  0.2
                ]
              },
              "ambientFactor": {
                "value": 1.0
              },
              "bump": {
                "value": [
                  0.0,
                  0.0,
                  0.0
                ]
              },
              "bumpFactor": {
                "value": 1.0
              },
              "diffuse": {
                "value": [
                  0.4170968,
                  0.8584906,
                  0.6967919
                ]
              },
              "diffuseFactor": {
                "value": 1.0
              },
              "displacementColor": {
                "value": [
                  0.0,
                  0.0,
                  0.0
                ]
              },
              "displacementFactor": {
                "value": 1.0
              },
              "emissive": {
                "value": [
                  0.0,
                  0.0,
                  0.0
                ]
              },
              "emissiveFactor": {
                "value": 1.0
              },
              "normalMap": {
                "value": [
                  0.0,
                  0.0,
                  0.0
                ]
              },
              "reflection": {
                "value": [
                  0.0,
                  0.0,
                  0.0
                ]
              },
              "reflectionFactor": {
                "value": 1.0
              },
              "shadingModel": "Phong",
              "shininess": {
                "value": 20.0
              },
              "specular": {
                "value": [
                  0.2,
                  0.2,
                  0.2
                ]
              },
              "specularFactor": {
                "value": 1.0
              },
              "transparencyFactor": {
                "value": 0.0
              },
              "transparentColor": {
                "value": [
                  0.0,
                  0.0,
                  0.0
                ]
              },
              "vectorDisplacementColor": {
                "value": [
                  0.0,
                  0.0,
                  0.0
                ]
              },
              "vectorDisplacementFactor": {
                "value": 1.0
              }
            },
            "type": "phong"
          }
        }
      },
      "name": "green"
    }
  ],
  "meshes": [
    {
      "name": "slice1_Material0",
      "primitives": [
        {
          "attributes": {
            "NORMAL": 1,
            "POSITION": 0,
            "TEXCOORD_0": 2
          },
          "indices": 3,
          "material": 0
        },
        {
          "attributes": {
            "NORMAL": 5,
            "POSITION": 4,
            "TEXCOORD_0": 6
          },
          "indices": 7,
          "material": 1
        },
        {
          "attributes": {
            "NORMAL": 9,
            "POSITION": 8,
            "TEXCOORD_0": 10
          },
          "indices": 11,
          "material": 2
        },
        {
          "attributes": {
            "NORMAL": 13,
            "POSITION": 12,
            "TEXCOORD_0": 14
          },
          "indices": 15,
          "material": 3
        },
        {
          "attributes": {
            "NORMAL": 17,
            "POSITION": 16,
            "TEXCOORD_0": 18
          },
          "indices": 19,
          "material": 4
        }
      ]
    },
    {
      "name": "slice2_Material0",
      "primitives": [
        {
          "attributes": {
            "NORMAL": 21,
            "POSITION": 20,
            "TEXCOORD_0": 22
          },
          "indices": 23,
          "material": 0
        },
        {
          "attributes": {
            "NORMAL": 25,
            "POSITION": 24,
            "TEXCOORD_0": 26
          },
          "indices": 27,
          "material": 1
        },
        {
          "attributes": {
            "NORMAL": 29,
            "POSITION": 28,
            "TEXCOORD_0": 30
          },
          "indices": 31,
          "material": 2
        },
        {
          "attributes": {
            "NORMAL": 33,
            "POSITION": 32,
            "TEXCOORD_0": 34
          },
          "indices": 35,
          "material": 3
        },
        {
          "attributes": {
            "NORMAL": 37,
            "POSITION": 36,
            "TEXCOORD_0": 38
          },
          "indices": 39,
          "material": 4
        }
      ]
    },
    {
      "name": "slice3_Material0",
      "primitives": [
        {
          "attributes": {
            "NORMAL": 41,
            "POSITION": 40,
            "TEXCOORD_0": 42
          },
          "indices": 43,
          "material": 0
        },
        {
          "attributes": {
            "NORMAL": 45,
            "POSITION": 44,
            "TEXCOORD_0": 46
          },
          "indices": 47,
          "material": 1
        },
        {
          "attributes": {
            "NORMAL": 49,
            "POSITION": 48,
            "TEXCOORD_0": 50
          },
          "indices": 51,
          "material": 2
        },
        {
          "attributes": {
            "NORMAL": 53,
            "POSITION": 52,
            "TEXCOORD_0": 54
          },
          "indices": 55,
          "material": 3
        },
        {
          "attributes": {
            "NORMAL": 57,
            "POSITION": 56,
            "TEXCOORD_0": 58
          },
          "indices": 59,
          "material": 4
        }
      ]
    },
    {
      "name": "slice4_Material0",
      "primitives": [
        {
          "attributes": {
            "NORMAL": 61,
            "POSITION": 60,
            "TEXCOORD_0": 62
          },
          "indices": 63,
          "material": 0
        },
        {
          "attributes": {
            "NORMAL": 65,
            "POSITION": 64,
            "TEXCOORD_0": 66
          },
          "indices": 67,
          "material": 1
        },
        {
          "attributes": {
            "NORMAL": 69,
            "POSITION": 68,
            "TEXCOORD_0": 70
          },
          "indices": 71,
          "material": 2
        },
        {
          "attributes": {
            "NORMAL": 73,
            "POSITION": 72,
            "TEXCOORD_0": 74
          },
          "indices": 75,
          "material": 3
        },
        {
          "attributes": {
            "NORMAL": 77,
            "POSITION": 76,
            "TEXCOORD_0": 78
          },
          "indices": 79,
          "material": 4
        }
      ]
    },
    {
      "name": "slice5_Material0",
      "primitives": [
        {
          "attributes": {
            "NORMAL": 81,
            "POSITION": 80,
            "TEXCOORD_0": 82
          },
          "indices": 83,
          "material": 0
        },
        {
          "attributes": {
            "NORMAL": 85,
            "POSITION": 84,
            "TEXCOORD_0": 86
          },
          "indices": 87,
          "material": 1
        },
        {
          "attributes": {
            "NORMAL": 89,
            "POSITION": 88,
            "TEXCOORD_0": 90
          },
          "indices": 91,
          "material": 2
        },
        {
          "attributes": {
            "NORMAL": 93,
            "POSITION": 92,
            "TEXCOORD_0": 94
          },
          "indices": 95,
          "material": 3
        },
        {
          "attributes": {
            "NORMAL": 97,
            "POSITION": 96,
            "TEXCOORD_0": 98
          },
          "indices": 99,
          "material": 4
        }
      ]
    },
    {
      "name": "slice6_Material0",
      "primitives": [
        {
          "attributes": {
            "NORMAL": 101,
            "POSITION": 100,
            "TEXCOORD_0": 102
          },
          "indices": 103,
          "material": 0
        },
        {
          "attributes": {
            "NORMAL": 105,
            "POSITION": 104,
            "TEXCOORD_0": 106
          },
          "indices": 107,
          "material": 1
        },
        {
          "attributes": {
            "NORMAL": 109,
            "POSITION": 108,
            "TEXCOORD_0": 110
          },
          "indices": 111,
          "material": 2
        },
        {
          "attributes": {
            "NORMAL": 113,
            "POSITION": 112,
            "TEXCOORD_0": 114
          },
          "indices": 115,
          "material": 3
        },
        {
          "attributes": {
            "NORMAL": 117,
            "POSITION": 116,
            "TEXCOORD_0": 118
          },
          "indices": 119,
          "material": 4
        }
      ]
    },
    {
      "name": "slice7_Material0",
      "primitives": [
        {
          "attributes": {
            "NORMAL": 121,
            "POSITION": 120,
            "TEXCOORD_0": 122
          },
          "indices": 123,
          "material": 0
        },
        {
          "attributes": {
            "NORMAL": 125,
            "POSITION": 124,
            "TEXCOORD_0": 126
          },
          "indices": 127,
          "material": 1
        },
        {
          "attributes": {
            "NORMAL": 129,
            "POSITION": 128,
            "TEXCOORD_0": 130
          },
          "indices": 131,
          "material": 2
        },
        {
          "attributes": {
            "NORMAL": 133,
            "POSITION": 132,
            "TEXCOORD_0": 134
          },
          "indices": 135,
          "material": 3
        },
        {
          "attributes": {
            "NORMAL": 137,
            "POSITION": 136,
            "TEXCOORD_0": 138
          },
          "indices": 139,
          "material": 4
        }
      ]
    },
    {
      "name": "slice8_Material0",
      "primitives": [
        {
          "attributes": {
            "NORMAL": 141,
            "POSITION": 140,
            "TEXCOORD_0": 142
          },
          "indices": 143,
          "material": 0
        },
        {
          "attributes": {
            "NORMAL": 145,
            "POSITION": 144,
            "TEXCOORD_0": 146
          },
          "indices": 147,
          "material": 1
        },
        {
          "attributes": {
            "NORMAL": 149,
            "POSITION": 148,
            "TEXCOORD_0": 150
          },
          "indices": 151,
          "material": 2
        },
        {
          "attributes": {
            "NORMAL": 153,
            "POSITION": 152,
            "TEXCOORD_0": 154
          },
          "indices": 155,
          "material": 3
        },
        {
          "attributes": {
            "NORMAL": 157,
            "POSITION": 156,
            "TEXCOORD_0": 158
          },
          "indices": 159,
          "material": 4
        }
      ]
    }
  ],
  "nodes": [
    {
      "children": [
        1,
        2,
        3,
        4,
        5,
        6,
        7,
        8
      ],
      "name": "pizza"
    },
    {
      "mesh": 0,
      "name": "slice1",
      "rotation": [
        6.123234262925839e-17,
        1.0,
        6.123234262925839e-17,
        -6.123234262925839e-17
      ],
      "scale": [
        0.6899999976158142,
        0.8694000244140625,
        0.6899999976158142
      ],
      "translation": [
        2.7458879614528087e-08,
        5.075939896755716e-17,
        3.590977826206654e-08
      ]
    },
    {
      "mesh": 1,
      "name": "slice2",
      "rotation": [
        3.313870491472396e-17,
        0.9238795042037964,
        3.313870491472396e-17,
        0.3826834261417389
      ],
      "scale": [
        0.6899999976158142,
        0.8694000244140625,
        0.6899999976158142
      ],
      "translation": [
        2.1483190337789893e-08,
        5.075939896755716e-17,
        3.343457066762312e-08
      ]
    },
    {
      "mesh": 2,
      "name": "slice3",
      "rotation": [
        -0.0,
        0.7071067690849304,
        0.0,
        0.7071067690849304
      ],
      "scale": [
        0.6899999976158142,
        0.8694000244140625,
        0.6899999976158142
      ],
      "translation": [
        1.90079703088486e-08,
        -1.1279869929775288e-17,
        2.7458879614528087e-08
      ]
    },
    {
      "mesh": 3,
      "name": "slice4",
      "rotation": [
        0.0,
        0.3826834261417389,
        0.0,
        0.9238795042037964
      ],
      "scale": [
        0.6899999976158142,
        0.8694000244140625,
        0.6899999976158142
      ],
      "translation": [
        2.1483179679648856e-08,
        -1.1279869929775288e-17,
        2.1483179679648856e-08
      ]
    },
    {
      "mesh": 4,
      "name": "slice5",
      "scale": [
        0.6899999976158142,
        0.8694000244140625,
        0.6899999976158142
      ],
      "translation": [
        2.7458860074602853e-08,
        5.075939896755716e-17,
        1.9007989848773832e-08
      ]
    },
    {
      "mesh": 5,
      "name": "slice6",
      "rotation": [
        0.0,
        -0.3826834261417389,
        0.0,
        0.9238795042037964
      ],
      "scale": [
        0.6899999976158142,
        0.8694000244140625,
        0.6899999976158142
      ],
      "translation": [
        3.343457066762312e-08,
        5.075939896755716e-17,
        2.148319921957409e-08
      ]
    },
    {
      "mesh": 6,
      "name": "slice7",
      "rotation": [
        -0.0,
        -0.7071067094802856,
        0.0,
        0.7071068286895752
      ],
      "scale": [
        0.6899999976158142,
        0.8694000244140625,
        0.6899999976158142
      ],
      "translation": [
        3.590977826206654e-08,
        -1.1279869929775288e-17,
        2.7458879614528087e-08
      ]
    },
    {
      "mesh": 7,
      "name": "slice8",
      "rotation": [
        8.000390961194887e-17,
        0.9238795042037964,
        8.000390961194887e-17,
        -0.3826834261417389
      ],
      "scale": [
        0.6899999976158142,
        0.8694000244140625,
        0.6899999976158142
      ],
      "translation": [
        3.343457066762312e-08,
        -1.1279869929775288e-17,
        3.3434588431191514e-08
      ]
    }
  ],
  "scenes": [
    {
      "nodes": [
        0
      ]
    }
  ]
}